<ttFont>
<head>
    <!-- Most of this table will be recalculated by the compiler -->
    <tableVersion value="1.0"/>
    <fontRevision value="3.0"/>
    <checkSumAdjustment value="0x2d99afb8"/>
    <magicNumber value="0x5f0f3cf5"/>
    <flags value="00000000 00000011"/>
    <unitsPerEm value="1024"/>
    <created value="Sat May  4 15:23:33 2019"/>
    <modified value="Tue May 26 22:14:33 2020"/>
    <xMin value="-576"/>
    <yMin value="-445"/>
    <xMax value="2298"/>
    <yMax value="1103"/>
    <macStyle value="00000000 00000000"/>
    <lowestRecPPEM value="7"/>
    <fontDirectionHint value="2"/>
    <indexToLocFormat value="1"/>
    <glyphDataFormat value="0"/>
  </head>
    <TTGlyph name=".notdef" xMin="-18" yMin="-49" xMax="626" yMax="755">
      <contour>
        <pt x="298" y="-49" on="1"/>
        <pt x="309" y="-49" on="0"/>
        <pt x="338" y="-36" on="0"/>
        <pt x="350" y="-20" on="1"/>
        <pt x="370" y="-11" on="0"/>
        <pt x="413" y="3" on="0"/>
        <pt x="435" y="8" on="1"/>
        <pt x="440" y="-11" on="0"/>
        <pt x="467" y="-31" on="0"/>
        <pt x="482" y="-31" on="1"/>
        <pt x="503" y="-31" on="0"/>
        <pt x="534" y="3" on="0"/>
        <pt x="534" y="32" on="1"/>
        <pt x="585" y="44" on="0"/>
        <pt x="626" y="71" on="0"/>
        <pt x="626" y="97" on="1"/>
        <pt x="626" y="119" on="0"/>
        <pt x="590" y="152" on="0"/>
        <pt x="551" y="146" on="1"/>
        <pt x="551" y="160" on="0"/>
        <pt x="548" y="188" on="0"/>
        <pt x="546" y="202" on="1"/>
        <pt x="554" y="221" on="0"/>
        <pt x="547" y="256" on="0"/>
        <pt x="530" y="269" on="1"/>
        <pt x="522" y="298" on="0"/>
        <pt x="500" y="351" on="0"/>
        <pt x="483" y="377" on="1"/>
        <pt x="492" y="386" on="0"/>
        <pt x="503" y="407" on="0"/>
        <pt x="503" y="421" on="1"/>
        <pt x="503" y="438" on="0"/>
        <pt x="484" y="461" on="0"/>
        <pt x="470" y="466" on="1"/>
        <pt x="486" y="477" on="0"/>
        <pt x="517" y="500" on="0"/>
        <pt x="533" y="512" on="1"/>
        <pt x="547" y="519" on="0"/>
        <pt x="575" y="538" on="0"/>
        <pt x="597" y="560" on="0"/>
        <pt x="611" y="587" on="0"/>
        <pt x="611" y="602" on="1"/>
        <pt x="611" y="623" on="0"/>
        <pt x="583" y="652" on="0"/>
        <pt x="551" y="652" on="1"/>
        <pt x="535" y="652" on="0"/>
        <pt x="496" y="645" on="0"/>
        <pt x="456" y="634" on="0"/>
        <pt x="418" y="622" on="0"/>
        <pt x="405" y="616" on="1"/>
        <pt x="360" y="604" on="0"/>
        <pt x="274" y="583" on="0"/>
        <pt x="229" y="571" on="1"/>
        <pt x="245" y="584" on="0"/>
        <pt x="286" y="617" on="0"/>
        <pt x="321" y="653" on="0"/>
        <pt x="345" y="690" on="0"/>
        <pt x="345" y="707" on="1"/>
        <pt x="345" y="728" on="0"/>
        <pt x="321" y="755" on="0"/>
        <pt x="301" y="755" on="1"/>
        <pt x="282" y="755" on="0"/>
        <pt x="260" y="739" on="0"/>
        <pt x="249" y="728" on="1"/>
        <pt x="233" y="711" on="0"/>
        <pt x="200" y="679" on="0"/>
        <pt x="183" y="663" on="1"/>
        <pt x="165" y="646" on="0"/>
        <pt x="124" y="612" on="0"/>
        <pt x="82" y="578" on="0"/>
        <pt x="42" y="543" on="0"/>
        <pt x="26" y="526" on="1"/>
        <pt x="5" y="503" on="0"/>
        <pt x="-18" y="464" on="0"/>
        <pt x="-18" y="445" on="1"/>
        <pt x="-18" y="431" on="0"/>
        <pt x="-7" y="408" on="0"/>
        <pt x="15" y="396" on="0"/>
        <pt x="46" y="396" on="0"/>
        <pt x="66" y="406" on="1"/>
        <pt x="125" y="435" on="0"/>
        <pt x="255" y="476" on="0"/>
        <pt x="324" y="493" on="1"/>
        <pt x="292" y="478" on="0"/>
        <pt x="223" y="455" on="0"/>
        <pt x="189" y="443" on="1"/>
        <pt x="177" y="443" on="0"/>
        <pt x="156" y="436" on="0"/>
        <pt x="147" y="426" on="1"/>
        <pt x="128" y="418" on="0"/>
        <pt x="82" y="397" on="0"/>
        <pt x="43" y="368" on="0"/>
        <pt x="16" y="330" on="0"/>
        <pt x="16" y="305" on="1"/>
        <pt x="16" y="288" on="0"/>
        <pt x="34" y="268" on="0"/>
        <pt x="61" y="256" on="0"/>
        <pt x="93" y="252" on="0"/>
        <pt x="108" y="252" on="1"/>
        <pt x="105" y="241" on="1"/>
        <pt x="88" y="229" on="1"/>
        <pt x="68" y="215" on="0"/>
        <pt x="31" y="183" on="0"/>
        <pt x="31" y="157" on="1"/>
        <pt x="31" y="135" on="0"/>
        <pt x="60" y="100" on="0"/>
        <pt x="82" y="96" on="1"/>
        <pt x="79" y="70" on="0"/>
        <pt x="90" y="37" on="0"/>
        <pt x="111" y="19" on="0"/>
        <pt x="137" y="15" on="0"/>
        <pt x="150" y="19" on="1"/>
        <pt x="172" y="10" on="0"/>
        <pt x="223" y="6" on="0"/>
        <pt x="253" y="6" on="1"/>
        <pt x="253" y="-18" on="0"/>
        <pt x="275" y="-49" on="0"/>
      </contour>
      <contour>
        <pt x="314" y="247" on="1"/>
        <pt x="346" y="290" on="0"/>
        <pt x="401" y="321" on="1"/>
        <pt x="408" y="310" on="0"/>
        <pt x="417" y="287" on="0"/>
        <pt x="421" y="274" on="1"/>
        <pt x="393" y="269" on="0"/>
        <pt x="338" y="255" on="0"/>
      </contour>
    </TTGlyph>
    <TTGlyph name="A" xMin="7" yMin="-42" xMax="637" yMax="722">
      <contour>
        <pt x="583" y="-42" on="1"/>
        <pt x="606" y="-42" on="0"/>
        <pt x="637" y="-8" on="0"/>
        <pt x="632" y="18" on="1"/>
        <pt x="627" y="44" on="0"/>
        <pt x="611" y="115" on="0"/>
        <pt x="588" y="204" on="0"/>
        <pt x="557" y="311" on="0"/>
        <pt x="538" y="374" on="1"/>
        <pt x="516" y="446" on="0"/>
        <pt x="461" y="597" on="0"/>
        <pt x="433" y="660" on="1"/>
        <pt x="414" y="722" on="0"/>
        <pt x="351" y="722" on="1"/>
        <pt x="323" y="722" on="0"/>
        <pt x="278" y="690" on="0"/>
        <pt x="268" y="661" on="1"/>
        <pt x="188" y="513" on="0"/>
        <pt x="58" y="197" on="0"/>
        <pt x="15" y="46" on="1"/>
        <pt x="7" y="16" on="0"/>
        <pt x="33" y="-21" on="0"/>
        <pt x="58" y="-21" on="1"/>
        <pt x="76" y="-21" on="0"/>
        <pt x="106" y="1" on="0"/>
        <pt x="112" y="21" on="1"/>
        <pt x="124" y="63" on="0"/>
        <pt x="152" y="151" on="0"/>
        <pt x="168" y="196" on="1"/>
        <pt x="239" y="204" on="0"/>
        <pt x="391" y="215" on="0"/>
        <pt x="478" y="219" on="1"/>
        <pt x="484" y="195" on="0"/>
        <pt x="527" y="39" on="0"/>
        <pt x="540" y="-8" on="1"/>
        <pt x="544" y="-24" on="0"/>
        <pt x="568" y="-42" on="0"/>
      </contour>
      <contour>
        <pt x="203" y="290" on="1"/>
        <pt x="232" y="366" on="0"/>
        <pt x="302" y="530" on="0"/>
        <pt x="345" y="621" on="1"/>
        <pt x="371" y="559" on="0"/>
        <pt x="419" y="424" on="0"/>
        <pt x="441" y="348" on="1"/>
        <pt x="453" y="308" on="1"/>
        <pt x="325" y="302" on="0"/>
      </contour>
    </TTGlyph>
    <TTGlyph name="AE" xMin="-28" yMin="-55" xMax="829" yMax="733">
      <contour>
        <pt x="18" y="-55" on="1"/>
        <pt x="31" y="-55" on="0"/>
        <pt x="60" y="-39" on="0"/>
        <pt x="68" y="-21" on="1"/>
        <pt x="89" y="23" on="0"/>
        <pt x="140" y="104" on="0"/>
        <pt x="166" y="146" on="1"/>
        <pt x="225" y="146" on="0"/>
        <pt x="342" y="149" on="0"/>
        <pt x="401" y="150" on="1"/>
        <pt x="401" y="118" on="0"/>
        <pt x="402" y="56" on="0"/>
        <pt x="404" y="24" on="1"/>
        <pt x="411" y="5" on="0"/>
        <pt x="430" y="-13" on="0"/>
        <pt x="450" y="-18" on="1"/>
        <pt x="531" y="-14" on="0"/>
        <pt x="693" y="0" on="0"/>
        <pt x="775" y="3" on="1"/>
        <pt x="802" y="5" on="0"/>
        <pt x="829" y="36" on="0"/>
        <pt x="829" y="53" on="1"/>
        <pt x="829" y="70" on="0"/>
        <pt x="802" y="100" on="0"/>
        <pt x="775" y="103" on="1"/>
        <pt x="706" y="101" on="0"/>
        <pt x="571" y="90" on="0"/>
        <pt x="502" y="85" on="1"/>
        <pt x="500" y="142" on="0"/>
        <pt x="500" y="257" on="0"/>
        <pt x="498" y="315" on="1"/>
        <pt x="541" y="317" on="0"/>
        <pt x="625" y="325" on="0"/>
        <pt x="669" y="326" on="1"/>
        <pt x="696" y="328" on="0"/>
        <pt x="723" y="359" on="0"/>
        <pt x="723" y="376" on="1"/>
        <pt x="723" y="393" on="0"/>
        <pt x="696" y="423" on="0"/>
        <pt x="669" y="426" on="1"/>
        <pt x="624" y="425" on="0"/>
        <pt x="537" y="417" on="0"/>
        <pt x="492" y="415" on="1"/>
        <pt x="487" y="469" on="0"/>
        <pt x="474" y="575" on="0"/>
        <pt x="463" y="628" on="1"/>
        <pt x="480" y="631" on="0"/>
        <pt x="514" y="633" on="0"/>
        <pt x="533" y="633" on="1"/>
        <pt x="588" y="633" on="0"/>
        <pt x="700" y="620" on="0"/>
        <pt x="745" y="618" on="1"/>
        <pt x="772" y="620" on="0"/>
        <pt x="799" y="651" on="0"/>
        <pt x="799" y="668" on="1"/>
        <pt x="799" y="685" on="0"/>
        <pt x="772" y="715" on="0"/>
        <pt x="745" y="718" on="1"/>
        <pt x="692" y="720" on="0"/>
        <pt x="583" y="733" on="0"/>
        <pt x="528" y="733" on="1"/>
        <pt x="489" y="733" on="0"/>
        <pt x="409" y="720" on="0"/>
        <pt x="374" y="705" on="1"/>
        <pt x="342" y="691" on="0"/>
        <pt x="335" y="665" on="1"/>
        <pt x="319" y="640" on="0"/>
        <pt x="296" y="583" on="0"/>
        <pt x="288" y="568" on="1"/>
        <pt x="241" y="484" on="0"/>
        <pt x="149" y="320" on="0"/>
        <pt x="104" y="236" on="1"/>
        <pt x="74" y="180" on="0"/>
        <pt x="3" y="77" on="0"/>
        <pt x="-23" y="19" on="1"/>
        <pt x="-28" y="4" on="0"/>
        <pt x="-28" y="-6" on="1"/>
        <pt x="-28" y="-29" on="0"/>
        <pt x="0" y="-55" on="0"/>
      </contour>
      <contour>
        <pt x="400" y="250" on="1"/>
        <pt x="223" y="246" on="1"/>
        <pt x="246" y="289" on="0"/>
        <pt x="289" y="373" on="0"/>
        <pt x="314" y="415" on="1"/>
        <pt x="331" y="444" on="0"/>
        <pt x="365" y="503" on="0"/>
        <pt x="382" y="532" on="1"/>
        <pt x="393" y="463" on="0"/>
        <pt x="399" y="319" on="0"/>
      </contour>
    </TTGlyph>
    <TTGlyph name="AEacute" xMin="-28" yMin="-55" xMax="829" yMax="934">
      <component glyphName="AE" x="0" y="0" flags="0x0"/>
      <component glyphName="acutecomb.case" x="828" y="6" flags="0x4"/>
    </TTGlyph>
    <TTGlyph name="Aacute" xMin="-12" yMin="-46" xMax="664" yMax="952">
      <component glyphName="Adieresis.comp" x="-28" y="13" flags="0x4"/>
      <component glyphName="acutecomb.case" x="713" y="24" flags="0x4"/>
    </TTGlyph>
    <TTGlyph name="Abreve" xMin="7" yMin="-42" xMax="637" yMax="926">
      <component glyphName="A" x="0" y="0" flags="0x0"/>
      <component glyphName="uni0306.case" x="557" y="-12" flags="0x4"/>
    </TTGlyph>
    <TTGlyph name="Acircumflex" xMin="7" yMin="-42" xMax="637" yMax="941">
      <component glyphName="A" x="0" y="0" flags="0x0"/>
      <component glyphName="uni0302.case" x="708" y="17" flags="0x4"/>
    </TTGlyph>
    <TTGlyph name="Adieresis" xMin="16" yMin="-59" xMax="692" yMax="907">
      <component glyphName="uni0308.case" x="514" y="-45" flags="0x4"/>
      <component glyphName="Adieresis.comp" x="0" y="0" flags="0x0"/>
    </TTGlyph>
    <TTGlyph name="Adieresis.comp" xMin="16" yMin="-59" xMax="692" yMax="722">
      <contour>
        <pt x="67" y="-59" on="1"/>
        <pt x="85" y="-59" on="0"/>
        <pt x="115" y="-37" on="0"/>
        <pt x="121" y="-17" on="1"/>
        <pt x="138" y="40" on="0"/>
        <pt x="179" y="166" on="0"/>
        <pt x="206" y="242" on="1"/>
        <pt x="268" y="241" on="0"/>
        <pt x="407" y="235" on="0"/>
        <pt x="499" y="229" on="1"/>
        <pt x="521" y="161" on="0"/>
        <pt x="563" y="62" on="0"/>
        <pt x="585" y="25" on="1"/>
        <pt x="594" y="9" on="0"/>
        <pt x="621" y="-8" on="0"/>
        <pt x="637" y="-8" on="1"/>
        <pt x="664" y="-8" on="0"/>
        <pt x="692" y="38" on="0"/>
        <pt x="677" y="67" on="1"/>
        <pt x="655" y="109" on="0"/>
        <pt x="606" y="235" on="0"/>
        <pt x="566" y="353" on="1"/>
        <pt x="537" y="441" on="0"/>
        <pt x="487" y="590" on="0"/>
        <pt x="453" y="660" on="1"/>
        <pt x="443" y="691" on="0"/>
        <pt x="403" y="722" on="0"/>
        <pt x="371" y="722" on="1"/>
        <pt x="343" y="722" on="0"/>
        <pt x="298" y="690" on="0"/>
        <pt x="288" y="661" on="1"/>
        <pt x="208" y="513" on="0"/>
        <pt x="72" y="177" on="0"/>
        <pt x="24" y="8" on="1"/>
        <pt x="16" y="-22" on="0"/>
        <pt x="42" y="-59" on="0"/>
      </contour>
      <contour>
        <pt x="469" y="321" on="1"/>
        <pt x="398" y="326" on="0"/>
        <pt x="289" y="330" on="0"/>
        <pt x="240" y="331" on="1"/>
        <pt x="270" y="407" on="0"/>
        <pt x="332" y="551" on="0"/>
        <pt x="365" y="621" on="1"/>
        <pt x="398" y="541" on="0"/>
        <pt x="463" y="339" on="0"/>
      </contour>
    </TTGlyph>
    <TTGlyph name="Agrave" xMin="0" yMin="-42" xMax="630" yMax="929">
      <component glyphName="A" x="-7" y="0" flags="0x0"/>
      <component glyphName="gravecomb.case" x="700" y="11" flags="0x4"/>
    </TTGlyph>
    <TTGlyph name="Alpha" xMin="7" yMin="-42" xMax="637" yMax="722">
      <component glyphName="A" x="0" y="0" flags="0x0"/>
    </TTGlyph>
    <TTGlyph name="Alphatonos" xMin="27" yMin="-42" xMax="708" yMax="722">
      <component glyphName="A" x="71" y="0" flags="0x0"/>
      <component glyphName="tonos" x="0" y="0" flags="0x0"/>
    </TTGlyph>
    <TTGlyph name="Amacron" xMin="7" yMin="-42" xMax="637" yMax="874">
      <component glyphName="A" x="0" y="0" flags="0x0"/>
      <component glyphName="uni0304.case" x="611" y="4" flags="0x4"/>
    </TTGlyph>
    <TTGlyph name="Aogonek" xMin="7" yMin="-294" xMax="691" yMax="722">
      <contour>
        <pt x="555" y="-294" on="1"/>
        <pt x="584" y="-294" on="0"/>
        <pt x="641" y="-278" on="0"/>
        <pt x="663" y="-262" on="1"/>
        <pt x="678" y="-251" on="0"/>
        <pt x="691" y="-219" on="0"/>
        <pt x="683" y="-190" on="0"/>
        <pt x="656" y="-178" on="0"/>
        <pt x="637" y="-184" on="1"/>
        <pt x="614" y="-191" on="0"/>
        <pt x="583" y="-198" on="0"/>
        <pt x="571" y="-198" on="1"/>
        <pt x="552" y="-198" on="0"/>
        <pt x="531" y="-178" on="0"/>
        <pt x="532" y="-156" on="1"/>
        <pt x="534" y="-129" on="0"/>
        <pt x="568" y="-65" on="0"/>
        <pt x="625" y="5" on="1"/>
        <pt x="574" y="53" on="1"/>
        <pt x="542" y="28" on="0"/>
        <pt x="490" y="-24" on="0"/>
        <pt x="451" y="-78" on="0"/>
        <pt x="427" y="-135" on="0"/>
        <pt x="425" y="-164" on="1"/>
        <pt x="423" y="-193" on="0"/>
        <pt x="438" y="-241" on="0"/>
        <pt x="472" y="-275" on="0"/>
        <pt x="524" y="-294" on="0"/>
      </contour>
      <contour>
        <pt x="583" y="-42" on="1"/>
        <pt x="606" y="-42" on="0"/>
        <pt x="637" y="-8" on="0"/>
        <pt x="632" y="18" on="1"/>
        <pt x="627" y="44" on="0"/>
        <pt x="611" y="115" on="0"/>
        <pt x="588" y="204" on="0"/>
        <pt x="557" y="311" on="0"/>
        <pt x="538" y="374" on="1"/>
        <pt x="516" y="446" on="0"/>
        <pt x="461" y="597" on="0"/>
        <pt x="433" y="660" on="1"/>
        <pt x="414" y="722" on="0"/>
        <pt x="351" y="722" on="1"/>
        <pt x="323" y="722" on="0"/>
        <pt x="278" y="690" on="0"/>
        <pt x="268" y="661" on="1"/>
        <pt x="188" y="513" on="0"/>
        <pt x="58" y="197" on="0"/>
        <pt x="15" y="46" on="1"/>
        <pt x="7" y="16" on="0"/>
        <pt x="33" y="-21" on="0"/>
        <pt x="58" y="-21" on="1"/>
        <pt x="76" y="-21" on="0"/>
        <pt x="106" y="1" on="0"/>
        <pt x="112" y="21" on="1"/>
        <pt x="124" y="63" on="0"/>
        <pt x="152" y="151" on="0"/>
        <pt x="168" y="196" on="1"/>
        <pt x="239" y="204" on="0"/>
        <pt x="391" y="215" on="0"/>
        <pt x="478" y="219" on="1"/>
        <pt x="484" y="195" on="0"/>
        <pt x="527" y="39" on="0"/>
        <pt x="540" y="-8" on="1"/>
        <pt x="544" y="-24" on="0"/>
        <pt x="568" y="-42" on="0"/>
      </contour>
      <contour>
        <pt x="203" y="290" on="1"/>
        <pt x="232" y="366" on="0"/>
        <pt x="302" y="530" on="0"/>
        <pt x="345" y="621" on="1"/>
        <pt x="371" y="559" on="0"/>
        <pt x="419" y="424" on="0"/>
        <pt x="441" y="348" on="1"/>
        <pt x="453" y="308" on="1"/>
        <pt x="325" y="302" on="0"/>
      </contour>
    </TTGlyph>
    <TTGlyph name="Aring" xMin="-6" yMin="-38" xMax="631" yMax="827">
      <contour>
        <pt x="41" y="-38" on="1"/>
        <pt x="55" y="-38" on="0"/>
        <pt x="81" y="-21" on="0"/>
        <pt x="91" y="-4" on="1"/>
        <pt x="102" y="44" on="0"/>
        <pt x="141" y="132" on="0"/>
        <pt x="166" y="176" on="1"/>
        <pt x="238" y="176" on="0"/>
        <pt x="383" y="178" on="0"/>
        <pt x="456" y="178" on="1"/>
        <pt x="468" y="145" on="1"/>
        <pt x="476" y="124" on="0"/>
        <pt x="496" y="65" on="0"/>
        <pt x="523" y="11" on="0"/>
        <pt x="559" y="-27" on="0"/>
        <pt x="583" y="-27" on="1"/>
        <pt x="603" y="-27" on="0"/>
        <pt x="631" y="0" on="0"/>
        <pt x="631" y="20" on="1"/>
        <pt x="631" y="34" on="0"/>
        <pt x="622" y="51" on="1"/>
        <pt x="597" y="78" on="0"/>
        <pt x="572" y="151" on="0"/>
        <pt x="560" y="185" on="1"/>
        <pt x="543" y="231" on="0"/>
        <pt x="513" y="326" on="0"/>
        <pt x="477" y="420" on="0"/>
        <pt x="433" y="509" on="0"/>
        <pt x="403" y="548" on="1"/>
        <pt x="450" y="559" on="0"/>
        <pt x="505" y="630" on="0"/>
        <pt x="505" y="684" on="1"/>
        <pt x="505" y="716" on="0"/>
        <pt x="481" y="775" on="0"/>
        <pt x="457" y="792" on="1"/>
        <pt x="448" y="798" on="0"/>
        <pt x="428" y="806" on="0"/>
        <pt x="422" y="806" on="1"/>
        <pt x="417" y="806" on="1"/>
        <pt x="402" y="824" on="0"/>
        <pt x="374" y="827" on="1"/>
        <pt x="350" y="821" on="0"/>
        <pt x="309" y="804" on="0"/>
        <pt x="277" y="775" on="0"/>
        <pt x="259" y="731" on="0"/>
        <pt x="259" y="698" on="1"/>
        <pt x="259" y="665" on="0"/>
        <pt x="280" y="593" on="0"/>
        <pt x="303" y="570" on="1"/>
        <pt x="283" y="555" on="0"/>
        <pt x="252" y="512" on="0"/>
        <pt x="238" y="493" on="1"/>
        <pt x="206" y="451" on="0"/>
        <pt x="160" y="363" on="0"/>
        <pt x="136" y="318" on="1"/>
        <pt x="116" y="282" on="0"/>
        <pt x="74" y="210" on="0"/>
        <pt x="35" y="136" on="0"/>
        <pt x="3" y="60" on="0"/>
        <pt x="-6" y="20" on="1"/>
        <pt x="-6" y="-8" on="0"/>
        <pt x="23" y="-38" on="0"/>
      </contour>
      <contour>
        <pt x="224" y="276" on="1"/>
        <pt x="235" y="296" on="0"/>
        <pt x="257" y="337" on="0"/>
        <pt x="268" y="357" on="1"/>
        <pt x="282" y="386" on="0"/>
        <pt x="320" y="439" on="0"/>
        <pt x="341" y="462" on="1"/>
        <pt x="368" y="420" on="0"/>
        <pt x="406" y="326" on="0"/>
        <pt x="423" y="278" on="1"/>
        <pt x="373" y="278" on="0"/>
        <pt x="274" y="276" on="0"/>
      </contour>
      <contour>
        <pt x="372" y="647" on="1"/>
        <pt x="356" y="669" on="0"/>
        <pt x="356" y="690" on="1"/>
        <pt x="356" y="713" on="0"/>
        <pt x="376" y="723" on="1"/>
        <pt x="379" y="720" on="0"/>
        <pt x="385" y="714" on="0"/>
        <pt x="390" y="712" on="1"/>
        <pt x="398" y="709" on="0"/>
        <pt x="405" y="694" on="0"/>
        <pt x="405" y="685" on="1"/>
        <pt x="405" y="671" on="0"/>
        <pt x="388" y="647" on="0"/>
      </contour>
    </TTGlyph>
    <TTGlyph name="Aringacute" xMin="-6" yMin="-38" xMax="631" yMax="1024">
      <component glyphName="Aring" x="0" y="0" flags="0x0"/>
      <component glyphName="acutecomb.case" x="768" y="96" flags="0x4"/>
    </TTGlyph>
    <TTGlyph name="Atilde" xMin="7" yMin="-42" xMax="637" yMax="918">
      <component glyphName="A" x="0" y="0" flags="0x0"/>
      <component glyphName="tildecomb.case" x="754" y="7" flags="0x4"/>
    </TTGlyph>
    <TTGlyph name="B" xMin="35" yMin="-32" xMax="629" yMax="747">
      <contour>
        <pt x="348" y="-32" on="1"/>
        <pt x="449" y="-32" on="0"/>
        <pt x="604" y="84" on="0"/>
        <pt x="617" y="172" on="1"/>
        <pt x="629" y="256" on="0"/>
        <pt x="531" y="377" on="0"/>
        <pt x="429" y="407" on="1"/>
        <pt x="507" y="422" on="0"/>
        <pt x="594" y="494" on="0"/>
        <pt x="600" y="548" on="1"/>
        <pt x="610" y="642" on="0"/>
        <pt x="474" y="747" on="0"/>
        <pt x="354" y="747" on="1"/>
        <pt x="262" y="747" on="0"/>
        <pt x="95" y="700" on="0"/>
        <pt x="55" y="664" on="1"/>
        <pt x="43" y="653" on="0"/>
        <pt x="35" y="628" on="0"/>
        <pt x="47" y="607" on="0"/>
        <pt x="78" y="600" on="0"/>
        <pt x="100" y="607" on="1"/>
        <pt x="117" y="613" on="0"/>
        <pt x="143" y="620" on="1"/>
        <pt x="143" y="400" on="0"/>
        <pt x="122" y="79" on="1"/>
        <pt x="120" y="56" on="0"/>
        <pt x="148" y="29" on="0"/>
        <pt x="169" y="30" on="1"/>
        <pt x="172" y="25" on="0"/>
        <pt x="178" y="20" on="1"/>
        <pt x="205" y="-3" on="0"/>
        <pt x="297" y="-32" on="0"/>
      </contour>
      <contour>
        <pt x="337" y="60" on="1"/>
        <pt x="314" y="60" on="0"/>
        <pt x="267" y="70" on="0"/>
        <pt x="229" y="86" on="0"/>
        <pt x="222" y="87" on="1"/>
        <pt x="234" y="191" on="0"/>
        <pt x="242" y="352" on="1"/>
        <pt x="269" y="346" on="0"/>
        <pt x="321" y="358" on="1"/>
        <pt x="430" y="331" on="0"/>
        <pt x="513" y="254" on="0"/>
        <pt x="506" y="188" on="1"/>
        <pt x="500" y="132" on="0"/>
        <pt x="401" y="60" on="0"/>
      </contour>
      <contour>
        <pt x="245" y="433" on="1"/>
        <pt x="249" y="562" on="0"/>
        <pt x="246" y="645" on="1"/>
        <pt x="292" y="653" on="0"/>
        <pt x="335" y="653" on="1"/>
        <pt x="499" y="653" on="0"/>
        <pt x="493" y="558" on="1"/>
        <pt x="490" y="511" on="0"/>
        <pt x="387" y="451" on="0"/>
        <pt x="291" y="442" on="1"/>
        <pt x="263" y="439" on="0"/>
      </contour>
    </TTGlyph>
    <TTGlyph name="Beta" xMin="48" yMin="-23" xMax="575" yMax="718">
      <component glyphName="uni0412" x="0" y="0" flags="0x0"/>
    </TTGlyph>
    <TTGlyph name="C" xMin="34" yMin="-27" xMax="539" yMax="697">
      <contour>
        <pt x="404" y="-27" on="1"/>
        <pt x="463" y="-27" on="0"/>
        <pt x="503" y="-7" on="1"/>
        <pt x="519" y="1" on="0"/>
        <pt x="539" y="28" on="0"/>
        <pt x="538" y="57" on="0"/>
        <pt x="514" y="73" on="0"/>
        <pt x="492" y="72" on="1"/>
        <pt x="487" y="72" on="0"/>
        <pt x="432" y="67" on="0"/>
        <pt x="412" y="67" on="1"/>
        <pt x="294" y="67" on="0"/>
        <pt x="145" y="203" on="0"/>
        <pt x="145" y="314" on="1"/>
        <pt x="145" y="377" on="0"/>
        <pt x="191" y="484" on="0"/>
        <pt x="234" y="521" on="1"/>
        <pt x="268" y="550" on="0"/>
        <pt x="369" y="593" on="0"/>
        <pt x="439" y="609" on="1"/>
        <pt x="461" y="614" on="0"/>
        <pt x="484" y="640" on="0"/>
        <pt x="481" y="674" on="0"/>
        <pt x="449" y="697" on="0"/>
        <pt x="423" y="697" on="1"/>
        <pt x="359" y="697" on="0"/>
        <pt x="220" y="646" on="0"/>
        <pt x="166" y="601" on="1"/>
        <pt x="103" y="549" on="0"/>
        <pt x="34" y="402" on="0"/>
        <pt x="34" y="317" on="1"/>
        <pt x="34" y="166" on="0"/>
        <pt x="246" y="-27" on="0"/>
      </contour>
    </TTGlyph>
    <TTGlyph name="Cacute" xMin="34" yMin="-27" xMax="550" yMax="923">
      <component glyphName="C" x="0" y="0" flags="0x0"/>
      <component glyphName="acutecomb.case" x="693" y="-5" flags="0x4"/>
    </TTGlyph>
    <TTGlyph name="Ccaron" xMin="34" yMin="-27" xMax="539" yMax="951">
      <component glyphName="C" x="0" y="0" flags="0x0"/>
      <component glyphName="uni030C.case" x="697" y="71" flags="0x4"/>
    </TTGlyph>
    <TTGlyph name="Ccedilla" xMin="34" yMin="-258" xMax="539" yMax="697">
      <contour>
        <pt x="293" y="-258" on="1"/>
        <pt x="318" y="-258" on="0"/>
        <pt x="370" y="-241" on="0"/>
        <pt x="412" y="-211" on="0"/>
        <pt x="439" y="-168" on="0"/>
        <pt x="439" y="-141" on="1"/>
        <pt x="439" y="-103" on="0"/>
        <pt x="389" y="-52" on="0"/>
        <pt x="354" y="-44" on="1"/>
        <pt x="362" y="-26" on="0"/>
        <pt x="362" y="-10" on="1"/>
        <pt x="362" y="16" on="0"/>
        <pt x="333" y="43" on="0"/>
        <pt x="315" y="43" on="1"/>
        <pt x="300" y="43" on="0"/>
        <pt x="282" y="31" on="0"/>
        <pt x="274" y="21" on="1"/>
        <pt x="270" y="16" on="0"/>
        <pt x="264" y="-2" on="0"/>
        <pt x="263" y="-4" on="1"/>
        <pt x="255" y="-23" on="0"/>
        <pt x="245" y="-59" on="0"/>
        <pt x="245" y="-74" on="1"/>
        <pt x="245" y="-104" on="0"/>
        <pt x="286" y="-142" on="0"/>
        <pt x="335" y="-142" on="1"/>
        <pt x="328" y="-149" on="0"/>
        <pt x="311" y="-155" on="0"/>
        <pt x="304" y="-157" on="1"/>
        <pt x="292" y="-155" on="0"/>
        <pt x="259" y="-152" on="0"/>
        <pt x="250" y="-152" on="1"/>
        <pt x="230" y="-152" on="0"/>
        <pt x="203" y="-182" on="0"/>
        <pt x="203" y="-201" on="1"/>
        <pt x="203" y="-228" on="0"/>
        <pt x="255" y="-258" on="0"/>
      </contour>
      <contour>
        <pt x="404" y="-27" on="1"/>
        <pt x="463" y="-27" on="0"/>
        <pt x="503" y="-7" on="1"/>
        <pt x="519" y="1" on="0"/>
        <pt x="539" y="28" on="0"/>
        <pt x="538" y="57" on="0"/>
        <pt x="514" y="73" on="0"/>
        <pt x="492" y="72" on="1"/>
        <pt x="487" y="72" on="0"/>
        <pt x="432" y="67" on="0"/>
        <pt x="412" y="67" on="1"/>
        <pt x="294" y="67" on="0"/>
        <pt x="145" y="203" on="0"/>
        <pt x="145" y="314" on="1"/>
        <pt x="145" y="377" on="0"/>
        <pt x="191" y="484" on="0"/>
        <pt x="234" y="521" on="1"/>
        <pt x="268" y="550" on="0"/>
        <pt x="369" y="593" on="0"/>
        <pt x="439" y="609" on="1"/>
        <pt x="461" y="614" on="0"/>
        <pt x="484" y="640" on="0"/>
        <pt x="481" y="674" on="0"/>
        <pt x="449" y="697" on="0"/>
        <pt x="423" y="697" on="1"/>
        <pt x="359" y="697" on="0"/>
        <pt x="220" y="646" on="0"/>
        <pt x="166" y="601" on="1"/>
        <pt x="103" y="549" on="0"/>
        <pt x="34" y="402" on="0"/>
        <pt x="34" y="317" on="1"/>
        <pt x="34" y="166" on="0"/>
        <pt x="246" y="-27" on="0"/>
      </contour>
    </TTGlyph>
    <TTGlyph name="Ccircumflex" xMin="34" yMin="-27" xMax="572" yMax="937">
      <component glyphName="C" x="0" y="0" flags="0x0"/>
      <component glyphName="uni0302.case" x="736" y="13" flags="0x4"/>
    </TTGlyph>
    <TTGlyph name="Cdotaccent" xMin="34" yMin="-27" xMax="539" yMax="889">
      <component glyphName="C" x="0" y="0" flags="0x0"/>
      <component glyphName="uni0307.case" x="443" y="-25" flags="0x4"/>
    </TTGlyph>
    <TTGlyph name="Chi" xMin="21" yMin="5" xMax="721" yMax="700">
      <component glyphName="X" x="0" y="0" flags="0x0"/>
    </TTGlyph>
    <TTGlyph name="D" xMin="36" yMin="-24" xMax="748" yMax="725">
      <contour>
        <pt x="184" y="-24" on="1"/>
        <pt x="316" y="-24" on="0"/>
        <pt x="581" y="75" on="0"/>
        <pt x="730" y="247" on="0"/>
        <pt x="739" y="362" on="1"/>
        <pt x="748" y="472" on="0"/>
        <pt x="654" y="637" on="0"/>
        <pt x="464" y="725" on="0"/>
        <pt x="333" y="725" on="1"/>
        <pt x="257" y="725" on="0"/>
        <pt x="121" y="700" on="0"/>
        <pt x="80" y="680" on="1"/>
        <pt x="57" y="669" on="0"/>
        <pt x="36" y="644" on="0"/>
        <pt x="36" y="628" on="1"/>
        <pt x="36" y="604" on="0"/>
        <pt x="70" y="585" on="0"/>
        <pt x="98" y="593" on="1"/>
        <pt x="125" y="601" on="0"/>
        <pt x="163" y="610" on="1"/>
        <pt x="154" y="482" on="0"/>
        <pt x="151" y="218" on="0"/>
        <pt x="158" y="116" on="1"/>
        <pt x="160" y="82" on="0"/>
        <pt x="173" y="65" on="1"/>
        <pt x="124" y="61" on="0"/>
        <pt x="124" y="25" on="1"/>
        <pt x="124" y="3" on="0"/>
        <pt x="157" y="-24" on="0"/>
      </contour>
      <contour>
        <pt x="247" y="73" on="1"/>
        <pt x="258" y="88" on="0"/>
        <pt x="259" y="117" on="1"/>
        <pt x="260" y="144" on="0"/>
        <pt x="255" y="277" on="0"/>
        <pt x="256" y="335" on="1"/>
        <pt x="259" y="520" on="0"/>
        <pt x="267" y="625" on="1"/>
        <pt x="303" y="628" on="0"/>
        <pt x="341" y="628" on="1"/>
        <pt x="493" y="628" on="0"/>
        <pt x="638" y="493" on="0"/>
        <pt x="626" y="363" on="1"/>
        <pt x="615" y="242" on="0"/>
        <pt x="424" y="96" on="0"/>
      </contour>
    </TTGlyph>
    <TTGlyph name="Dcaron" xMin="36" yMin="-24" xMax="748" yMax="912">
      <contour>
        <pt x="335" y="698" on="1"/>
        <pt x="357" y="698" on="0"/>
        <pt x="374" y="722" on="1"/>
        <pt x="405" y="736" on="0"/>
        <pt x="461" y="783" on="0"/>
        <pt x="490" y="797" on="1"/>
        <pt x="514" y="803" on="0"/>
        <pt x="535" y="831" on="0"/>
        <pt x="535" y="848" on="1"/>
        <pt x="535" y="874" on="0"/>
        <pt x="502" y="898" on="0"/>
        <pt x="485" y="898" on="1"/>
        <pt x="471" y="898" on="0"/>
        <pt x="461" y="892" on="1"/>
        <pt x="444" y="888" on="0"/>
        <pt x="411" y="870" on="0"/>
        <pt x="378" y="848" on="0"/>
        <pt x="347" y="824" on="0"/>
        <pt x="334" y="814" on="1"/>
        <pt x="333" y="813" on="0"/>
        <pt x="330" y="813" on="1"/>
        <pt x="315" y="826" on="1"/>
        <pt x="299" y="843" on="0"/>
        <pt x="275" y="879" on="0"/>
        <pt x="258" y="894" on="1"/>
        <pt x="247" y="901" on="1"/>
        <pt x="239" y="906" on="0"/>
        <pt x="224" y="912" on="0"/>
        <pt x="215" y="912" on="1"/>
        <pt x="197" y="912" on="0"/>
        <pt x="168" y="884" on="0"/>
        <pt x="168" y="861" on="1"/>
        <pt x="168" y="839" on="0"/>
        <pt x="194" y="816" on="0"/>
        <pt x="201" y="812" on="1"/>
        <pt x="205" y="807" on="0"/>
        <pt x="218" y="790" on="0"/>
        <pt x="231" y="773" on="0"/>
        <pt x="241" y="760" on="0"/>
        <pt x="243" y="758" on="1"/>
        <pt x="251" y="750" on="0"/>
        <pt x="272" y="729" on="0"/>
        <pt x="296" y="711" on="0"/>
        <pt x="322" y="698" on="0"/>
      </contour>
      <contour>
        <pt x="184" y="-24" on="1"/>
        <pt x="316" y="-24" on="0"/>
        <pt x="581" y="75" on="0"/>
        <pt x="730" y="247" on="0"/>
        <pt x="739" y="362" on="1"/>
        <pt x="748" y="472" on="0"/>
        <pt x="654" y="637" on="0"/>
        <pt x="464" y="725" on="0"/>
        <pt x="333" y="725" on="1"/>
        <pt x="257" y="725" on="0"/>
        <pt x="121" y="700" on="0"/>
        <pt x="80" y="680" on="1"/>
        <pt x="57" y="669" on="0"/>
        <pt x="36" y="644" on="0"/>
        <pt x="36" y="628" on="1"/>
        <pt x="36" y="604" on="0"/>
        <pt x="70" y="585" on="0"/>
        <pt x="98" y="593" on="1"/>
        <pt x="125" y="601" on="0"/>
        <pt x="163" y="610" on="1"/>
        <pt x="154" y="482" on="0"/>
        <pt x="151" y="218" on="0"/>
        <pt x="158" y="116" on="1"/>
        <pt x="160" y="82" on="0"/>
        <pt x="173" y="65" on="1"/>
        <pt x="124" y="61" on="0"/>
        <pt x="124" y="25" on="1"/>
        <pt x="124" y="3" on="0"/>
        <pt x="157" y="-24" on="0"/>
      </contour>
      <contour>
        <pt x="247" y="73" on="1"/>
        <pt x="258" y="88" on="0"/>
        <pt x="259" y="117" on="1"/>
        <pt x="260" y="144" on="0"/>
        <pt x="255" y="277" on="0"/>
        <pt x="256" y="335" on="1"/>
        <pt x="259" y="520" on="0"/>
        <pt x="267" y="625" on="1"/>
        <pt x="303" y="628" on="0"/>
        <pt x="341" y="628" on="1"/>
        <pt x="493" y="628" on="0"/>
        <pt x="638" y="493" on="0"/>
        <pt x="626" y="363" on="1"/>
        <pt x="615" y="242" on="0"/>
        <pt x="424" y="96" on="0"/>
      </contour>
    </TTGlyph>
    <TTGlyph name="Dcroat" xMin="22" yMin="-24" xMax="738" yMax="725">
      <component glyphName="Eth" x="0" y="0" flags="0x0"/>
    </TTGlyph>
    <TTGlyph name="E" xMin="57" yMin="-8" xMax="529" yMax="743">
      <contour>
        <pt x="134" y="-8" on="1"/>
        <pt x="346" y="-8" on="0"/>
        <pt x="458" y="-2" on="1"/>
        <pt x="486" y="-1" on="0"/>
        <pt x="518" y="27" on="0"/>
        <pt x="518" y="50" on="1"/>
        <pt x="518" y="72" on="0"/>
        <pt x="486" y="96" on="0"/>
        <pt x="457" y="96" on="1"/>
        <pt x="342" y="96" on="0"/>
        <pt x="162" y="87" on="1"/>
        <pt x="158" y="181" on="0"/>
        <pt x="162" y="340" on="1"/>
        <pt x="264" y="334" on="0"/>
        <pt x="362" y="337" on="1"/>
        <pt x="385" y="338" on="0"/>
        <pt x="416" y="364" on="0"/>
        <pt x="416" y="385" on="1"/>
        <pt x="416" y="405" on="0"/>
        <pt x="387" y="429" on="0"/>
        <pt x="362" y="431" on="1"/>
        <pt x="278" y="437" on="0"/>
        <pt x="164" y="434" on="1"/>
        <pt x="171" y="648" on="1"/>
        <pt x="387" y="641" on="0"/>
        <pt x="475" y="641" on="1"/>
        <pt x="501" y="641" on="0"/>
        <pt x="529" y="666" on="0"/>
        <pt x="529" y="687" on="1"/>
        <pt x="529" y="708" on="0"/>
        <pt x="499" y="735" on="0"/>
        <pt x="475" y="737" on="1"/>
        <pt x="395" y="743" on="0"/>
        <pt x="151" y="743" on="1"/>
        <pt x="73" y="743" on="0"/>
        <pt x="70" y="678" on="1"/>
        <pt x="63" y="545" on="0"/>
        <pt x="57" y="193" on="0"/>
        <pt x="59" y="75" on="1"/>
        <pt x="60" y="28" on="0"/>
        <pt x="96" y="-8" on="0"/>
      </contour>
    </TTGlyph>
    <TTGlyph name="E.001" xMin="52" yMin="14" xMax="512" yMax="770">
      <contour>
        <pt x="128" y="14" on="1"/>
        <pt x="170" y="14" on="0"/>
        <pt x="260" y="15" on="0"/>
        <pt x="347" y="16" on="0"/>
        <pt x="424" y="18" on="0"/>
        <pt x="452" y="20" on="1"/>
        <pt x="480" y="22" on="0"/>
        <pt x="512" y="49" on="0"/>
        <pt x="512" y="72" on="1"/>
        <pt x="512" y="95" on="0"/>
        <pt x="480" y="118" on="0"/>
        <pt x="451" y="118" on="1"/>
        <pt x="429" y="118" on="0"/>
        <pt x="365" y="117" on="0"/>
        <pt x="288" y="114" on="0"/>
        <pt x="200" y="111" on="0"/>
        <pt x="155" y="109" on="1"/>
        <pt x="152" y="221" on="0"/>
        <pt x="155" y="347" on="1"/>
        <pt x="204" y="345" on="0"/>
        <pt x="301" y="342" on="0"/>
        <pt x="346" y="344" on="1"/>
        <pt x="369" y="345" on="0"/>
        <pt x="400" y="371" on="0"/>
        <pt x="400" y="392" on="1"/>
        <pt x="400" y="412" on="0"/>
        <pt x="372" y="436" on="0"/>
        <pt x="346" y="438" on="1"/>
        <pt x="308" y="440" on="0"/>
        <pt x="205" y="442" on="0"/>
        <pt x="158" y="441" on="1"/>
        <pt x="165" y="675" on="1"/>
        <pt x="233" y="673" on="0"/>
        <pt x="386" y="668" on="0"/>
        <pt x="449" y="668" on="1"/>
        <pt x="477" y="668" on="0"/>
        <pt x="503" y="694" on="0"/>
        <pt x="503" y="714" on="1"/>
        <pt x="503" y="735" on="0"/>
        <pt x="473" y="762" on="0"/>
        <pt x="449" y="764" on="1"/>
        <pt x="421" y="766" on="0"/>
        <pt x="336" y="769" on="0"/>
        <pt x="247" y="770" on="0"/>
        <pt x="168" y="770" on="0"/>
        <pt x="145" y="770" on="1"/>
        <pt x="111" y="770" on="0"/>
        <pt x="66" y="742" on="0"/>
        <pt x="64" y="705" on="1"/>
        <pt x="60" y="634" on="0"/>
        <pt x="55" y="468" on="0"/>
        <pt x="52" y="304" on="0"/>
        <pt x="52" y="153" on="0"/>
        <pt x="53" y="97" on="1"/>
        <pt x="53" y="81" on="0"/>
        <pt x="58" y="51" on="0"/>
        <pt x="73" y="28" on="0"/>
        <pt x="103" y="14" on="0"/>
      </contour>
    </TTGlyph>
    <TTGlyph name="Eacute" xMin="37" yMin="-5" xMax="523" yMax="882">
      <contour>
        <pt x="184" y="-5" on="1"/>
        <pt x="237" y="-5" on="0"/>
        <pt x="344" y="4" on="0"/>
        <pt x="395" y="5" on="1"/>
        <pt x="422" y="7" on="0"/>
        <pt x="449" y="38" on="0"/>
        <pt x="449" y="55" on="1"/>
        <pt x="449" y="72" on="0"/>
        <pt x="422" y="102" on="0"/>
        <pt x="395" y="105" on="1"/>
        <pt x="330" y="103" on="0"/>
        <pt x="203" y="99" on="0"/>
        <pt x="138" y="99" on="1"/>
        <pt x="141" y="147" on="0"/>
        <pt x="149" y="243" on="0"/>
        <pt x="154" y="291" on="1"/>
        <pt x="333" y="291" on="1"/>
        <pt x="360" y="293" on="0"/>
        <pt x="387" y="324" on="0"/>
        <pt x="387" y="341" on="1"/>
        <pt x="387" y="358" on="0"/>
        <pt x="360" y="388" on="0"/>
        <pt x="333" y="391" on="1"/>
        <pt x="164" y="391" on="1"/>
        <pt x="169" y="436" on="0"/>
        <pt x="176" y="524" on="0"/>
        <pt x="178" y="569" on="1"/>
        <pt x="191" y="569" on="0"/>
        <pt x="215" y="571" on="0"/>
        <pt x="228" y="571" on="1"/>
        <pt x="469" y="572" on="1"/>
        <pt x="496" y="574" on="0"/>
        <pt x="523" y="605" on="0"/>
        <pt x="523" y="622" on="1"/>
        <pt x="523" y="639" on="0"/>
        <pt x="496" y="669" on="0"/>
        <pt x="469" y="672" on="1"/>
        <pt x="192" y="671" on="1"/>
        <pt x="178" y="671" on="0"/>
        <pt x="138" y="668" on="0"/>
        <pt x="102" y="656" on="0"/>
        <pt x="76" y="632" on="0"/>
        <pt x="76" y="611" on="1"/>
        <pt x="76" y="603" on="0"/>
        <pt x="79" y="596" on="1"/>
        <pt x="76" y="533" on="0"/>
        <pt x="62" y="406" on="0"/>
        <pt x="48" y="279" on="0"/>
        <pt x="37" y="153" on="0"/>
        <pt x="37" y="90" on="1"/>
        <pt x="37" y="79" on="0"/>
        <pt x="37" y="56" on="0"/>
        <pt x="38" y="45" on="1"/>
        <pt x="45" y="26" on="0"/>
        <pt x="64" y="8" on="0"/>
        <pt x="84" y="3" on="1"/>
        <pt x="108" y="-2" on="0"/>
        <pt x="158" y="-5" on="0"/>
      </contour>
      <contour>
        <pt x="272" y="691" on="1"/>
        <pt x="286" y="691" on="0"/>
        <pt x="310" y="701" on="0"/>
        <pt x="330" y="716" on="0"/>
        <pt x="346" y="730" on="0"/>
        <pt x="353" y="735" on="1"/>
        <pt x="374" y="747" on="0"/>
        <pt x="425" y="767" on="0"/>
        <pt x="470" y="789" on="0"/>
        <pt x="500" y="816" on="0"/>
        <pt x="500" y="835" on="1"/>
        <pt x="500" y="854" on="0"/>
        <pt x="472" y="882" on="0"/>
        <pt x="449" y="882" on="1"/>
        <pt x="444" y="882" on="0"/>
        <pt x="435" y="882" on="0"/>
        <pt x="430" y="880" on="1"/>
        <pt x="383" y="861" on="0"/>
        <pt x="298" y="820" on="0"/>
        <pt x="260" y="788" on="1"/>
        <pt x="253" y="786" on="1"/>
        <pt x="238" y="776" on="0"/>
        <pt x="225" y="752" on="0"/>
        <pt x="225" y="739" on="1"/>
        <pt x="225" y="720" on="0"/>
        <pt x="252" y="691" on="0"/>
      </contour>
    </TTGlyph>
    <TTGlyph name="Ebreve" xMin="57" yMin="-8" xMax="529" yMax="938">
      <component glyphName="E" x="0" y="0" flags="0x0"/>
      <component glyphName="uni0306.case" x="508" y="0" flags="0x0"/>
    </TTGlyph>
    <TTGlyph name="Ecaron" xMin="57" yMin="-8" xMax="529" yMax="913">
      <contour>
        <pt x="301" y="699" on="1"/>
        <pt x="323" y="699" on="0"/>
        <pt x="340" y="723" on="1"/>
        <pt x="371" y="737" on="0"/>
        <pt x="427" y="784" on="0"/>
        <pt x="456" y="798" on="1"/>
        <pt x="480" y="804" on="0"/>
        <pt x="501" y="832" on="0"/>
        <pt x="501" y="849" on="1"/>
        <pt x="501" y="875" on="0"/>
        <pt x="468" y="899" on="0"/>
        <pt x="451" y="899" on="1"/>
        <pt x="437" y="899" on="0"/>
        <pt x="427" y="893" on="1"/>
        <pt x="410" y="889" on="0"/>
        <pt x="377" y="871" on="0"/>
        <pt x="344" y="849" on="0"/>
        <pt x="313" y="825" on="0"/>
        <pt x="300" y="815" on="1"/>
        <pt x="299" y="814" on="0"/>
        <pt x="296" y="814" on="1"/>
        <pt x="281" y="827" on="1"/>
        <pt x="265" y="844" on="0"/>
        <pt x="241" y="880" on="0"/>
        <pt x="224" y="895" on="1"/>
        <pt x="213" y="902" on="1"/>
        <pt x="205" y="907" on="0"/>
        <pt x="190" y="913" on="0"/>
        <pt x="181" y="913" on="1"/>
        <pt x="163" y="913" on="0"/>
        <pt x="134" y="885" on="0"/>
        <pt x="134" y="862" on="1"/>
        <pt x="134" y="840" on="0"/>
        <pt x="160" y="817" on="0"/>
        <pt x="167" y="813" on="1"/>
        <pt x="171" y="808" on="0"/>
        <pt x="184" y="791" on="0"/>
        <pt x="197" y="774" on="0"/>
        <pt x="207" y="761" on="0"/>
        <pt x="209" y="759" on="1"/>
        <pt x="217" y="751" on="0"/>
        <pt x="238" y="730" on="0"/>
        <pt x="262" y="712" on="0"/>
        <pt x="288" y="699" on="0"/>
      </contour>
      <contour>
        <pt x="134" y="-8" on="1"/>
        <pt x="346" y="-8" on="0"/>
        <pt x="458" y="-2" on="1"/>
        <pt x="486" y="-1" on="0"/>
        <pt x="518" y="27" on="0"/>
        <pt x="518" y="50" on="1"/>
        <pt x="518" y="72" on="0"/>
        <pt x="486" y="96" on="0"/>
        <pt x="457" y="96" on="1"/>
        <pt x="342" y="96" on="0"/>
        <pt x="162" y="87" on="1"/>
        <pt x="158" y="181" on="0"/>
        <pt x="162" y="340" on="1"/>
        <pt x="264" y="334" on="0"/>
        <pt x="362" y="337" on="1"/>
        <pt x="385" y="338" on="0"/>
        <pt x="416" y="364" on="0"/>
        <pt x="416" y="385" on="1"/>
        <pt x="416" y="405" on="0"/>
        <pt x="387" y="429" on="0"/>
        <pt x="362" y="431" on="1"/>
        <pt x="278" y="437" on="0"/>
        <pt x="164" y="434" on="1"/>
        <pt x="171" y="648" on="1"/>
        <pt x="387" y="641" on="0"/>
        <pt x="475" y="641" on="1"/>
        <pt x="501" y="641" on="0"/>
        <pt x="529" y="666" on="0"/>
        <pt x="529" y="687" on="1"/>
        <pt x="529" y="708" on="0"/>
        <pt x="499" y="735" on="0"/>
        <pt x="475" y="737" on="1"/>
        <pt x="395" y="743" on="0"/>
        <pt x="151" y="743" on="1"/>
        <pt x="73" y="743" on="0"/>
        <pt x="70" y="678" on="1"/>
        <pt x="63" y="545" on="0"/>
        <pt x="57" y="193" on="0"/>
        <pt x="59" y="75" on="1"/>
        <pt x="60" y="28" on="0"/>
        <pt x="96" y="-8" on="0"/>
      </contour>
    </TTGlyph>
    <TTGlyph name="Ecircumflex" xMin="40" yMin="-16" xMax="551" yMax="972">
      <contour>
        <pt x="124" y="-16" on="1"/>
        <pt x="163" y="-16" on="0"/>
        <pt x="241" y="-8" on="0"/>
        <pt x="318" y="3" on="0"/>
        <pt x="396" y="13" on="0"/>
        <pt x="435" y="15" on="1"/>
        <pt x="462" y="17" on="0"/>
        <pt x="489" y="48" on="0"/>
        <pt x="489" y="65" on="1"/>
        <pt x="489" y="82" on="0"/>
        <pt x="462" y="112" on="0"/>
        <pt x="435" y="115" on="1"/>
        <pt x="361" y="111" on="0"/>
        <pt x="217" y="92" on="0"/>
        <pt x="143" y="86" on="1"/>
        <pt x="142" y="103" on="0"/>
        <pt x="141" y="138" on="0"/>
        <pt x="141" y="155" on="1"/>
        <pt x="141" y="201" on="0"/>
        <pt x="146" y="292" on="0"/>
        <pt x="150" y="338" on="1"/>
        <pt x="192" y="337" on="0"/>
        <pt x="273" y="335" on="0"/>
        <pt x="315" y="335" on="1"/>
        <pt x="342" y="337" on="0"/>
        <pt x="369" y="368" on="0"/>
        <pt x="369" y="385" on="1"/>
        <pt x="369" y="402" on="0"/>
        <pt x="342" y="432" on="0"/>
        <pt x="315" y="435" on="1"/>
        <pt x="276" y="435" on="0"/>
        <pt x="198" y="437" on="0"/>
        <pt x="160" y="438" on="1"/>
        <pt x="165" y="490" on="0"/>
        <pt x="177" y="594" on="0"/>
        <pt x="182" y="646" on="1"/>
        <pt x="196" y="646" on="0"/>
        <pt x="222" y="647" on="0"/>
        <pt x="236" y="647" on="1"/>
        <pt x="265" y="647" on="0"/>
        <pt x="325" y="646" on="0"/>
        <pt x="354" y="646" on="1"/>
        <pt x="394" y="646" on="0"/>
        <pt x="473" y="649" on="0"/>
        <pt x="513" y="654" on="1"/>
        <pt x="533" y="662" on="0"/>
        <pt x="551" y="690" on="0"/>
        <pt x="551" y="704" on="1"/>
        <pt x="551" y="721" on="0"/>
        <pt x="523" y="751" on="0"/>
        <pt x="497" y="753" on="1"/>
        <pt x="462" y="748" on="0"/>
        <pt x="391" y="745" on="0"/>
        <pt x="356" y="745" on="1"/>
        <pt x="323" y="745" on="0"/>
        <pt x="258" y="747" on="0"/>
        <pt x="225" y="747" on="1"/>
        <pt x="206" y="747" on="0"/>
        <pt x="169" y="747" on="0"/>
        <pt x="151" y="745" on="1"/>
        <pt x="147" y="746" on="0"/>
        <pt x="141" y="747" on="0"/>
        <pt x="137" y="747" on="1"/>
        <pt x="122" y="747" on="0"/>
        <pt x="94" y="726" on="0"/>
        <pt x="86" y="705" on="1"/>
        <pt x="81" y="636" on="0"/>
        <pt x="66" y="498" on="0"/>
        <pt x="51" y="360" on="0"/>
        <pt x="40" y="221" on="0"/>
        <pt x="40" y="151" on="1"/>
        <pt x="40" y="125" on="0"/>
        <pt x="43" y="67" on="0"/>
        <pt x="60" y="17" on="0"/>
        <pt x="94" y="-16" on="0"/>
      </contour>
      <contour>
        <pt x="460" y="754" on="1"/>
        <pt x="480" y="754" on="0"/>
        <pt x="508" y="783" on="0"/>
        <pt x="508" y="807" on="1"/>
        <pt x="508" y="823" on="0"/>
        <pt x="492" y="848" on="0"/>
        <pt x="468" y="868" on="0"/>
        <pt x="441" y="885" on="0"/>
        <pt x="431" y="894" on="1"/>
        <pt x="419" y="904" on="0"/>
        <pt x="398" y="931" on="0"/>
        <pt x="375" y="955" on="0"/>
        <pt x="347" y="972" on="0"/>
        <pt x="328" y="972" on="1"/>
        <pt x="305" y="972" on="0"/>
        <pt x="252" y="952" on="0"/>
        <pt x="202" y="923" on="0"/>
        <pt x="159" y="891" on="0"/>
        <pt x="147" y="878" on="1"/>
        <pt x="132" y="857" on="0"/>
        <pt x="132" y="839" on="1"/>
        <pt x="132" y="819" on="0"/>
        <pt x="159" y="791" on="0"/>
        <pt x="178" y="791" on="1"/>
        <pt x="200" y="791" on="0"/>
        <pt x="220" y="810" on="1"/>
        <pt x="240" y="830" on="0"/>
        <pt x="293" y="856" on="0"/>
        <pt x="317" y="869" on="1"/>
        <pt x="334" y="849" on="0"/>
        <pt x="371" y="815" on="0"/>
        <pt x="391" y="800" on="1"/>
        <pt x="407" y="788" on="0"/>
        <pt x="420" y="775" on="1"/>
        <pt x="431" y="764" on="0"/>
        <pt x="448" y="754" on="0"/>
      </contour>
    </TTGlyph>
    <TTGlyph name="Edieresis" xMin="57" yMin="-8" xMax="529" yMax="953">
      <component glyphName="E" x="0" y="0" flags="0x0"/>
      <component glyphName="uni0308.case" x="443" y="1" flags="0x4"/>
    </TTGlyph>
    <TTGlyph name="Edotaccent" xMin="57" yMin="-8" xMax="529" yMax="915">
      <component glyphName="E" x="0" y="0" flags="0x0"/>
      <component glyphName="uni0307.case" x="401" y="1" flags="0x4"/>
    </TTGlyph>
    <TTGlyph name="Egrave" xMin="52" yMin="14" xMax="512" yMax="986">
      <component glyphName="E.001" x="0" y="0" flags="0x0"/>
      <component glyphName="gravecomb.case" x="691" y="68" flags="0x4"/>
    </TTGlyph>
    <TTGlyph name="Emacron" xMin="57" yMin="-8" xMax="529" yMax="905">
      <component glyphName="E" x="0" y="0" flags="0x0"/>
      <component glyphName="uni0304.case" x="555" y="35" flags="0x4"/>
    </TTGlyph>
    <TTGlyph name="Eng" xMin="76" yMin="-225" xMax="608" yMax="728">
      <contour>
        <pt x="406" y="-218" on="1"/>
        <pt x="439" y="-210" on="0"/>
        <pt x="506" y="-161" on="0"/>
        <pt x="560" y="-88" on="0"/>
        <pt x="594" y="2" on="0"/>
        <pt x="605" y="108" on="0"/>
        <pt x="608" y="243" on="0"/>
        <pt x="605" y="401" on="0"/>
        <pt x="594" y="577" on="0"/>
        <pt x="586" y="668" on="1"/>
        <pt x="584" y="693" on="0"/>
        <pt x="557" y="720" on="0"/>
        <pt x="515" y="720" on="0"/>
        <pt x="485" y="691" on="0"/>
        <pt x="486" y="668" on="1"/>
        <pt x="498" y="501" on="0"/>
        <pt x="507" y="228" on="0"/>
        <pt x="504" y="119" on="1"/>
        <pt x="395" y="275" on="0"/>
        <pt x="249" y="548" on="0"/>
        <pt x="200" y="685" on="1"/>
        <pt x="192" y="707" on="0"/>
        <pt x="167" y="728" on="0"/>
        <pt x="147" y="728" on="1"/>
        <pt x="123" y="728" on="0"/>
        <pt x="99" y="695" on="0"/>
        <pt x="97" y="660" on="1"/>
        <pt x="96" y="642" on="0"/>
        <pt x="76" y="220" on="0"/>
        <pt x="76" y="32" on="1"/>
        <pt x="76" y="5" on="0"/>
        <pt x="104" y="-26" on="0"/>
        <pt x="148" y="-26" on="0"/>
        <pt x="177" y="3" on="0"/>
        <pt x="178" y="28" on="1"/>
        <pt x="179" y="81" on="0"/>
        <pt x="180" y="196" on="0"/>
        <pt x="182" y="377" on="0"/>
        <pt x="183" y="451" on="0"/>
        <pt x="183" y="484" on="1"/>
        <pt x="238" y="352" on="0"/>
        <pt x="381" y="114" on="0"/>
        <pt x="480" y="-10" on="1"/>
        <pt x="472" y="-35" on="0"/>
        <pt x="450" y="-73" on="0"/>
        <pt x="422" y="-104" on="0"/>
        <pt x="383" y="-133" on="0"/>
        <pt x="353" y="-150" on="1"/>
        <pt x="337" y="-159" on="0"/>
        <pt x="325" y="-189" on="0"/>
        <pt x="340" y="-216" on="0"/>
        <pt x="379" y="-225" on="0"/>
      </contour>
    </TTGlyph>
    <TTGlyph name="Eogonek" xMin="57" yMin="-289" xMax="557" yMax="743">
      <contour>
        <pt x="421" y="-289" on="1"/>
        <pt x="450" y="-289" on="0"/>
        <pt x="507" y="-273" on="0"/>
        <pt x="529" y="-257" on="1"/>
        <pt x="544" y="-246" on="0"/>
        <pt x="557" y="-214" on="0"/>
        <pt x="549" y="-185" on="0"/>
        <pt x="522" y="-173" on="0"/>
        <pt x="503" y="-179" on="1"/>
        <pt x="480" y="-186" on="0"/>
        <pt x="449" y="-193" on="0"/>
        <pt x="437" y="-193" on="1"/>
        <pt x="418" y="-193" on="0"/>
        <pt x="397" y="-173" on="0"/>
        <pt x="398" y="-151" on="1"/>
        <pt x="400" y="-124" on="0"/>
        <pt x="434" y="-60" on="0"/>
        <pt x="491" y="10" on="1"/>
        <pt x="440" y="58" on="1"/>
        <pt x="408" y="33" on="0"/>
        <pt x="356" y="-19" on="0"/>
        <pt x="317" y="-73" on="0"/>
        <pt x="293" y="-130" on="0"/>
        <pt x="291" y="-159" on="1"/>
        <pt x="289" y="-188" on="0"/>
        <pt x="304" y="-236" on="0"/>
        <pt x="338" y="-270" on="0"/>
        <pt x="390" y="-289" on="0"/>
      </contour>
      <contour>
        <pt x="134" y="-8" on="1"/>
        <pt x="346" y="-8" on="0"/>
        <pt x="458" y="-2" on="1"/>
        <pt x="486" y="-1" on="0"/>
        <pt x="518" y="27" on="0"/>
        <pt x="518" y="50" on="1"/>
        <pt x="518" y="72" on="0"/>
        <pt x="486" y="96" on="0"/>
        <pt x="457" y="96" on="1"/>
        <pt x="342" y="96" on="0"/>
        <pt x="162" y="87" on="1"/>
        <pt x="158" y="181" on="0"/>
        <pt x="162" y="340" on="1"/>
        <pt x="264" y="334" on="0"/>
        <pt x="362" y="337" on="1"/>
        <pt x="385" y="338" on="0"/>
        <pt x="416" y="364" on="0"/>
        <pt x="416" y="385" on="1"/>
        <pt x="416" y="405" on="0"/>
        <pt x="387" y="429" on="0"/>
        <pt x="362" y="431" on="1"/>
        <pt x="278" y="437" on="0"/>
        <pt x="164" y="434" on="1"/>
        <pt x="171" y="648" on="1"/>
        <pt x="387" y="641" on="0"/>
        <pt x="475" y="641" on="1"/>
        <pt x="501" y="641" on="0"/>
        <pt x="529" y="666" on="0"/>
        <pt x="529" y="687" on="1"/>
        <pt x="529" y="708" on="0"/>
        <pt x="499" y="735" on="0"/>
        <pt x="475" y="737" on="1"/>
        <pt x="395" y="743" on="0"/>
        <pt x="151" y="743" on="1"/>
        <pt x="73" y="743" on="0"/>
        <pt x="70" y="678" on="1"/>
        <pt x="63" y="545" on="0"/>
        <pt x="57" y="193" on="0"/>
        <pt x="59" y="75" on="1"/>
        <pt x="60" y="28" on="0"/>
        <pt x="96" y="-8" on="0"/>
      </contour>
    </TTGlyph>
    <TTGlyph name="Epsilon" xMin="57" yMin="-8" xMax="529" yMax="743">
      <component glyphName="E" x="0" y="0" flags="0x0"/>
    </TTGlyph>
    <TTGlyph name="Epsilontonos" xMin="25" yMin="-8" xMax="717" yMax="743">
      <component glyphName="E" x="188" y="0" flags="0x0"/>
      <component glyphName="tonos" x="-2" y="15" flags="0x4"/>
    </TTGlyph>
    <TTGlyph name="Eta" xMin="66" yMin="-35" xMax="535" yMax="737">
      <component glyphName="H" x="0" y="0" flags="0x0"/>
    </TTGlyph>
    <TTGlyph name="Etatonos" xMin="24" yMin="-35" xMax="716" yMax="737">
      <component glyphName="H" x="181" y="0" flags="0x0"/>
      <component glyphName="tonos" x="-3" y="15" flags="0x4"/>
    </TTGlyph>
    <TTGlyph name="Eth" xMin="22" yMin="-24" xMax="738" yMax="725">
      <contour>
        <pt x="202" y="-24" on="1"/>
        <pt x="328" y="-24" on="0"/>
        <pt x="580" y="76" on="0"/>
        <pt x="722" y="247" on="0"/>
        <pt x="730" y="362" on="1"/>
        <pt x="738" y="472" on="0"/>
        <pt x="651" y="636" on="0"/>
        <pt x="473" y="725" on="0"/>
        <pt x="351" y="725" on="1"/>
        <pt x="275" y="725" on="0"/>
        <pt x="139" y="700" on="0"/>
        <pt x="98" y="680" on="1"/>
        <pt x="75" y="669" on="0"/>
        <pt x="54" y="644" on="0"/>
        <pt x="54" y="628" on="1"/>
        <pt x="54" y="604" on="0"/>
        <pt x="88" y="584" on="0"/>
        <pt x="116" y="593" on="1"/>
        <pt x="156" y="606" on="0"/>
        <pt x="175" y="609" on="1"/>
        <pt x="169" y="523" on="0"/>
        <pt x="166" y="418" on="1"/>
        <pt x="128" y="414" on="0"/>
        <pt x="75" y="407" on="1"/>
        <pt x="51" y="404" on="0"/>
        <pt x="22" y="377" on="0"/>
        <pt x="24" y="339" on="0"/>
        <pt x="55" y="315" on="0"/>
        <pt x="80" y="317" on="1"/>
        <pt x="165" y="324" on="1"/>
        <pt x="165" y="196" on="0"/>
        <pt x="170" y="116" on="1"/>
        <pt x="171" y="83" on="0"/>
        <pt x="185" y="64" on="1"/>
        <pt x="142" y="58" on="0"/>
        <pt x="142" y="25" on="1"/>
        <pt x="142" y="3" on="0"/>
        <pt x="175" y="-24" on="0"/>
      </contour>
      <contour>
        <pt x="259" y="73" on="1"/>
        <pt x="269" y="88" on="0"/>
        <pt x="271" y="117" on="1"/>
        <pt x="273" y="140" on="0"/>
        <pt x="270" y="199" on="1"/>
        <pt x="266" y="291" on="0"/>
        <pt x="268" y="331" on="1"/>
        <pt x="401" y="338" on="1"/>
        <pt x="423" y="339" on="0"/>
        <pt x="449" y="365" on="0"/>
        <pt x="446" y="405" on="0"/>
        <pt x="415" y="433" on="0"/>
        <pt x="391" y="433" on="1"/>
        <pt x="340" y="433" on="0"/>
        <pt x="270" y="428" on="1"/>
        <pt x="273" y="514" on="0"/>
        <pt x="279" y="625" on="1"/>
        <pt x="318" y="628" on="0"/>
        <pt x="359" y="628" on="1"/>
        <pt x="497" y="628" on="0"/>
        <pt x="628" y="494" on="0"/>
        <pt x="617" y="363" on="1"/>
        <pt x="597" y="120" on="0"/>
      </contour>
    </TTGlyph>
    <TTGlyph name="Euro" xMin="17" yMin="-17" xMax="695" yMax="702">
      <contour>
        <pt x="448" y="-17" on="1"/>
        <pt x="475" y="-17" on="0"/>
        <pt x="532" y="-8" on="0"/>
        <pt x="585" y="8" on="0"/>
        <pt x="631" y="28" on="0"/>
        <pt x="646" y="40" on="1"/>
        <pt x="671" y="59" on="0"/>
        <pt x="695" y="88" on="0"/>
        <pt x="695" y="105" on="1"/>
        <pt x="695" y="124" on="0"/>
        <pt x="668" y="152" on="0"/>
        <pt x="645" y="152" on="1"/>
        <pt x="622" y="152" on="0"/>
        <pt x="590" y="124" on="0"/>
        <pt x="576" y="113" on="1"/>
        <pt x="566" y="108" on="0"/>
        <pt x="535" y="97" on="0"/>
        <pt x="500" y="88" on="0"/>
        <pt x="464" y="82" on="0"/>
        <pt x="449" y="82" on="1"/>
        <pt x="436" y="82" on="0"/>
        <pt x="402" y="88" on="0"/>
        <pt x="367" y="99" on="0"/>
        <pt x="336" y="116" on="0"/>
        <pt x="325" y="127" on="1"/>
        <pt x="303" y="149" on="0"/>
        <pt x="273" y="215" on="0"/>
        <pt x="265" y="247" on="1"/>
        <pt x="400" y="247" on="1"/>
        <pt x="427" y="249" on="0"/>
        <pt x="454" y="280" on="0"/>
        <pt x="454" y="297" on="1"/>
        <pt x="454" y="314" on="0"/>
        <pt x="427" y="344" on="0"/>
        <pt x="400" y="347" on="1"/>
        <pt x="255" y="347" on="1"/>
        <pt x="255" y="377" on="0"/>
        <pt x="261" y="407" on="1"/>
        <pt x="303" y="407" on="0"/>
        <pt x="383" y="400" on="0"/>
        <pt x="421" y="390" on="1"/>
        <pt x="431" y="387" on="0"/>
        <pt x="440" y="387" on="1"/>
        <pt x="463" y="387" on="0"/>
        <pt x="491" y="416" on="0"/>
        <pt x="491" y="434" on="1"/>
        <pt x="491" y="458" on="0"/>
        <pt x="451" y="485" on="0"/>
        <pt x="393" y="499" on="0"/>
        <pt x="327" y="504" on="0"/>
        <pt x="302" y="505" on="1"/>
        <pt x="321" y="534" on="0"/>
        <pt x="372" y="571" on="0"/>
        <pt x="430" y="593" on="0"/>
        <pt x="494" y="602" on="0"/>
        <pt x="526" y="602" on="1"/>
        <pt x="530" y="602" on="0"/>
        <pt x="565" y="602" on="0"/>
        <pt x="580" y="600" on="1"/>
        <pt x="590" y="595" on="0"/>
        <pt x="610" y="588" on="0"/>
        <pt x="621" y="588" on="1"/>
        <pt x="648" y="588" on="0"/>
        <pt x="675" y="617" on="0"/>
        <pt x="675" y="637" on="1"/>
        <pt x="675" y="651" on="0"/>
        <pt x="657" y="678" on="0"/>
        <pt x="637" y="686" on="1"/>
        <pt x="623" y="691" on="0"/>
        <pt x="599" y="697" on="0"/>
        <pt x="573" y="701" on="0"/>
        <pt x="544" y="702" on="0"/>
        <pt x="525" y="702" on="1"/>
        <pt x="480" y="702" on="0"/>
        <pt x="388" y="687" on="0"/>
        <pt x="304" y="652" on="0"/>
        <pt x="235" y="595" on="0"/>
        <pt x="213" y="553" on="1"/>
        <pt x="207" y="541" on="0"/>
        <pt x="196" y="517" on="0"/>
        <pt x="191" y="505" on="1"/>
        <pt x="165" y="504" on="0"/>
        <pt x="115" y="502" on="0"/>
        <pt x="89" y="502" on="1"/>
        <pt x="66" y="496" on="0"/>
        <pt x="45" y="468" on="0"/>
        <pt x="45" y="452" on="1"/>
        <pt x="45" y="436" on="0"/>
        <pt x="66" y="407" on="0"/>
        <pt x="89" y="402" on="1"/>
        <pt x="108" y="402" on="0"/>
        <pt x="145" y="403" on="0"/>
        <pt x="164" y="404" on="1"/>
        <pt x="159" y="375" on="0"/>
        <pt x="158" y="347" on="1"/>
        <pt x="61" y="347" on="1"/>
        <pt x="38" y="341" on="0"/>
        <pt x="17" y="313" on="0"/>
        <pt x="17" y="297" on="1"/>
        <pt x="17" y="281" on="0"/>
        <pt x="38" y="252" on="0"/>
        <pt x="61" y="247" on="1"/>
        <pt x="163" y="247" on="1"/>
        <pt x="172" y="196" on="0"/>
        <pt x="214" y="101" on="0"/>
        <pt x="284" y="27" on="0"/>
        <pt x="383" y="-17" on="0"/>
      </contour>
      <contour>
        <pt x="559" y="624" on="1"/>
        <pt x="548" y="629" on="0"/>
        <pt x="548" y="641" on="1"/>
        <pt x="548" y="649" on="0"/>
        <pt x="559" y="660" on="0"/>
        <pt x="567" y="660" on="1"/>
        <pt x="575" y="660" on="0"/>
        <pt x="586" y="648" on="0"/>
        <pt x="586" y="640" on="1"/>
        <pt x="586" y="636" on="0"/>
        <pt x="582" y="626" on="0"/>
        <pt x="577" y="624" on="1"/>
        <pt x="579" y="630" on="0"/>
        <pt x="576" y="643" on="0"/>
        <pt x="571" y="645" on="1"/>
        <pt x="569" y="632" on="1"/>
        <pt x="564" y="644" on="1"/>
        <pt x="559" y="640" on="0"/>
        <pt x="557" y="629" on="0"/>
      </contour>
    </TTGlyph>
    <TTGlyph name="F" xMin="51" yMin="-14" xMax="597" yMax="735">
      <contour>
        <pt x="159" y="-14" on="1"/>
        <pt x="184" y="-14" on="0"/>
        <pt x="211" y="21" on="0"/>
        <pt x="210" y="51" on="1"/>
        <pt x="208" y="147" on="0"/>
        <pt x="213" y="312" on="1"/>
        <pt x="285" y="312" on="0"/>
        <pt x="373" y="310" on="1"/>
        <pt x="397" y="309" on="0"/>
        <pt x="425" y="309" on="1"/>
        <pt x="455" y="309" on="0"/>
        <pt x="487" y="335" on="0"/>
        <pt x="487" y="383" on="0"/>
        <pt x="457" y="407" on="0"/>
        <pt x="425" y="409" on="1"/>
        <pt x="358" y="412" on="0"/>
        <pt x="216" y="405" on="1"/>
        <pt x="220" y="493" on="0"/>
        <pt x="227" y="637" on="1"/>
        <pt x="363" y="633" on="0"/>
        <pt x="544" y="638" on="1"/>
        <pt x="569" y="639" on="0"/>
        <pt x="597" y="664" on="0"/>
        <pt x="597" y="684" on="1"/>
        <pt x="597" y="710" on="0"/>
        <pt x="562" y="735" on="0"/>
        <pt x="527" y="734" on="1"/>
        <pt x="388" y="731" on="0"/>
        <pt x="256" y="730" on="0"/>
        <pt x="112" y="734" on="1"/>
        <pt x="89" y="735" on="0"/>
        <pt x="57" y="713" on="0"/>
        <pt x="51" y="676" on="0"/>
        <pt x="76" y="646" on="0"/>
        <pt x="100" y="644" on="1"/>
        <pt x="125" y="642" on="1"/>
        <pt x="114" y="452" on="0"/>
        <pt x="104" y="128" on="0"/>
        <pt x="106" y="44" on="1"/>
        <pt x="107" y="17" on="0"/>
        <pt x="136" y="-14" on="0"/>
      </contour>
    </TTGlyph>
    <TTGlyph name="F_F_S" xMin="53" yMin="-29" xMax="1251" yMax="606">
      <contour>
        <pt x="941" y="-29" on="1"/>
        <pt x="980" y="-29" on="0"/>
        <pt x="1064" y="-9" on="0"/>
        <pt x="1136" y="27" on="0"/>
        <pt x="1190" y="76" on="0"/>
        <pt x="1200" y="106" on="1"/>
        <pt x="1211" y="139" on="0"/>
        <pt x="1211" y="163" on="1"/>
        <pt x="1211" y="200" on="0"/>
        <pt x="1173" y="251" on="0"/>
        <pt x="1114" y="289" on="0"/>
        <pt x="1042" y="315" on="0"/>
        <pt x="1009" y="326" on="1"/>
        <pt x="998" y="330" on="0"/>
        <pt x="968" y="340" on="0"/>
        <pt x="938" y="354" on="0"/>
        <pt x="912" y="370" on="0"/>
        <pt x="906" y="379" on="1"/>
        <pt x="901" y="386" on="0"/>
        <pt x="895" y="405" on="0"/>
        <pt x="895" y="416" on="1"/>
        <pt x="895" y="452" on="0"/>
        <pt x="1018" y="502" on="0"/>
        <pt x="1132" y="505" on="1"/>
        <pt x="1148" y="506" on="0"/>
        <pt x="1180" y="506" on="0"/>
        <pt x="1197" y="506" on="1"/>
        <pt x="1220" y="506" on="0"/>
        <pt x="1251" y="534" on="0"/>
        <pt x="1251" y="554" on="1"/>
        <pt x="1251" y="581" on="0"/>
        <pt x="1217" y="606" on="0"/>
        <pt x="1197" y="606" on="1"/>
        <pt x="1176" y="606" on="1"/>
        <pt x="1052" y="605" on="0"/>
        <pt x="809" y="594" on="0"/>
        <pt x="684" y="589" on="1"/>
        <pt x="544" y="584" on="0"/>
        <pt x="271" y="580" on="0"/>
        <pt x="142" y="578" on="1"/>
        <pt x="106" y="578" on="0"/>
        <pt x="81" y="544" on="0"/>
        <pt x="81" y="528" on="1"/>
        <pt x="81" y="514" on="0"/>
        <pt x="97" y="488" on="0"/>
        <pt x="114" y="481" on="1"/>
        <pt x="110" y="336" on="1"/>
        <pt x="87" y="331" on="0"/>
        <pt x="53" y="305" on="0"/>
        <pt x="53" y="281" on="1"/>
        <pt x="53" y="259" on="0"/>
        <pt x="82" y="233" on="0"/>
        <pt x="110" y="233" on="1"/>
        <pt x="111" y="208" on="0"/>
        <pt x="114" y="159" on="0"/>
        <pt x="117" y="135" on="1"/>
        <pt x="118" y="123" on="0"/>
        <pt x="118" y="90" on="0"/>
        <pt x="119" y="56" on="0"/>
        <pt x="125" y="24" on="0"/>
        <pt x="133" y="13" on="1"/>
        <pt x="152" y="-13" on="0"/>
        <pt x="179" y="-13" on="1"/>
        <pt x="198" y="-13" on="0"/>
        <pt x="225" y="12" on="0"/>
        <pt x="225" y="35" on="1"/>
        <pt x="225" y="44" on="0"/>
        <pt x="222" y="55" on="1"/>
        <pt x="217" y="102" on="0"/>
        <pt x="212" y="194" on="0"/>
        <pt x="212" y="241" on="1"/>
        <pt x="236" y="239" on="0"/>
        <pt x="285" y="233" on="0"/>
        <pt x="308" y="233" on="1"/>
        <pt x="334" y="233" on="0"/>
        <pt x="362" y="261" on="0"/>
        <pt x="362" y="282" on="1"/>
        <pt x="362" y="299" on="0"/>
        <pt x="338" y="328" on="0"/>
        <pt x="308" y="332" on="1"/>
        <pt x="284" y="335" on="0"/>
        <pt x="236" y="338" on="0"/>
        <pt x="212" y="340" on="1"/>
        <pt x="212" y="375" on="0"/>
        <pt x="214" y="443" on="0"/>
        <pt x="215" y="478" on="1"/>
        <pt x="275" y="479" on="0"/>
        <pt x="393" y="480" on="0"/>
        <pt x="453" y="482" on="1"/>
        <pt x="457" y="461" on="0"/>
        <pt x="460" y="415" on="0"/>
        <pt x="460" y="391" on="1"/>
        <pt x="460" y="374" on="0"/>
        <pt x="459" y="344" on="0"/>
        <pt x="458" y="330" on="1"/>
        <pt x="432" y="325" on="0"/>
        <pt x="411" y="296" on="0"/>
        <pt x="411" y="280" on="1"/>
        <pt x="411" y="265" on="0"/>
        <pt x="429" y="238" on="0"/>
        <pt x="449" y="231" on="1"/>
        <pt x="445" y="197" on="0"/>
        <pt x="440" y="121" on="0"/>
        <pt x="440" y="70" on="1"/>
        <pt x="440" y="41" on="0"/>
        <pt x="450" y="5" on="0"/>
        <pt x="466" y="-14" on="0"/>
        <pt x="486" y="-20" on="0"/>
        <pt x="496" y="-20" on="1"/>
        <pt x="515" y="-20" on="0"/>
        <pt x="542" y="7" on="0"/>
        <pt x="542" y="28" on="1"/>
        <pt x="542" y="36" on="0"/>
        <pt x="541" y="46" on="0"/>
        <pt x="541" y="51" on="1"/>
        <pt x="541" y="95" on="0"/>
        <pt x="547" y="184" on="0"/>
        <pt x="551" y="230" on="1"/>
        <pt x="587" y="231" on="0"/>
        <pt x="658" y="232" on="0"/>
        <pt x="694" y="232" on="1"/>
        <pt x="719" y="232" on="0"/>
        <pt x="748" y="262" on="0"/>
        <pt x="748" y="282" on="1"/>
        <pt x="748" y="303" on="0"/>
        <pt x="717" y="332" on="0"/>
        <pt x="694" y="332" on="1"/>
        <pt x="659" y="332" on="0"/>
        <pt x="592" y="331" on="0"/>
        <pt x="558" y="331" on="1"/>
        <pt x="559" y="347" on="0"/>
        <pt x="560" y="377" on="0"/>
        <pt x="560" y="394" on="1"/>
        <pt x="560" y="440" on="0"/>
        <pt x="554" y="484" on="1"/>
        <pt x="586" y="485" on="0"/>
        <pt x="651" y="487" on="0"/>
        <pt x="684" y="489" on="1"/>
        <pt x="821" y="495" on="1"/>
        <pt x="797" y="460" on="0"/>
        <pt x="797" y="413" on="1"/>
        <pt x="797" y="372" on="0"/>
        <pt x="828" y="313" on="0"/>
        <pt x="879" y="271" on="0"/>
        <pt x="944" y="242" on="0"/>
        <pt x="977" y="231" on="1"/>
        <pt x="987" y="227" on="0"/>
        <pt x="1031" y="215" on="0"/>
        <pt x="1075" y="197" on="0"/>
        <pt x="1108" y="174" on="0"/>
        <pt x="1108" y="160" on="1"/>
        <pt x="1108" y="142" on="0"/>
        <pt x="1075" y="109" on="0"/>
        <pt x="1026" y="85" on="0"/>
        <pt x="969" y="71" on="0"/>
        <pt x="945" y="71" on="1"/>
        <pt x="925" y="71" on="0"/>
        <pt x="897" y="81" on="0"/>
        <pt x="892" y="92" on="1"/>
        <pt x="883" y="109" on="0"/>
        <pt x="856" y="126" on="0"/>
        <pt x="842" y="126" on="1"/>
        <pt x="824" y="126" on="0"/>
        <pt x="796" y="99" on="0"/>
        <pt x="796" y="76" on="1"/>
        <pt x="796" y="59" on="0"/>
        <pt x="810" y="21" on="0"/>
        <pt x="825" y="7" on="1"/>
        <pt x="845" y="-12" on="0"/>
        <pt x="906" y="-29" on="0"/>
      </contour>
    </TTGlyph>
    <TTGlyph name="F_T_W" xMin="79" yMin="-88" xMax="1596" yMax="744">
      <contour>
        <pt x="1379" y="-88" on="1"/>
        <pt x="1398" y="-88" on="0"/>
        <pt x="1420" y="-68" on="0"/>
        <pt x="1427" y="-54" on="1"/>
        <pt x="1444" y="-21" on="0"/>
        <pt x="1473" y="57" on="0"/>
        <pt x="1499" y="139" on="0"/>
        <pt x="1521" y="220" on="0"/>
        <pt x="1532" y="255" on="1"/>
        <pt x="1555" y="334" on="0"/>
        <pt x="1596" y="484" on="0"/>
        <pt x="1596" y="562" on="1"/>
        <pt x="1596" y="573" on="0"/>
        <pt x="1593" y="605" on="0"/>
        <pt x="1587" y="641" on="0"/>
        <pt x="1579" y="676" on="0"/>
        <pt x="1574" y="691" on="1"/>
        <pt x="1576" y="714" on="0"/>
        <pt x="1547" y="744" on="0"/>
        <pt x="1524" y="744" on="1"/>
        <pt x="1498" y="744" on="0"/>
        <pt x="1470" y="715" on="0"/>
        <pt x="1470" y="697" on="1"/>
        <pt x="1470" y="682" on="0"/>
        <pt x="1477" y="671" on="1"/>
        <pt x="1487" y="642" on="0"/>
        <pt x="1496" y="592" on="0"/>
        <pt x="1496" y="566" on="1"/>
        <pt x="1496" y="537" on="0"/>
        <pt x="1488" y="481" on="0"/>
        <pt x="1482" y="454" on="1"/>
        <pt x="1473" y="409" on="0"/>
        <pt x="1448" y="323" on="0"/>
        <pt x="1435" y="279" on="1"/>
        <pt x="1421" y="232" on="0"/>
        <pt x="1393" y="137" on="0"/>
        <pt x="1377" y="89" on="1"/>
        <pt x="1353" y="164" on="0"/>
        <pt x="1317" y="323" on="0"/>
        <pt x="1294" y="395" on="1"/>
        <pt x="1277" y="428" on="0"/>
        <pt x="1248" y="428" on="1"/>
        <pt x="1231" y="428" on="0"/>
        <pt x="1213" y="416" on="1"/>
        <pt x="1206" y="411" on="0"/>
        <pt x="1191" y="388" on="0"/>
        <pt x="1178" y="361" on="0"/>
        <pt x="1169" y="337" on="0"/>
        <pt x="1167" y="333" on="1"/>
        <pt x="1125" y="245" on="1"/>
        <pt x="1109" y="304" on="0"/>
        <pt x="1072" y="426" on="0"/>
        <pt x="1061" y="488" on="1"/>
        <pt x="1097" y="488" on="1"/>
        <pt x="1128" y="488" on="0"/>
        <pt x="1156" y="518" on="0"/>
        <pt x="1156" y="538" on="1"/>
        <pt x="1156" y="558" on="0"/>
        <pt x="1126" y="588" on="0"/>
        <pt x="1100" y="588" on="1"/>
        <pt x="998" y="588" on="0"/>
        <pt x="761" y="584" on="0"/>
        <pt x="510" y="580" on="0"/>
        <pt x="254" y="575" on="0"/>
        <pt x="134" y="575" on="1"/>
        <pt x="118" y="575" on="0"/>
        <pt x="97" y="565" on="0"/>
        <pt x="84" y="550" on="0"/>
        <pt x="79" y="533" on="0"/>
        <pt x="79" y="525" on="1"/>
        <pt x="79" y="508" on="0"/>
        <pt x="103" y="475" on="0"/>
        <pt x="135" y="475" on="1"/>
        <pt x="164" y="475" on="1"/>
        <pt x="163" y="389" on="0"/>
        <pt x="159" y="220" on="0"/>
        <pt x="159" y="135" on="1"/>
        <pt x="159" y="105" on="0"/>
        <pt x="160" y="50" on="0"/>
        <pt x="161" y="31" on="1"/>
        <pt x="162" y="6" on="0"/>
        <pt x="188" y="-25" on="0"/>
        <pt x="212" y="-25" on="1"/>
        <pt x="234" y="-25" on="0"/>
        <pt x="260" y="5" on="0"/>
        <pt x="260" y="28" on="1"/>
        <pt x="260" y="57" on="0"/>
        <pt x="259" y="113" on="0"/>
        <pt x="259" y="142" on="1"/>
        <pt x="259" y="177" on="1"/>
        <pt x="310" y="179" on="0"/>
        <pt x="405" y="189" on="0"/>
        <pt x="446" y="198" on="1"/>
        <pt x="477" y="205" on="0"/>
        <pt x="497" y="234" on="0"/>
        <pt x="497" y="251" on="1"/>
        <pt x="497" y="269" on="0"/>
        <pt x="470" y="298" on="0"/>
        <pt x="447" y="298" on="1"/>
        <pt x="430" y="298" on="0"/>
        <pt x="343" y="280" on="0"/>
        <pt x="260" y="277" on="1"/>
        <pt x="262" y="327" on="0"/>
        <pt x="263" y="426" on="0"/>
        <pt x="264" y="476" on="1"/>
        <pt x="376" y="477" on="0"/>
        <pt x="577" y="481" on="0"/>
        <pt x="679" y="483" on="1"/>
        <pt x="678" y="478" on="0"/>
        <pt x="678" y="469" on="1"/>
        <pt x="686" y="420" on="0"/>
        <pt x="691" y="324" on="0"/>
        <pt x="691" y="275" on="1"/>
        <pt x="691" y="216" on="0"/>
        <pt x="687" y="100" on="0"/>
        <pt x="685" y="41" on="1"/>
        <pt x="685" y="12" on="0"/>
        <pt x="713" y="-17" on="0"/>
        <pt x="735" y="-17" on="1"/>
        <pt x="753" y="-17" on="0"/>
        <pt x="783" y="7" on="0"/>
        <pt x="785" y="33" on="1"/>
        <pt x="787" y="94" on="0"/>
        <pt x="791" y="215" on="0"/>
        <pt x="791" y="276" on="1"/>
        <pt x="791" y="327" on="0"/>
        <pt x="786" y="431" on="0"/>
        <pt x="776" y="484" on="1"/>
        <pt x="960" y="487" on="1"/>
        <pt x="971" y="416" on="0"/>
        <pt x="1013" y="278" on="0"/>
        <pt x="1031" y="210" on="1"/>
        <pt x="1035" y="195" on="0"/>
        <pt x="1043" y="158" on="0"/>
        <pt x="1052" y="124" on="0"/>
        <pt x="1063" y="94" on="0"/>
        <pt x="1070" y="87" on="1"/>
        <pt x="1079" y="78" on="0"/>
        <pt x="1098" y="70" on="0"/>
        <pt x="1113" y="70" on="1"/>
        <pt x="1123" y="70" on="0"/>
        <pt x="1144" y="77" on="0"/>
        <pt x="1152" y="88" on="1"/>
        <pt x="1175" y="115" on="0"/>
        <pt x="1217" y="195" on="0"/>
        <pt x="1236" y="237" on="1"/>
        <pt x="1247" y="198" on="0"/>
        <pt x="1268" y="119" on="0"/>
        <pt x="1280" y="80" on="1"/>
        <pt x="1291" y="44" on="0"/>
        <pt x="1313" y="-28" on="0"/>
        <pt x="1328" y="-54" on="1"/>
        <pt x="1338" y="-71" on="0"/>
        <pt x="1360" y="-88" on="0"/>
      </contour>
    </TTGlyph>
    <TTGlyph name="G" xMin="20" yMin="-37" xMax="699" yMax="749">
      <contour>
        <pt x="646" y="-37" on="1"/>
        <pt x="665" y="-37" on="0"/>
        <pt x="691" y="-22" on="0"/>
        <pt x="699" y="6" on="0"/>
        <pt x="687" y="37" on="0"/>
        <pt x="673" y="46" on="1"/>
        <pt x="634" y="72" on="0"/>
        <pt x="598" y="124" on="0"/>
        <pt x="586" y="199" on="0"/>
        <pt x="590" y="268" on="1"/>
        <pt x="593" y="325" on="0"/>
        <pt x="538" y="335" on="1"/>
        <pt x="505" y="341" on="0"/>
        <pt x="397" y="347" on="0"/>
        <pt x="347" y="346" on="1"/>
        <pt x="322" y="345" on="0"/>
        <pt x="292" y="318" on="0"/>
        <pt x="292" y="277" on="0"/>
        <pt x="319" y="253" on="0"/>
        <pt x="345" y="252" on="1"/>
        <pt x="433" y="250" on="0"/>
        <pt x="473" y="250" on="1"/>
        <pt x="442" y="172" on="0"/>
        <pt x="316" y="69" on="0"/>
        <pt x="246" y="69" on="1"/>
        <pt x="175" y="69" on="0"/>
        <pt x="143" y="242" on="0"/>
        <pt x="187" y="374" on="1"/>
        <pt x="228" y="497" on="0"/>
        <pt x="373" y="655" on="0"/>
        <pt x="448" y="655" on="1"/>
        <pt x="476" y="655" on="0"/>
        <pt x="535" y="633" on="0"/>
        <pt x="575" y="609" on="1"/>
        <pt x="597" y="596" on="0"/>
        <pt x="634" y="621" on="0"/>
        <pt x="637" y="670" on="0"/>
        <pt x="618" y="687" on="1"/>
        <pt x="584" y="717" on="0"/>
        <pt x="497" y="749" on="0"/>
        <pt x="451" y="749" on="1"/>
        <pt x="333" y="749" on="0"/>
        <pt x="136" y="554" on="0"/>
        <pt x="83" y="394" on="1"/>
        <pt x="20" y="203" on="0"/>
        <pt x="111" y="-25" on="0"/>
        <pt x="246" y="-25" on="1"/>
        <pt x="322" y="-25" on="0"/>
        <pt x="450" y="53" on="0"/>
        <pt x="501" y="128" on="1"/>
        <pt x="509" y="62" on="0"/>
        <pt x="596" y="-37" on="0"/>
      </contour>
    </TTGlyph>
    <TTGlyph name="Gamma" xMin="12" yMin="-11" xMax="518" yMax="743">
      <component glyphName="uni0413" x="19" y="0" flags="0x0"/>
    </TTGlyph>
    <TTGlyph name="Gbreve" xMin="20" yMin="-37" xMax="699" yMax="947">
      <component glyphName="G" x="0" y="0" flags="0x0"/>
      <component glyphName="uni0306.case" x="647" y="9" flags="0x4"/>
    </TTGlyph>
    <TTGlyph name="Gcircumflex" xMin="20" yMin="-37" xMax="699" yMax="964">
      <component glyphName="G" x="0" y="0" flags="0x0"/>
      <component glyphName="uni0302.case" x="813" y="40" flags="0x4"/>
    </TTGlyph>
    <TTGlyph name="Gdotaccent" xMin="20" yMin="-37" xMax="699" yMax="921">
      <component glyphName="G" x="0" y="0" flags="0x0"/>
      <component glyphName="uni0307.case" x="577" y="7" flags="0x4"/>
    </TTGlyph>
    <TTGlyph name="H" xMin="66" yMin="-35" xMax="535" yMax="737">
      <contour>
        <pt x="459" y="-35" on="1"/>
        <pt x="480" y="-35" on="0"/>
        <pt x="508" y="-9" on="0"/>
        <pt x="510" y="17" on="1"/>
        <pt x="519" y="185" on="0"/>
        <pt x="532" y="519" on="0"/>
        <pt x="534" y="687" on="1"/>
        <pt x="535" y="711" on="0"/>
        <pt x="504" y="737" on="0"/>
        <pt x="484" y="737" on="1"/>
        <pt x="462" y="737" on="0"/>
        <pt x="432" y="711" on="0"/>
        <pt x="431" y="686" on="1"/>
        <pt x="430" y="620" on="0"/>
        <pt x="429" y="489" on="0"/>
        <pt x="427" y="423" on="1"/>
        <pt x="364" y="422" on="0"/>
        <pt x="240" y="419" on="0"/>
        <pt x="177" y="416" on="1"/>
        <pt x="179" y="480" on="0"/>
        <pt x="180" y="605" on="0"/>
        <pt x="181" y="668" on="1"/>
        <pt x="181" y="697" on="0"/>
        <pt x="152" y="728" on="0"/>
        <pt x="129" y="728" on="1"/>
        <pt x="108" y="728" on="0"/>
        <pt x="79" y="699" on="0"/>
        <pt x="79" y="676" on="1"/>
        <pt x="79" y="513" on="0"/>
        <pt x="70" y="190" on="0"/>
        <pt x="67" y="27" on="1"/>
        <pt x="66" y="4" on="0"/>
        <pt x="96" y="-25" on="0"/>
        <pt x="117" y="-25" on="1"/>
        <pt x="138" y="-25" on="0"/>
        <pt x="164" y="3" on="0"/>
        <pt x="165" y="26" on="1"/>
        <pt x="168" y="100" on="0"/>
        <pt x="173" y="246" on="0"/>
        <pt x="175" y="320" on="1"/>
        <pt x="238" y="323" on="0"/>
        <pt x="300" y="325" on="1"/>
        <pt x="424" y="329" on="1"/>
        <pt x="421" y="176" on="0"/>
        <pt x="412" y="23" on="1"/>
        <pt x="410" y="-6" on="0"/>
        <pt x="439" y="-35" on="0"/>
      </contour>
    </TTGlyph>
    <TTGlyph name="H_T_H" xMin="65" yMin="-26" xMax="1585" yMax="609">
      <contour>
        <pt x="1518" y="-26" on="1"/>
        <pt x="1535" y="-26" on="0"/>
        <pt x="1565" y="-2" on="0"/>
        <pt x="1569" y="24" on="1"/>
        <pt x="1570" y="158" on="0"/>
        <pt x="1584" y="425" on="0"/>
        <pt x="1585" y="559" on="1"/>
        <pt x="1581" y="584" on="0"/>
        <pt x="1553" y="609" on="0"/>
        <pt x="1536" y="609" on="1"/>
        <pt x="1521" y="609" on="0"/>
        <pt x="1493" y="588" on="0"/>
        <pt x="1485" y="567" on="1"/>
        <pt x="1484" y="460" on="0"/>
        <pt x="1479" y="352" on="1"/>
        <pt x="1412" y="352" on="0"/>
        <pt x="1279" y="354" on="0"/>
        <pt x="1212" y="355" on="1"/>
        <pt x="1213" y="403" on="0"/>
        <pt x="1213" y="500" on="0"/>
        <pt x="1213" y="549" on="1"/>
        <pt x="1209" y="575" on="0"/>
        <pt x="1179" y="599" on="0"/>
        <pt x="1162" y="599" on="1"/>
        <pt x="1143" y="599" on="0"/>
        <pt x="1113" y="570" on="0"/>
        <pt x="1113" y="541" on="1"/>
        <pt x="1113" y="416" on="0"/>
        <pt x="1111" y="167" on="0"/>
        <pt x="1111" y="42" on="1"/>
        <pt x="1111" y="13" on="0"/>
        <pt x="1141" y="-16" on="0"/>
        <pt x="1160" y="-16" on="1"/>
        <pt x="1177" y="-16" on="0"/>
        <pt x="1207" y="8" on="0"/>
        <pt x="1211" y="34" on="1"/>
        <pt x="1211" y="255" on="1"/>
        <pt x="1277" y="254" on="0"/>
        <pt x="1409" y="253" on="0"/>
        <pt x="1475" y="253" on="1"/>
        <pt x="1473" y="197" on="0"/>
        <pt x="1469" y="87" on="0"/>
        <pt x="1469" y="32" on="1"/>
        <pt x="1469" y="3" on="0"/>
        <pt x="1499" y="-26" on="0"/>
      </contour>
      <contour>
        <pt x="114" y="-23" on="1"/>
        <pt x="131" y="-23" on="0"/>
        <pt x="161" y="1" on="0"/>
        <pt x="165" y="27" on="1"/>
        <pt x="165" y="78" on="0"/>
        <pt x="167" y="180" on="0"/>
        <pt x="169" y="231" on="1"/>
        <pt x="195" y="233" on="0"/>
        <pt x="247" y="245" on="0"/>
        <pt x="274" y="247" on="1"/>
        <pt x="287" y="248" on="0"/>
        <pt x="313" y="248" on="0"/>
        <pt x="326" y="248" on="1"/>
        <pt x="355" y="248" on="0"/>
        <pt x="412" y="247" on="0"/>
        <pt x="441" y="246" on="1"/>
        <pt x="441" y="42" on="1"/>
        <pt x="441" y="13" on="0"/>
        <pt x="471" y="-16" on="0"/>
        <pt x="490" y="-16" on="1"/>
        <pt x="507" y="-16" on="0"/>
        <pt x="537" y="8" on="0"/>
        <pt x="541" y="34" on="1"/>
        <pt x="541" y="530" on="1"/>
        <pt x="537" y="556" on="0"/>
        <pt x="507" y="580" on="0"/>
        <pt x="490" y="580" on="1"/>
        <pt x="471" y="580" on="0"/>
        <pt x="441" y="551" on="0"/>
        <pt x="441" y="522" on="1"/>
        <pt x="441" y="346" on="1"/>
        <pt x="413" y="346" on="0"/>
        <pt x="357" y="348" on="0"/>
        <pt x="329" y="348" on="1"/>
        <pt x="312" y="348" on="0"/>
        <pt x="279" y="348" on="0"/>
        <pt x="262" y="346" on="1"/>
        <pt x="239" y="344" on="0"/>
        <pt x="195" y="333" on="0"/>
        <pt x="172" y="331" on="1"/>
        <pt x="174" y="378" on="0"/>
        <pt x="175" y="470" on="0"/>
        <pt x="176" y="518" on="1"/>
        <pt x="172" y="543" on="0"/>
        <pt x="144" y="568" on="0"/>
        <pt x="127" y="568" on="1"/>
        <pt x="112" y="568" on="0"/>
        <pt x="84" y="547" on="0"/>
        <pt x="76" y="526" on="1"/>
        <pt x="75" y="402" on="0"/>
        <pt x="67" y="159" on="0"/>
        <pt x="65" y="35" on="1"/>
        <pt x="65" y="6" on="0"/>
        <pt x="95" y="-23" on="0"/>
      </contour>
      <contour>
        <pt x="811" y="-18" on="1"/>
        <pt x="828" y="-18" on="0"/>
        <pt x="858" y="6" on="0"/>
        <pt x="862" y="32" on="1"/>
        <pt x="863" y="143" on="0"/>
        <pt x="872" y="361" on="0"/>
        <pt x="873" y="472" on="1"/>
        <pt x="1005" y="474" on="1"/>
        <pt x="1032" y="476" on="0"/>
        <pt x="1059" y="507" on="0"/>
        <pt x="1059" y="524" on="1"/>
        <pt x="1059" y="541" on="0"/>
        <pt x="1032" y="571" on="0"/>
        <pt x="1005" y="574" on="1"/>
        <pt x="909" y="573" on="0"/>
        <pt x="720" y="568" on="0"/>
        <pt x="624" y="567" on="1"/>
        <pt x="601" y="561" on="0"/>
        <pt x="580" y="533" on="0"/>
        <pt x="580" y="517" on="1"/>
        <pt x="580" y="501" on="0"/>
        <pt x="601" y="472" on="0"/>
        <pt x="624" y="467" on="1"/>
        <pt x="661" y="467" on="0"/>
        <pt x="735" y="468" on="0"/>
        <pt x="773" y="469" on="1"/>
        <pt x="771" y="361" on="0"/>
        <pt x="764" y="148" on="0"/>
        <pt x="762" y="40" on="1"/>
        <pt x="762" y="11" on="0"/>
        <pt x="792" y="-18" on="0"/>
      </contour>
    </TTGlyph>
    <TTGlyph name="Hbar" xMin="4" yMin="-35" xMax="590" yMax="737">
      <contour>
        <pt x="462" y="-35" on="1"/>
        <pt x="483" y="-35" on="0"/>
        <pt x="513" y="-9" on="0"/>
        <pt x="513" y="17" on="1"/>
        <pt x="513" y="139" on="0"/>
        <pt x="526" y="392" on="0"/>
        <pt x="531" y="520" on="1"/>
        <pt x="536" y="520" on="1"/>
        <pt x="563" y="522" on="0"/>
        <pt x="590" y="553" on="0"/>
        <pt x="590" y="570" on="1"/>
        <pt x="590" y="587" on="0"/>
        <pt x="563" y="617" on="0"/>
        <pt x="536" y="620" on="1"/>
        <pt x="533" y="620" on="1"/>
        <pt x="534" y="637" on="0"/>
        <pt x="534" y="670" on="0"/>
        <pt x="534" y="687" on="1"/>
        <pt x="534" y="711" on="0"/>
        <pt x="504" y="737" on="0"/>
        <pt x="485" y="737" on="1"/>
        <pt x="465" y="737" on="0"/>
        <pt x="435" y="712" on="0"/>
        <pt x="434" y="691" on="1"/>
        <pt x="434" y="673" on="0"/>
        <pt x="434" y="637" on="0"/>
        <pt x="433" y="619" on="1"/>
        <pt x="179" y="615" on="1"/>
        <pt x="179" y="676" on="1"/>
        <pt x="179" y="699" on="0"/>
        <pt x="150" y="728" on="0"/>
        <pt x="129" y="728" on="1"/>
        <pt x="108" y="728" on="0"/>
        <pt x="79" y="699" on="0"/>
        <pt x="79" y="676" on="1"/>
        <pt x="79" y="615" on="1"/>
        <pt x="48" y="615" on="1"/>
        <pt x="25" y="609" on="0"/>
        <pt x="4" y="581" on="0"/>
        <pt x="4" y="565" on="1"/>
        <pt x="4" y="549" on="0"/>
        <pt x="25" y="520" on="0"/>
        <pt x="48" y="515" on="1"/>
        <pt x="77" y="515" on="1"/>
        <pt x="75" y="392" on="0"/>
        <pt x="67" y="151" on="0"/>
        <pt x="67" y="27" on="1"/>
        <pt x="67" y="4" on="0"/>
        <pt x="96" y="-25" on="0"/>
        <pt x="117" y="-25" on="1"/>
        <pt x="138" y="-25" on="0"/>
        <pt x="167" y="4" on="0"/>
        <pt x="167" y="27" on="1"/>
        <pt x="167" y="101" on="0"/>
        <pt x="170" y="245" on="0"/>
        <pt x="172" y="319" on="1"/>
        <pt x="235" y="320" on="0"/>
        <pt x="359" y="327" on="0"/>
        <pt x="422" y="328" on="1"/>
        <pt x="419" y="251" on="0"/>
        <pt x="413" y="99" on="0"/>
        <pt x="413" y="23" on="1"/>
        <pt x="413" y="-6" on="0"/>
        <pt x="442" y="-35" on="0"/>
      </contour>
      <contour>
        <pt x="175" y="419" on="1"/>
        <pt x="176" y="443" on="0"/>
        <pt x="177" y="491" on="0"/>
        <pt x="177" y="515" on="1"/>
        <pt x="430" y="519" on="1"/>
        <pt x="427" y="428" on="1"/>
        <pt x="364" y="427" on="0"/>
        <pt x="238" y="421" on="0"/>
      </contour>
    </TTGlyph>
    <TTGlyph name="Hcircumflex" xMin="66" yMin="-35" xMax="535" yMax="962">
      <component glyphName="H" x="0" y="0" flags="0x0"/>
      <component glyphName="uni0302.case" x="667" y="38" flags="0x4"/>
    </TTGlyph>
    <TTGlyph name="I" xMin="85" yMin="-17" xMax="210" yMax="722">
      <contour>
        <pt x="132" y="-17" on="1"/>
        <pt x="153" y="-17" on="0"/>
        <pt x="182" y="12" on="0"/>
        <pt x="183" y="41" on="1"/>
        <pt x="185" y="125" on="0"/>
        <pt x="192" y="280" on="0"/>
        <pt x="195" y="356" on="1"/>
        <pt x="202" y="509" on="1"/>
        <pt x="206" y="586" on="0"/>
        <pt x="209" y="667" on="1"/>
        <pt x="210" y="692" on="0"/>
        <pt x="180" y="722" on="0"/>
        <pt x="160" y="722" on="1"/>
        <pt x="136" y="722" on="0"/>
        <pt x="110" y="693" on="0"/>
        <pt x="109" y="673" on="1"/>
        <pt x="104" y="591" on="0"/>
        <pt x="96" y="435" on="0"/>
        <pt x="89" y="281" on="0"/>
        <pt x="85" y="124" on="0"/>
        <pt x="86" y="41" on="1"/>
        <pt x="86" y="12" on="0"/>
        <pt x="113" y="-17" on="0"/>
      </contour>
    </TTGlyph>
    <TTGlyph name="I.init" xMin="85" yMin="-17" xMax="210" yMax="722">
      <component glyphName="I" x="0" y="0" flags="0x0"/>
    </TTGlyph>
    <TTGlyph name="I.isol" xMin="42" yMin="-20" xMax="402" yMax="731">
      <contour>
        <pt x="94" y="-20" on="1"/>
        <pt x="144" y="-20" on="0"/>
        <pt x="275" y="-15" on="0"/>
        <pt x="338" y="-15" on="1"/>
        <pt x="373" y="-15" on="0"/>
        <pt x="402" y="15" on="0"/>
        <pt x="402" y="35" on="1"/>
        <pt x="402" y="56" on="0"/>
        <pt x="370" y="85" on="0"/>
        <pt x="344" y="85" on="1"/>
        <pt x="323" y="85" on="0"/>
        <pt x="279" y="85" on="0"/>
        <pt x="257" y="84" on="1"/>
        <pt x="257" y="157" on="0"/>
        <pt x="263" y="302" on="0"/>
        <pt x="263" y="376" on="1"/>
        <pt x="263" y="440" on="0"/>
        <pt x="262" y="567" on="0"/>
        <pt x="262" y="631" on="1"/>
        <pt x="323" y="631" on="1"/>
        <pt x="353" y="631" on="0"/>
        <pt x="381" y="663" on="0"/>
        <pt x="381" y="681" on="1"/>
        <pt x="381" y="701" on="0"/>
        <pt x="352" y="731" on="0"/>
        <pt x="322" y="731" on="1"/>
        <pt x="108" y="731" on="1"/>
        <pt x="82" y="731" on="0"/>
        <pt x="53" y="701" on="0"/>
        <pt x="53" y="681" on="1"/>
        <pt x="53" y="659" on="0"/>
        <pt x="86" y="631" on="0"/>
        <pt x="112" y="631" on="1"/>
        <pt x="162" y="631" on="1"/>
        <pt x="162" y="568" on="0"/>
        <pt x="164" y="445" on="0"/>
        <pt x="164" y="382" on="1"/>
        <pt x="164" y="306" on="0"/>
        <pt x="157" y="155" on="0"/>
        <pt x="157" y="80" on="1"/>
        <pt x="101" y="80" on="1"/>
        <pt x="84" y="80" on="0"/>
        <pt x="61" y="70" on="0"/>
        <pt x="47" y="55" on="0"/>
        <pt x="42" y="38" on="0"/>
        <pt x="42" y="30" on="1"/>
        <pt x="42" y="13" on="0"/>
        <pt x="69" y="-20" on="0"/>
      </contour>
    </TTGlyph>
    <TTGlyph name="IJ" xMin="85" yMin="-35" xMax="813" yMax="731">
      <component glyphName="I" x="0" y="0" flags="0x0"/>
      <component glyphName="J" x="297" y="0" flags="0x0"/>
    </TTGlyph>
    <TTGlyph name="Iacute" xMin="79" yMin="-17" xMax="369" yMax="924">
      <component glyphName="I" x="-6" y="0" flags="0x0"/>
      <component glyphName="acutecomb.case" x="512" y="-4" flags="0x4"/>
    </TTGlyph>
    <TTGlyph name="Ibreve" xMin="19" yMin="-17" xMax="330" yMax="945">
      <component glyphName="I" x="0" y="0" flags="0x0"/>
      <component glyphName="uni0306.case" x="365" y="7" flags="0x4"/>
    </TTGlyph>
    <TTGlyph name="Icircumflex" xMin="-36" yMin="-17" xMax="352" yMax="924">
      <component glyphName="I" x="0" y="0" flags="0x0"/>
      <component glyphName="uni0302.case" x="516" y="0" flags="0x0"/>
    </TTGlyph>
    <TTGlyph name="Idieresis" xMin="-12" yMin="-17" xMax="354" yMax="899">
      <component glyphName="I" x="0" y="0" flags="0x0"/>
      <component glyphName="uni0308.case" x="314" y="-53" flags="0x4"/>
    </TTGlyph>
    <TTGlyph name="Idotaccent" xMin="85" yMin="-17" xMax="222" yMax="914">
      <component glyphName="I" x="0" y="0" flags="0x0"/>
      <component glyphName="uni0307.case" x="262" y="0" flags="0x0"/>
    </TTGlyph>
    <TTGlyph name="Igrave" xMin="33" yMin="-17" xMax="218" yMax="940">
      <component glyphName="I" x="8" y="0" flags="0x0"/>
      <component glyphName="gravecomb.case" x="521" y="22" flags="0x4"/>
    </TTGlyph>
    <TTGlyph name="Imacron" xMin="-33" yMin="-17" xMax="358" yMax="869">
      <component glyphName="I" x="0" y="0" flags="0x0"/>
      <component glyphName="uni0304.case" x="413" y="-1" flags="0x4"/>
    </TTGlyph>
    <TTGlyph name="Iogonek" xMin="-29" yMin="-294" xMax="239" yMax="722">
      <contour>
        <pt x="103" y="-294" on="1"/>
        <pt x="132" y="-294" on="0"/>
        <pt x="189" y="-278" on="0"/>
        <pt x="211" y="-262" on="1"/>
        <pt x="226" y="-251" on="0"/>
        <pt x="239" y="-219" on="0"/>
        <pt x="231" y="-190" on="0"/>
        <pt x="204" y="-178" on="0"/>
        <pt x="185" y="-184" on="1"/>
        <pt x="162" y="-191" on="0"/>
        <pt x="131" y="-198" on="0"/>
        <pt x="119" y="-198" on="1"/>
        <pt x="100" y="-198" on="0"/>
        <pt x="79" y="-178" on="0"/>
        <pt x="80" y="-156" on="1"/>
        <pt x="82" y="-129" on="0"/>
        <pt x="116" y="-65" on="0"/>
        <pt x="173" y="5" on="1"/>
        <pt x="122" y="53" on="1"/>
        <pt x="90" y="28" on="0"/>
        <pt x="38" y="-24" on="0"/>
        <pt x="-1" y="-78" on="0"/>
        <pt x="-25" y="-135" on="0"/>
        <pt x="-27" y="-164" on="1"/>
        <pt x="-29" y="-193" on="0"/>
        <pt x="-14" y="-241" on="0"/>
        <pt x="20" y="-275" on="0"/>
        <pt x="72" y="-294" on="0"/>
      </contour>
      <contour>
        <pt x="132" y="-17" on="1"/>
        <pt x="153" y="-17" on="0"/>
        <pt x="182" y="12" on="0"/>
        <pt x="183" y="41" on="1"/>
        <pt x="185" y="125" on="0"/>
        <pt x="192" y="280" on="0"/>
        <pt x="195" y="356" on="1"/>
        <pt x="202" y="509" on="1"/>
        <pt x="206" y="586" on="0"/>
        <pt x="209" y="667" on="1"/>
        <pt x="210" y="692" on="0"/>
        <pt x="180" y="722" on="0"/>
        <pt x="160" y="722" on="1"/>
        <pt x="136" y="722" on="0"/>
        <pt x="110" y="693" on="0"/>
        <pt x="109" y="673" on="1"/>
        <pt x="104" y="591" on="0"/>
        <pt x="96" y="435" on="0"/>
        <pt x="89" y="281" on="0"/>
        <pt x="85" y="124" on="0"/>
        <pt x="86" y="41" on="1"/>
        <pt x="86" y="12" on="0"/>
        <pt x="113" y="-17" on="0"/>
      </contour>
    </TTGlyph>
    <TTGlyph name="Iota" xMin="85" yMin="-17" xMax="210" yMax="722">
      <component glyphName="I" x="0" y="0" flags="0x0"/>
    </TTGlyph>
    <TTGlyph name="Iotadieresis" xMin="-12" yMin="-17" xMax="354" yMax="899">
      <component glyphName="I" x="0" y="0" flags="0x0"/>
      <component glyphName="uni0308.case" x="314" y="-53" flags="0x4"/>
    </TTGlyph>
    <TTGlyph name="Iotatonos" xMin="30" yMin="-17" xMax="350" yMax="723">
      <component glyphName="I" x="140" y="0" flags="0x0"/>
      <component glyphName="tonos" x="3" y="5" flags="0x4"/>
    </TTGlyph>
    <TTGlyph name="Itilde" xMin="-60" yMin="-17" xMax="362" yMax="911">
      <component glyphName="I" x="0" y="0" flags="0x0"/>
      <component glyphName="tildecomb.case" x="516" y="0" flags="0x0"/>
    </TTGlyph>
    <TTGlyph name="J" xMin="36" yMin="-35" xMax="516" yMax="731">
      <contour>
        <pt x="275" y="-35" on="1"/>
        <pt x="373" y="-35" on="0"/>
        <pt x="489" y="94" on="0"/>
        <pt x="505" y="221" on="1"/>
        <pt x="516" y="311" on="0"/>
        <pt x="512" y="545" on="0"/>
        <pt x="498" y="663" on="1"/>
        <pt x="495" y="692" on="0"/>
        <pt x="462" y="721" on="0"/>
        <pt x="430" y="723" on="1"/>
        <pt x="311" y="731" on="0"/>
        <pt x="135" y="725" on="1"/>
        <pt x="108" y="724" on="0"/>
        <pt x="79" y="698" on="0"/>
        <pt x="79" y="676" on="1"/>
        <pt x="79" y="655" on="0"/>
        <pt x="109" y="630" on="0"/>
        <pt x="134" y="630" on="1"/>
        <pt x="401" y="631" on="1"/>
        <pt x="413" y="518" on="0"/>
        <pt x="416" y="306" on="0"/>
        <pt x="407" y="228" on="1"/>
        <pt x="397" y="144" on="0"/>
        <pt x="325" y="59" on="0"/>
        <pt x="266" y="59" on="1"/>
        <pt x="200" y="59" on="0"/>
        <pt x="127" y="148" on="0"/>
        <pt x="129" y="223" on="1"/>
        <pt x="130" y="248" on="0"/>
        <pt x="106" y="275" on="0"/>
        <pt x="85" y="275" on="1"/>
        <pt x="36" y="275" on="0"/>
        <pt x="36" y="196" on="1"/>
        <pt x="36" y="127" on="0"/>
        <pt x="94" y="22" on="0"/>
        <pt x="202" y="-35" on="0"/>
      </contour>
    </TTGlyph>
    <TTGlyph name="Jcircumflex" xMin="36" yMin="-35" xMax="516" yMax="975">
      <component glyphName="J" x="0" y="0" flags="0x0"/>
      <component glyphName="uni0302.case" x="673" y="51" flags="0x4"/>
    </TTGlyph>
    <TTGlyph name="K" xMin="36" yMin="-26" xMax="562" yMax="743">
      <contour>
        <pt x="513" y="-26" on="1"/>
        <pt x="533" y="-26" on="0"/>
        <pt x="562" y="3" on="0"/>
        <pt x="562" y="44" on="0"/>
        <pt x="545" y="61" on="1"/>
        <pt x="487" y="120" on="0"/>
        <pt x="383" y="273" on="0"/>
        <pt x="357" y="342" on="1"/>
        <pt x="451" y="495" on="0"/>
        <pt x="548" y="651" on="1"/>
        <pt x="560" y="671" on="0"/>
        <pt x="556" y="708" on="0"/>
        <pt x="528" y="730" on="0"/>
        <pt x="510" y="730" on="1"/>
        <pt x="494" y="730" on="0"/>
        <pt x="464" y="711" on="0"/>
        <pt x="454" y="694" on="1"/>
        <pt x="311" y="459" on="0"/>
        <pt x="130" y="149" on="1"/>
        <pt x="146" y="243" on="0"/>
        <pt x="159" y="393" on="1"/>
        <pt x="179" y="621" on="0"/>
        <pt x="182" y="687" on="1"/>
        <pt x="183" y="712" on="0"/>
        <pt x="154" y="743" on="0"/>
        <pt x="133" y="743" on="1"/>
        <pt x="112" y="743" on="0"/>
        <pt x="82" y="717" on="0"/>
        <pt x="81" y="697" on="1"/>
        <pt x="52" y="377" on="0"/>
        <pt x="36" y="86" on="0"/>
        <pt x="41" y="24" on="1"/>
        <pt x="45" y="-24" on="0"/>
        <pt x="91" y="-24" on="1"/>
        <pt x="108" y="-24" on="0"/>
        <pt x="134" y="-5" on="0"/>
        <pt x="142" y="12" on="1"/>
        <pt x="196" y="84" on="0"/>
        <pt x="299" y="249" on="1"/>
        <pt x="331" y="172" on="0"/>
        <pt x="438" y="19" on="0"/>
        <pt x="478" y="-13" on="1"/>
        <pt x="495" y="-26" on="0"/>
      </contour>
    </TTGlyph>
    <TTGlyph name="Kappa" xMin="36" yMin="-26" xMax="562" yMax="743">
      <component glyphName="K" x="0" y="0" flags="0x0"/>
    </TTGlyph>
    <TTGlyph name="L" xMin="64" yMin="-20" xMax="517" yMax="721">
      <contour>
        <pt x="212" y="-20" on="1"/>
        <pt x="235" y="-20" on="0"/>
        <pt x="296" y="-18" on="0"/>
        <pt x="368" y="-14" on="0"/>
        <pt x="438" y="-9" on="0"/>
        <pt x="463" y="-6" on="1"/>
        <pt x="488" y="-3" on="0"/>
        <pt x="517" y="22" on="0"/>
        <pt x="517" y="66" on="0"/>
        <pt x="488" y="91" on="0"/>
        <pt x="463" y="90" on="1"/>
        <pt x="446" y="89" on="0"/>
        <pt x="322" y="80" on="0"/>
        <pt x="236" y="76" on="0"/>
        <pt x="203" y="76" on="1"/>
        <pt x="178" y="76" on="0"/>
        <pt x="166" y="77" on="1"/>
        <pt x="168" y="124" on="0"/>
        <pt x="176" y="235" on="0"/>
        <pt x="197" y="479" on="0"/>
        <pt x="205" y="613" on="0"/>
        <pt x="206" y="671" on="1"/>
        <pt x="206" y="693" on="0"/>
        <pt x="178" y="721" on="0"/>
        <pt x="157" y="721" on="1"/>
        <pt x="136" y="721" on="0"/>
        <pt x="106" y="695" on="0"/>
        <pt x="106" y="673" on="1"/>
        <pt x="105" y="622" on="0"/>
        <pt x="96" y="499" on="0"/>
        <pt x="72" y="248" on="0"/>
        <pt x="64" y="128" on="0"/>
        <pt x="64" y="81" on="1"/>
        <pt x="64" y="32" on="0"/>
        <pt x="85" y="-6" on="0"/>
        <pt x="113" y="-12" on="1"/>
        <pt x="151" y="-20" on="0"/>
      </contour>
    </TTGlyph>
    <TTGlyph name="L_O_L" xMin="74" yMin="-20" xMax="1268" yMax="730">
      <contour>
        <pt x="487" y="-11" on="1"/>
        <pt x="516" y="-11" on="0"/>
        <pt x="544" y="18" on="0"/>
        <pt x="544" y="37" on="1"/>
        <pt x="544" y="58" on="0"/>
        <pt x="513" y="89" on="0"/>
        <pt x="485" y="89" on="1"/>
        <pt x="456" y="89" on="0"/>
        <pt x="382" y="87" on="0"/>
        <pt x="344" y="87" on="1"/>
        <pt x="301" y="87" on="0"/>
        <pt x="218" y="91" on="0"/>
        <pt x="180" y="97" on="1"/>
        <pt x="175" y="118" on="0"/>
        <pt x="172" y="161" on="0"/>
        <pt x="172" y="184" on="1"/>
        <pt x="172" y="227" on="0"/>
        <pt x="181" y="313" on="0"/>
        <pt x="184" y="354" on="1"/>
        <pt x="187" y="395" on="0"/>
        <pt x="197" y="496" on="0"/>
        <pt x="206" y="590" on="0"/>
        <pt x="212" y="665" on="0"/>
        <pt x="212" y="680" on="1"/>
        <pt x="212" y="704" on="0"/>
        <pt x="185" y="730" on="0"/>
        <pt x="165" y="730" on="1"/>
        <pt x="143" y="730" on="0"/>
        <pt x="115" y="700" on="0"/>
        <pt x="113" y="674" on="1"/>
        <pt x="105" y="593" on="0"/>
        <pt x="91" y="444" on="0"/>
        <pt x="84" y="362" on="1"/>
        <pt x="81" y="323" on="0"/>
        <pt x="77" y="266" on="0"/>
        <pt x="75" y="217" on="0"/>
        <pt x="74" y="170" on="0"/>
        <pt x="74" y="141" on="1"/>
        <pt x="74" y="126" on="0"/>
        <pt x="76" y="91" on="0"/>
        <pt x="82" y="58" on="0"/>
        <pt x="95" y="28" on="0"/>
        <pt x="106" y="18" on="1"/>
        <pt x="117" y="7" on="0"/>
        <pt x="152" y="-2" on="0"/>
        <pt x="191" y="-6" on="0"/>
        <pt x="227" y="-6" on="0"/>
        <pt x="240" y="-6" on="1"/>
        <pt x="303" y="-9" on="0"/>
        <pt x="429" y="-11" on="0"/>
      </contour>
      <contour>
        <pt x="493" y="155" on="1"/>
        <pt x="553" y="155" on="0"/>
        <pt x="654" y="210" on="0"/>
        <pt x="728" y="298" on="0"/>
        <pt x="770" y="410" on="0"/>
        <pt x="770" y="467" on="1"/>
        <pt x="770" y="494" on="0"/>
        <pt x="758" y="563" on="0"/>
        <pt x="731" y="624" on="0"/>
        <pt x="688" y="667" on="0"/>
        <pt x="658" y="667" on="1"/>
        <pt x="641" y="667" on="0"/>
        <pt x="633" y="663" on="1"/>
        <pt x="633" y="671" on="0"/>
        <pt x="628" y="679" on="1"/>
        <pt x="611" y="705" on="0"/>
        <pt x="561" y="723" on="0"/>
        <pt x="529" y="723" on="1"/>
        <pt x="497" y="723" on="0"/>
        <pt x="437" y="706" on="0"/>
        <pt x="415" y="693" on="1"/>
        <pt x="377" y="670" on="0"/>
        <pt x="321" y="605" on="0"/>
        <pt x="285" y="528" on="0"/>
        <pt x="268" y="442" on="0"/>
        <pt x="268" y="397" on="1"/>
        <pt x="268" y="338" on="0"/>
        <pt x="304" y="248" on="0"/>
        <pt x="366" y="186" on="0"/>
        <pt x="448" y="155" on="0"/>
      </contour>
      <contour>
        <pt x="493" y="255" on="1"/>
        <pt x="459" y="255" on="0"/>
        <pt x="412" y="277" on="0"/>
        <pt x="382" y="316" on="0"/>
        <pt x="369" y="369" on="0"/>
        <pt x="369" y="400" on="1"/>
        <pt x="369" y="426" on="0"/>
        <pt x="383" y="486" on="0"/>
        <pt x="407" y="543" on="0"/>
        <pt x="442" y="591" on="0"/>
        <pt x="463" y="605" on="1"/>
        <pt x="490" y="622" on="0"/>
        <pt x="524" y="622" on="1"/>
        <pt x="542" y="622" on="0"/>
        <pt x="571" y="607" on="0"/>
        <pt x="585" y="607" on="1"/>
        <pt x="590" y="607" on="0"/>
        <pt x="598" y="609" on="0"/>
        <pt x="603" y="611" on="1"/>
        <pt x="608" y="592" on="0"/>
        <pt x="627" y="578" on="1"/>
        <pt x="654" y="559" on="0"/>
        <pt x="670" y="489" on="0"/>
        <pt x="670" y="458" on="1"/>
        <pt x="670" y="424" on="0"/>
        <pt x="643" y="352" on="0"/>
        <pt x="596" y="293" on="0"/>
        <pt x="531" y="255" on="0"/>
      </contour>
      <contour>
        <pt x="963" y="-20" on="1"/>
        <pt x="990" y="-20" on="0"/>
        <pt x="1058" y="-16" on="0"/>
        <pt x="1127" y="-10" on="0"/>
        <pt x="1191" y="-6" on="0"/>
        <pt x="1214" y="-6" on="1"/>
        <pt x="1239" y="-6" on="0"/>
        <pt x="1268" y="23" on="0"/>
        <pt x="1268" y="44" on="1"/>
        <pt x="1268" y="65" on="0"/>
        <pt x="1239" y="94" on="0"/>
        <pt x="1214" y="94" on="1"/>
        <pt x="1189" y="94" on="0"/>
        <pt x="1126" y="90" on="0"/>
        <pt x="1057" y="84" on="0"/>
        <pt x="986" y="80" on="0"/>
        <pt x="954" y="80" on="1"/>
        <pt x="926" y="80" on="0"/>
        <pt x="917" y="81" on="1"/>
        <pt x="919" y="155" on="0"/>
        <pt x="932" y="303" on="0"/>
        <pt x="946" y="450" on="0"/>
        <pt x="957" y="597" on="0"/>
        <pt x="957" y="671" on="1"/>
        <pt x="957" y="696" on="0"/>
        <pt x="925" y="721" on="0"/>
        <pt x="908" y="721" on="1"/>
        <pt x="888" y="721" on="0"/>
        <pt x="857" y="696" on="0"/>
        <pt x="857" y="673" on="1"/>
        <pt x="857" y="598" on="0"/>
        <pt x="844" y="450" on="0"/>
        <pt x="828" y="303" on="0"/>
        <pt x="815" y="156" on="0"/>
        <pt x="815" y="81" on="1"/>
        <pt x="815" y="37" on="0"/>
        <pt x="833" y="-5" on="0"/>
        <pt x="864" y="-13" on="1"/>
        <pt x="889" y="-17" on="0"/>
        <pt x="938" y="-20" on="0"/>
      </contour>
    </TTGlyph>
    <TTGlyph name="Lacute" xMin="44" yMin="-20" xMax="497" yMax="928">
      <component glyphName="L" x="-20" y="0" flags="0x0"/>
      <component glyphName="acutecomb.case" x="493" y="0" flags="0x0"/>
    </TTGlyph>
    <TTGlyph name="Lambda" xMin="12" yMin="-20" xMax="585" yMax="737">
      <contour>
        <pt x="58" y="-20" on="1"/>
        <pt x="80" y="-20" on="0"/>
        <pt x="100" y="-1" on="1"/>
        <pt x="135" y="59" on="0"/>
        <pt x="169" y="184" on="0"/>
        <pt x="186" y="250" on="1"/>
        <pt x="207" y="330" on="0"/>
        <pt x="262" y="489" on="0"/>
        <pt x="291" y="565" on="1"/>
        <pt x="341" y="424" on="0"/>
        <pt x="436" y="143" on="0"/>
        <pt x="493" y="4" on="1"/>
        <pt x="503" y="-9" on="0"/>
        <pt x="526" y="-20" on="0"/>
        <pt x="538" y="-20" on="1"/>
        <pt x="557" y="-20" on="0"/>
        <pt x="585" y="8" on="0"/>
        <pt x="585" y="32" on="1"/>
        <pt x="585" y="38" on="0"/>
        <pt x="580" y="54" on="0"/>
        <pt x="577" y="61" on="1"/>
        <pt x="529" y="181" on="0"/>
        <pt x="449" y="420" on="0"/>
        <pt x="404" y="546" on="1"/>
        <pt x="396" y="569" on="0"/>
        <pt x="377" y="634" on="0"/>
        <pt x="353" y="694" on="0"/>
        <pt x="320" y="737" on="0"/>
        <pt x="297" y="737" on="1"/>
        <pt x="274" y="737" on="0"/>
        <pt x="253" y="711" on="1"/>
        <pt x="242" y="698" on="0"/>
        <pt x="214" y="638" on="0"/>
        <pt x="182" y="559" on="0"/>
        <pt x="149" y="468" on="0"/>
        <pt x="119" y="380" on="0"/>
        <pt x="96" y="301" on="0"/>
        <pt x="89" y="274" on="1"/>
        <pt x="75" y="217" on="0"/>
        <pt x="47" y="105" on="0"/>
        <pt x="17" y="54" on="1"/>
        <pt x="12" y="39" on="0"/>
        <pt x="12" y="29" on="1"/>
        <pt x="12" y="7" on="0"/>
        <pt x="39" y="-20" on="0"/>
      </contour>
    </TTGlyph>
    <TTGlyph name="Lcaron" xMin="44" yMin="-20" xMax="497" yMax="806">
      <component glyphName="L" x="-20" y="0" flags="0x0"/>
      <component glyphName="uni0313" x="544" y="-33" flags="0x4"/>
    </TTGlyph>
    <TTGlyph name="Ldot" xMin="64" yMin="-20" xMax="517" yMax="721">
      <component glyphName="L" x="0" y="0" flags="0x0"/>
      <component glyphName="uni0307" x="520" y="-292" flags="0x4"/>
    </TTGlyph>
    <TTGlyph name="Lslash" xMin="-71" yMin="-6" xMax="499" yMax="730">
      <contour>
        <pt x="105" y="-6" on="1"/>
        <pt x="137" y="-6" on="0"/>
        <pt x="200" y="8" on="0"/>
        <pt x="231" y="8" on="1"/>
        <pt x="285" y="8" on="0"/>
        <pt x="391" y="0" on="0"/>
        <pt x="445" y="-2" on="1"/>
        <pt x="472" y="0" on="0"/>
        <pt x="499" y="31" on="0"/>
        <pt x="499" y="48" on="1"/>
        <pt x="499" y="65" on="0"/>
        <pt x="472" y="95" on="0"/>
        <pt x="445" y="98" on="1"/>
        <pt x="393" y="100" on="0"/>
        <pt x="290" y="108" on="0"/>
        <pt x="238" y="108" on="1"/>
        <pt x="208" y="108" on="0"/>
        <pt x="161" y="102" on="0"/>
        <pt x="134" y="97" on="1"/>
        <pt x="134" y="131" on="0"/>
        <pt x="142" y="197" on="0"/>
        <pt x="145" y="231" on="1"/>
        <pt x="149" y="275" on="1"/>
        <pt x="171" y="288" on="0"/>
        <pt x="230" y="322" on="0"/>
        <pt x="283" y="359" on="0"/>
        <pt x="319" y="398" on="0"/>
        <pt x="319" y="416" on="1"/>
        <pt x="319" y="435" on="0"/>
        <pt x="292" y="461" on="0"/>
        <pt x="272" y="461" on="1"/>
        <pt x="260" y="461" on="0"/>
        <pt x="233" y="448" on="0"/>
        <pt x="205" y="429" on="0"/>
        <pt x="176" y="408" on="0"/>
        <pt x="163" y="400" on="1"/>
        <pt x="171" y="470" on="0"/>
        <pt x="183" y="609" on="0"/>
        <pt x="188" y="680" on="1"/>
        <pt x="184" y="705" on="0"/>
        <pt x="156" y="730" on="0"/>
        <pt x="139" y="730" on="1"/>
        <pt x="124" y="730" on="0"/>
        <pt x="96" y="709" on="0"/>
        <pt x="88" y="688" on="1"/>
        <pt x="83" y="599" on="0"/>
        <pt x="65" y="424" on="0"/>
        <pt x="55" y="336" on="1"/>
        <pt x="36" y="325" on="0"/>
        <pt x="-8" y="305" on="0"/>
        <pt x="-46" y="282" on="0"/>
        <pt x="-71" y="255" on="0"/>
        <pt x="-71" y="238" on="1"/>
        <pt x="-71" y="219" on="0"/>
        <pt x="-44" y="192" on="0"/>
        <pt x="-22" y="192" on="1"/>
        <pt x="-16" y="192" on="0"/>
        <pt x="-2" y="194" on="0"/>
        <pt x="6" y="198" on="1"/>
        <pt x="43" y="216" on="1"/>
        <pt x="39" y="182" on="0"/>
        <pt x="34" y="115" on="0"/>
        <pt x="34" y="80" on="1"/>
        <pt x="34" y="40" on="0"/>
        <pt x="61" y="-6" on="0"/>
      </contour>
    </TTGlyph>
    <TTGlyph name="M" xMin="22" yMin="-52" xMax="670" yMax="726">
      <contour>
        <pt x="74" y="-52" on="1"/>
        <pt x="93" y="-52" on="0"/>
        <pt x="118" y="-26" on="0"/>
        <pt x="122" y="-2" on="1"/>
        <pt x="141" y="122" on="0"/>
        <pt x="217" y="416" on="0"/>
        <pt x="227" y="457" on="1"/>
        <pt x="235" y="358" on="0"/>
        <pt x="261" y="221" on="0"/>
        <pt x="281" y="170" on="1"/>
        <pt x="294" y="136" on="0"/>
        <pt x="324" y="108" on="0"/>
        <pt x="345" y="108" on="1"/>
        <pt x="368" y="108" on="0"/>
        <pt x="397" y="136" on="0"/>
        <pt x="412" y="172" on="1"/>
        <pt x="444" y="233" on="0"/>
        <pt x="493" y="375" on="0"/>
        <pt x="514" y="468" on="1"/>
        <pt x="521" y="305" on="0"/>
        <pt x="546" y="88" on="0"/>
        <pt x="569" y="4" on="1"/>
        <pt x="575" y="-16" on="0"/>
        <pt x="602" y="-38" on="0"/>
        <pt x="618" y="-38" on="1"/>
        <pt x="643" y="-38" on="0"/>
        <pt x="670" y="1" on="0"/>
        <pt x="664" y="33" on="1"/>
        <pt x="641" y="148" on="0"/>
        <pt x="602" y="493" on="0"/>
        <pt x="594" y="668" on="1"/>
        <pt x="593" y="696" on="0"/>
        <pt x="566" y="726" on="0"/>
        <pt x="542" y="726" on="1"/>
        <pt x="500" y="726" on="0"/>
        <pt x="489" y="678" on="1"/>
        <pt x="446" y="491" on="0"/>
        <pt x="355" y="267" on="1"/>
        <pt x="324" y="395" on="0"/>
        <pt x="300" y="659" on="0"/>
        <pt x="299" y="668" on="1"/>
        <pt x="297" y="694" on="0"/>
        <pt x="271" y="724" on="0"/>
        <pt x="251" y="724" on="1"/>
        <pt x="210" y="724" on="0"/>
        <pt x="204" y="679" on="1"/>
        <pt x="193" y="644" on="0"/>
        <pt x="98" y="354" on="0"/>
        <pt x="41" y="119" on="0"/>
        <pt x="26" y="9" on="1"/>
        <pt x="22" y="-18" on="0"/>
        <pt x="51" y="-52" on="0"/>
      </contour>
    </TTGlyph>
    <TTGlyph name="Mu" xMin="22" yMin="-52" xMax="670" yMax="726">
      <component glyphName="M" x="0" y="0" flags="0x0"/>
    </TTGlyph>
    <TTGlyph name="N" xMin="76" yMin="-32" xMax="592" yMax="728">
      <contour>
        <pt x="513" y="-32" on="1"/>
        <pt x="559" y="-32" on="0"/>
        <pt x="568" y="25" on="1"/>
        <pt x="579" y="98" on="0"/>
        <pt x="592" y="310" on="0"/>
        <pt x="592" y="556" on="0"/>
        <pt x="586" y="668" on="1"/>
        <pt x="585" y="692" on="0"/>
        <pt x="558" y="720" on="0"/>
        <pt x="515" y="720" on="0"/>
        <pt x="485" y="691" on="0"/>
        <pt x="486" y="668" on="1"/>
        <pt x="489" y="552" on="0"/>
        <pt x="491" y="375" on="0"/>
        <pt x="490" y="207" on="0"/>
        <pt x="487" y="119" on="1"/>
        <pt x="399" y="247" on="0"/>
        <pt x="255" y="531" on="0"/>
        <pt x="200" y="685" on="1"/>
        <pt x="192" y="707" on="0"/>
        <pt x="167" y="728" on="0"/>
        <pt x="147" y="728" on="1"/>
        <pt x="123" y="728" on="0"/>
        <pt x="99" y="695" on="0"/>
        <pt x="97" y="660" on="1"/>
        <pt x="96" y="642" on="0"/>
        <pt x="76" y="220" on="0"/>
        <pt x="76" y="32" on="1"/>
        <pt x="76" y="5" on="0"/>
        <pt x="104" y="-26" on="0"/>
        <pt x="148" y="-26" on="0"/>
        <pt x="177" y="3" on="0"/>
        <pt x="178" y="28" on="1"/>
        <pt x="179" y="80" on="0"/>
        <pt x="180" y="194" on="0"/>
        <pt x="182" y="374" on="0"/>
        <pt x="183" y="448" on="0"/>
        <pt x="183" y="480" on="1"/>
        <pt x="238" y="342" on="0"/>
        <pt x="375" y="100" on="0"/>
        <pt x="454" y="1" on="1"/>
        <pt x="480" y="-32" on="0"/>
      </contour>
    </TTGlyph>
    <TTGlyph name="Nacute" xMin="76" yMin="-32" xMax="592" yMax="928">
      <component glyphName="N" x="0" y="0" flags="0x0"/>
      <component glyphName="acutecomb.case" x="679" y="0" flags="0x0"/>
    </TTGlyph>
    <TTGlyph name="Ncaron" xMin="76" yMin="-32" xMax="592" yMax="912">
      <component glyphName="N" x="0" y="0" flags="0x0"/>
      <component glyphName="uni030C.case" x="683" y="32" flags="0x4"/>
    </TTGlyph>
    <TTGlyph name="Ntilde" xMin="76" yMin="-32" xMax="592" yMax="921">
      <component glyphName="N" x="0" y="0" flags="0x0"/>
      <component glyphName="tildecomb.case" x="710" y="10" flags="0x4"/>
    </TTGlyph>
    <TTGlyph name="Nu" xMin="76" yMin="-32" xMax="592" yMax="728">
      <component glyphName="N" x="0" y="0" flags="0x0"/>
    </TTGlyph>
    <TTGlyph name="O" xMin="31" yMin="-7" xMax="700" yMax="715">
      <contour>
        <pt x="347" y="-7" on="1"/>
        <pt x="487" y="-7" on="0"/>
        <pt x="688" y="190" on="0"/>
        <pt x="696" y="333" on="1"/>
        <pt x="700" y="397" on="0"/>
        <pt x="662" y="521" on="0"/>
        <pt x="584" y="615" on="0"/>
        <pt x="532" y="637" on="1"/>
        <pt x="509" y="672" on="0"/>
        <pt x="409" y="715" on="0"/>
        <pt x="349" y="715" on="1"/>
        <pt x="222" y="715" on="0"/>
        <pt x="39" y="506" on="0"/>
        <pt x="31" y="190" on="0"/>
        <pt x="200" y="-7" on="0"/>
      </contour>
      <contour>
        <pt x="341" y="89" on="1"/>
        <pt x="250" y="89" on="0"/>
        <pt x="146" y="225" on="0"/>
        <pt x="144" y="461" on="0"/>
        <pt x="269" y="620" on="0"/>
        <pt x="361" y="620" on="1"/>
        <pt x="380" y="620" on="0"/>
        <pt x="415" y="610" on="0"/>
        <pt x="456" y="587" on="0"/>
        <pt x="476" y="584" on="1"/>
        <pt x="477" y="575" on="0"/>
        <pt x="491" y="555" on="0"/>
        <pt x="530" y="516" on="0"/>
        <pt x="562" y="474" on="0"/>
        <pt x="590" y="399" on="0"/>
        <pt x="587" y="339" on="1"/>
        <pt x="581" y="230" on="0"/>
        <pt x="443" y="89" on="0"/>
      </contour>
    </TTGlyph>
    <TTGlyph name="OE" xMin="66" yMin="-31" xMax="897" yMax="779">
      <contour>
        <pt x="362" y="-31" on="1"/>
        <pt x="397" y="-31" on="0"/>
        <pt x="484" y="-12" on="0"/>
        <pt x="521" y="9" on="1"/>
        <pt x="552" y="6" on="0"/>
        <pt x="584" y="6" on="1"/>
        <pt x="649" y="6" on="0"/>
        <pt x="779" y="22" on="0"/>
        <pt x="843" y="24" on="1"/>
        <pt x="870" y="26" on="0"/>
        <pt x="897" y="57" on="0"/>
        <pt x="897" y="74" on="1"/>
        <pt x="897" y="91" on="0"/>
        <pt x="870" y="121" on="0"/>
        <pt x="843" y="124" on="1"/>
        <pt x="775" y="121" on="0"/>
        <pt x="642" y="109" on="0"/>
        <pt x="574" y="109" on="1"/>
        <pt x="576" y="157" on="0"/>
        <pt x="581" y="243" on="0"/>
        <pt x="581" y="285" on="1"/>
        <pt x="581" y="296" on="0"/>
        <pt x="581" y="319" on="0"/>
        <pt x="580" y="330" on="1"/>
        <pt x="613" y="329" on="0"/>
        <pt x="680" y="326" on="0"/>
        <pt x="713" y="326" on="1"/>
        <pt x="739" y="326" on="0"/>
        <pt x="767" y="353" on="0"/>
        <pt x="767" y="372" on="1"/>
        <pt x="767" y="392" on="0"/>
        <pt x="743" y="415" on="0"/>
        <pt x="704" y="427" on="0"/>
        <pt x="655" y="430" on="0"/>
        <pt x="631" y="430" on="1"/>
        <pt x="576" y="430" on="1"/>
        <pt x="573" y="491" on="0"/>
        <pt x="568" y="612" on="0"/>
        <pt x="567" y="674" on="1"/>
        <pt x="591" y="677" on="0"/>
        <pt x="616" y="677" on="1"/>
        <pt x="671" y="677" on="0"/>
        <pt x="782" y="655" on="0"/>
        <pt x="839" y="652" on="1"/>
        <pt x="866" y="654" on="0"/>
        <pt x="893" y="685" on="0"/>
        <pt x="893" y="702" on="1"/>
        <pt x="893" y="719" on="0"/>
        <pt x="866" y="749" on="0"/>
        <pt x="839" y="752" on="1"/>
        <pt x="807" y="753" on="0"/>
        <pt x="748" y="761" on="0"/>
        <pt x="690" y="769" on="0"/>
        <pt x="633" y="776" on="0"/>
        <pt x="604" y="776" on="1"/>
        <pt x="580" y="776" on="0"/>
        <pt x="529" y="770" on="0"/>
        <pt x="503" y="762" on="1"/>
        <pt x="480" y="771" on="0"/>
        <pt x="429" y="779" on="0"/>
        <pt x="403" y="779" on="1"/>
        <pt x="344" y="779" on="0"/>
        <pt x="249" y="742" on="0"/>
        <pt x="174" y="679" on="0"/>
        <pt x="119" y="595" on="0"/>
        <pt x="83" y="503" on="0"/>
        <pt x="66" y="408" on="0"/>
        <pt x="66" y="364" on="1"/>
        <pt x="66" y="275" on="0"/>
        <pt x="108" y="129" on="0"/>
        <pt x="186" y="25" on="0"/>
        <pt x="295" y="-31" on="0"/>
      </contour>
      <contour>
        <pt x="362" y="66" on="1"/>
        <pt x="305" y="66" on="0"/>
        <pt x="229" y="129" on="0"/>
        <pt x="183" y="220" on="0"/>
        <pt x="164" y="321" on="0"/>
        <pt x="164" y="359" on="1"/>
        <pt x="164" y="408" on="0"/>
        <pt x="185" y="506" on="0"/>
        <pt x="230" y="591" on="0"/>
        <pt x="299" y="656" on="0"/>
        <pt x="347" y="671" on="1"/>
        <pt x="361" y="676" on="0"/>
        <pt x="383" y="679" on="0"/>
        <pt x="393" y="679" on="1"/>
        <pt x="406" y="679" on="0"/>
        <pt x="444" y="675" on="0"/>
        <pt x="455" y="671" on="1"/>
        <pt x="467" y="667" on="1"/>
        <pt x="469" y="558" on="0"/>
        <pt x="482" y="343" on="0"/>
        <pt x="482" y="234" on="1"/>
        <pt x="482" y="201" on="0"/>
        <pt x="475" y="132" on="0"/>
        <pt x="472" y="96" on="1"/>
        <pt x="462" y="93" on="1"/>
        <pt x="446" y="88" on="0"/>
        <pt x="421" y="78" on="0"/>
        <pt x="398" y="71" on="0"/>
        <pt x="375" y="66" on="0"/>
      </contour>
    </TTGlyph>
    <TTGlyph name="Oacute" xMin="31" yMin="-7" xMax="700" yMax="943">
      <component glyphName="O" x="0" y="0" flags="0x0"/>
      <component glyphName="acutecomb.case" x="725" y="15" flags="0x4"/>
    </TTGlyph>
    <TTGlyph name="Obreve" xMin="31" yMin="-7" xMax="700" yMax="927">
      <component glyphName="O" x="0" y="0" flags="0x0"/>
      <component glyphName="uni0306.case" x="586" y="-11" flags="0x4"/>
    </TTGlyph>
    <TTGlyph name="Ocircumflex" xMin="31" yMin="-7" xMax="700" yMax="944">
      <component glyphName="O" x="0" y="0" flags="0x0"/>
      <component glyphName="uni0302.case" x="730" y="20" flags="0x4"/>
    </TTGlyph>
    <TTGlyph name="Odieresis" xMin="31" yMin="-7" xMax="700" yMax="915">
      <component glyphName="O" x="0" y="0" flags="0x0"/>
      <component glyphName="uni0308.case" x="506" y="-37" flags="0x4"/>
    </TTGlyph>
    <TTGlyph name="Odieresis_grave" xMin="31" yMin="-7" xMax="700" yMax="1103">
      <component glyphName="gravecomb.case" x="679" y="185" flags="0x4"/>
      <component glyphName="Odieresis" x="0" y="0" flags="0x0"/>
    </TTGlyph>
    <TTGlyph name="Ograve" xMin="31" yMin="-7" xMax="700" yMax="925">
      <component glyphName="O" x="0" y="0" flags="0x0"/>
      <component glyphName="gravecomb.case" x="727" y="7" flags="0x4"/>
    </TTGlyph>
    <TTGlyph name="Ohungarumlaut" xMin="31" yMin="-7" xMax="700" yMax="991">
      <component glyphName="O" x="0" y="0" flags="0x0"/>
      <component glyphName="uni030B.case" x="692" y="-8" flags="0x4"/>
    </TTGlyph>
    <TTGlyph name="Omacron" xMin="31" yMin="-7" xMax="700" yMax="865">
      <component glyphName="O" x="0" y="0" flags="0x0"/>
      <component glyphName="uni0304.case" x="626" y="-5" flags="0x4"/>
    </TTGlyph>
    <TTGlyph name="Omegatonos" xMin="-129" yMin="-3" xMax="701" yMax="738">
      <component glyphName="uni03A9" x="0" y="0" flags="0x0"/>
      <component glyphName="tonos" x="-156" y="5" flags="0x4"/>
    </TTGlyph>
    <TTGlyph name="Omicron" xMin="31" yMin="-7" xMax="700" yMax="715">
      <component glyphName="O" x="0" y="0" flags="0x0"/>
    </TTGlyph>
    <TTGlyph name="Omicrontonos" xMin="31" yMin="-7" xMax="861" yMax="723">
      <component glyphName="O" x="161" y="0" flags="0x0"/>
      <component glyphName="tonos" x="4" y="5" flags="0x4"/>
    </TTGlyph>
    <TTGlyph name="Oslash" xMin="35" yMin="-74" xMax="699" yMax="717">
      <contour>
        <pt x="102" y="-74" on="1"/>
        <pt x="113" y="-74" on="0"/>
        <pt x="136" y="-64" on="0"/>
        <pt x="145" y="-51" on="1"/>
        <pt x="150" y="-44" on="0"/>
        <pt x="159" y="-30" on="0"/>
        <pt x="161" y="-28" on="1"/>
        <pt x="169" y="-18" on="0"/>
        <pt x="182" y="-6" on="0"/>
        <pt x="192" y="4" on="1"/>
        <pt x="201" y="13" on="1"/>
        <pt x="208" y="7" on="0"/>
        <pt x="234" y="-1" on="0"/>
        <pt x="264" y="-5" on="0"/>
        <pt x="294" y="-7" on="0"/>
        <pt x="306" y="-7" on="1"/>
        <pt x="385" y="-7" on="0"/>
        <pt x="528" y="42" on="0"/>
        <pt x="634" y="134" on="0"/>
        <pt x="697" y="266" on="0"/>
        <pt x="697" y="349" on="1"/>
        <pt x="697" y="408" on="0"/>
        <pt x="657" y="524" on="0"/>
        <pt x="625" y="566" on="1"/>
        <pt x="622" y="569" on="1"/>
        <pt x="690" y="635" on="1"/>
        <pt x="699" y="651" on="0"/>
        <pt x="699" y="666" on="1"/>
        <pt x="699" y="687" on="0"/>
        <pt x="671" y="714" on="0"/>
        <pt x="651" y="714" on="1"/>
        <pt x="636" y="714" on="0"/>
        <pt x="617" y="703" on="1"/>
        <pt x="546" y="634" on="1"/>
        <pt x="538" y="641" on="1"/>
        <pt x="529" y="644" on="1"/>
        <pt x="522" y="669" on="0"/>
        <pt x="493" y="682" on="1"/>
        <pt x="490" y="683" on="0"/>
        <pt x="479" y="687" on="0"/>
        <pt x="466" y="690" on="0"/>
        <pt x="455" y="694" on="0"/>
        <pt x="453" y="695" on="1"/>
        <pt x="436" y="706" on="0"/>
        <pt x="398" y="717" on="0"/>
        <pt x="374" y="717" on="1"/>
        <pt x="302" y="717" on="0"/>
        <pt x="178" y="655" on="0"/>
        <pt x="87" y="553" on="0"/>
        <pt x="35" y="421" on="0"/>
        <pt x="35" y="351" on="1"/>
        <pt x="35" y="280" on="0"/>
        <pt x="79" y="134" on="0"/>
        <pt x="124" y="78" on="1"/>
        <pt x="114" y="67" on="0"/>
        <pt x="90" y="42" on="0"/>
        <pt x="69" y="15" on="0"/>
        <pt x="55" y="-11" on="0"/>
        <pt x="55" y="-23" on="1"/>
        <pt x="55" y="-46" on="0"/>
        <pt x="83" y="-74" on="0"/>
      </contour>
      <contour>
        <pt x="183" y="172" on="1"/>
        <pt x="168" y="201" on="0"/>
        <pt x="157" y="236" on="1"/>
        <pt x="148" y="264" on="0"/>
        <pt x="138" y="321" on="0"/>
        <pt x="138" y="350" on="1"/>
        <pt x="138" y="391" on="0"/>
        <pt x="160" y="472" on="0"/>
        <pt x="206" y="542" on="0"/>
        <pt x="276" y="595" on="0"/>
        <pt x="325" y="608" on="1"/>
        <pt x="341" y="612" on="0"/>
        <pt x="382" y="614" on="0"/>
        <pt x="391" y="614" on="1"/>
        <pt x="416" y="599" on="0"/>
        <pt x="441" y="594" on="1"/>
        <pt x="461" y="588" on="1"/>
        <pt x="466" y="583" on="0"/>
        <pt x="470" y="570" on="0"/>
        <pt x="475" y="563" on="1"/>
        <pt x="428" y="515" on="0"/>
        <pt x="340" y="417" on="0"/>
        <pt x="301" y="363" on="1"/>
        <pt x="268" y="317" on="0"/>
        <pt x="212" y="220" on="0"/>
      </contour>
      <contour>
        <pt x="306" y="92" on="1"/>
        <pt x="293" y="92" on="0"/>
        <pt x="266" y="94" on="0"/>
        <pt x="256" y="98" on="1"/>
        <pt x="295" y="164" on="0"/>
        <pt x="370" y="293" on="0"/>
        <pt x="418" y="353" on="1"/>
        <pt x="448" y="391" on="0"/>
        <pt x="514" y="462" on="0"/>
        <pt x="549" y="497" on="1"/>
        <pt x="572" y="468" on="0"/>
        <pt x="594" y="396" on="0"/>
        <pt x="594" y="358" on="1"/>
        <pt x="594" y="338" on="0"/>
        <pt x="589" y="301" on="0"/>
        <pt x="584" y="284" on="1"/>
        <pt x="570" y="236" on="0"/>
        <pt x="526" y="168" on="0"/>
        <pt x="464" y="124" on="0"/>
        <pt x="386" y="100" on="0"/>
        <pt x="339" y="94" on="1"/>
        <pt x="334" y="93" on="0"/>
        <pt x="317" y="92" on="0"/>
      </contour>
    </TTGlyph>
    <TTGlyph name="Oslashacute" xMin="35" yMin="-74" xMax="699" yMax="928">
      <component glyphName="Oslash" x="0" y="0" flags="0x0"/>
      <component glyphName="acutecomb.case" x="730" y="0" flags="0x0"/>
    </TTGlyph>
    <TTGlyph name="Otilde" xMin="31" yMin="-7" xMax="700" yMax="916">
      <component glyphName="O" x="0" y="0" flags="0x0"/>
      <component glyphName="tildecomb.case" x="753" y="5" flags="0x4"/>
    </TTGlyph>
    <TTGlyph name="P" xMin="46" yMin="-27" xMax="577" yMax="736">
      <contour>
        <pt x="147" y="21" on="1"/>
        <pt x="155" y="98" on="0"/>
        <pt x="168" y="234" on="0"/>
        <pt x="173" y="297" on="1"/>
        <pt x="199" y="295" on="0"/>
        <pt x="222" y="295" on="1"/>
        <pt x="324" y="295" on="0"/>
        <pt x="477" y="344" on="0"/>
        <pt x="565" y="441" on="0"/>
        <pt x="571" y="512" on="1"/>
        <pt x="577" y="579" on="0"/>
        <pt x="528" y="679" on="0"/>
        <pt x="420" y="736" on="0"/>
        <pt x="348" y="736" on="1"/>
        <pt x="263" y="736" on="0"/>
        <pt x="189" y="706" on="1"/>
        <pt x="176" y="733" on="0"/>
        <pt x="143" y="733" on="1"/>
        <pt x="124" y="733" on="0"/>
        <pt x="95" y="711" on="0"/>
        <pt x="94" y="692" on="1"/>
        <pt x="87" y="560" on="0"/>
        <pt x="66" y="254" on="0"/>
        <pt x="48" y="31" on="1"/>
        <pt x="46" y="5" on="0"/>
        <pt x="72" y="-27" on="0"/>
        <pt x="115" y="-27" on="0"/>
        <pt x="145" y="-2" on="0"/>
      </contour>
      <contour>
        <pt x="224" y="377" on="1"/>
        <pt x="196" y="377" on="0"/>
        <pt x="178" y="379" on="1"/>
        <pt x="182" y="432" on="0"/>
        <pt x="188" y="551" on="0"/>
        <pt x="191" y="620" on="1"/>
        <pt x="256" y="641" on="0"/>
        <pt x="317" y="641" on="1"/>
        <pt x="395" y="641" on="0"/>
        <pt x="469" y="581" on="0"/>
        <pt x="464" y="520" on="1"/>
        <pt x="458" y="453" on="0"/>
        <pt x="335" y="377" on="0"/>
      </contour>
    </TTGlyph>
    <TTGlyph name="Phi" xMin="19" yMin="-50" xMax="636" yMax="755">
      <component glyphName="uni0424" x="0" y="0" flags="0x0"/>
    </TTGlyph>
    <TTGlyph name="Pi" xMin="51" yMin="-29" xMax="537" yMax="729">
      <component glyphName="uni041F" x="0" y="0" flags="0x0"/>
    </TTGlyph>
    <TTGlyph name="Psi" xMin="-12" yMin="-27" xMax="635" yMax="718">
      <contour>
        <pt x="329" y="-27" on="1"/>
        <pt x="346" y="-27" on="0"/>
        <pt x="380" y="0" on="0"/>
        <pt x="380" y="30" on="1"/>
        <pt x="380" y="90" on="0"/>
        <pt x="382" y="211" on="0"/>
        <pt x="384" y="272" on="1"/>
        <pt x="442" y="288" on="0"/>
        <pt x="512" y="349" on="0"/>
        <pt x="560" y="434" on="0"/>
        <pt x="598" y="541" on="0"/>
        <pt x="623" y="604" on="1"/>
        <pt x="630" y="620" on="0"/>
        <pt x="635" y="633" on="0"/>
        <pt x="635" y="644" on="1"/>
        <pt x="635" y="663" on="0"/>
        <pt x="609" y="690" on="0"/>
        <pt x="589" y="690" on="1"/>
        <pt x="564" y="690" on="0"/>
        <pt x="541" y="666" on="0"/>
        <pt x="531" y="643" on="1"/>
        <pt x="519" y="617" on="0"/>
        <pt x="505" y="577" on="0"/>
        <pt x="493" y="541" on="0"/>
        <pt x="479" y="503" on="0"/>
        <pt x="468" y="478" on="1"/>
        <pt x="453" y="443" on="0"/>
        <pt x="413" y="392" on="0"/>
        <pt x="387" y="377" on="1"/>
        <pt x="389" y="449" on="0"/>
        <pt x="392" y="590" on="0"/>
        <pt x="392" y="659" on="1"/>
        <pt x="392" y="691" on="0"/>
        <pt x="360" y="718" on="0"/>
        <pt x="343" y="718" on="1"/>
        <pt x="335" y="718" on="0"/>
        <pt x="318" y="713" on="0"/>
        <pt x="302" y="700" on="0"/>
        <pt x="292" y="679" on="0"/>
        <pt x="292" y="663" on="1"/>
        <pt x="292" y="592" on="0"/>
        <pt x="289" y="445" on="0"/>
        <pt x="287" y="370" on="1"/>
        <pt x="280" y="372" on="0"/>
        <pt x="267" y="379" on="0"/>
        <pt x="260" y="383" on="1"/>
        <pt x="240" y="394" on="0"/>
        <pt x="216" y="441" on="0"/>
        <pt x="200" y="497" on="0"/>
        <pt x="190" y="552" on="0"/>
        <pt x="186" y="571" on="1"/>
        <pt x="171" y="636" on="0"/>
        <pt x="89" y="705" on="0"/>
        <pt x="40" y="705" on="1"/>
        <pt x="16" y="705" on="0"/>
        <pt x="-12" y="676" on="0"/>
        <pt x="-12" y="657" on="1"/>
        <pt x="-12" y="645" on="0"/>
        <pt x="1" y="620" on="0"/>
        <pt x="17" y="613" on="1"/>
        <pt x="27" y="608" on="0"/>
        <pt x="49" y="605" on="0"/>
        <pt x="59" y="600" on="1"/>
        <pt x="71" y="594" on="0"/>
        <pt x="86" y="565" on="0"/>
        <pt x="95" y="531" on="0"/>
        <pt x="100" y="497" on="0"/>
        <pt x="103" y="487" on="1"/>
        <pt x="112" y="451" on="0"/>
        <pt x="138" y="377" on="0"/>
        <pt x="180" y="315" on="0"/>
        <pt x="241" y="272" on="0"/>
        <pt x="284" y="269" on="1"/>
        <pt x="282" y="211" on="0"/>
        <pt x="280" y="93" on="0"/>
        <pt x="280" y="31" on="1"/>
        <pt x="280" y="2" on="0"/>
        <pt x="310" y="-27" on="0"/>
      </contour>
    </TTGlyph>
    <TTGlyph name="Q" xMin="12" yMin="-43" xMax="628" yMax="733">
      <contour>
        <pt x="569" y="-43" on="1"/>
        <pt x="595" y="-43" on="0"/>
        <pt x="623" y="-6" on="0"/>
        <pt x="608" y="38" on="0"/>
        <pt x="582" y="49" on="1"/>
        <pt x="504" y="81" on="0"/>
        <pt x="463" y="111" on="1"/>
        <pt x="557" y="198" on="0"/>
        <pt x="589" y="343" on="1"/>
        <pt x="628" y="521" on="0"/>
        <pt x="518" y="733" on="0"/>
        <pt x="384" y="733" on="1"/>
        <pt x="264" y="733" on="0"/>
        <pt x="75" y="539" on="0"/>
        <pt x="45" y="386" on="1"/>
        <pt x="12" y="219" on="0"/>
        <pt x="129" y="23" on="0"/>
        <pt x="255" y="23" on="1"/>
        <pt x="314" y="23" on="0"/>
        <pt x="377" y="52" on="1"/>
        <pt x="413" y="21" on="0"/>
        <pt x="502" y="-27" on="0"/>
        <pt x="548" y="-40" on="1"/>
        <pt x="559" y="-43" on="0"/>
      </contour>
      <contour>
        <pt x="258" y="120" on="1"/>
        <pt x="179" y="120" on="0"/>
        <pt x="124" y="247" on="0"/>
        <pt x="149" y="371" on="1"/>
        <pt x="173" y="490" on="0"/>
        <pt x="301" y="637" on="0"/>
        <pt x="380" y="637" on="1"/>
        <pt x="456" y="637" on="0"/>
        <pt x="512" y="494" on="0"/>
        <pt x="488" y="369" on="1"/>
        <pt x="463" y="241" on="0"/>
        <pt x="395" y="176" on="1"/>
        <pt x="372" y="206" on="0"/>
        <pt x="358" y="234" on="1"/>
        <pt x="342" y="265" on="0"/>
        <pt x="293" y="276" on="0"/>
        <pt x="266" y="236" on="0"/>
        <pt x="275" y="204" on="1"/>
        <pt x="285" y="169" on="0"/>
        <pt x="310" y="127" on="1"/>
        <pt x="286" y="120" on="0"/>
      </contour>
    </TTGlyph>
    <TTGlyph name="R" xMin="43" yMin="-27" xMax="603" yMax="726">
      <contour>
        <pt x="555" y="-27" on="1"/>
        <pt x="569" y="-27" on="0"/>
        <pt x="591" y="-13" on="0"/>
        <pt x="603" y="11" on="0"/>
        <pt x="599" y="40" on="0"/>
        <pt x="589" y="54" on="1"/>
        <pt x="564" y="89" on="0"/>
        <pt x="489" y="171" on="0"/>
        <pt x="392" y="262" on="0"/>
        <pt x="337" y="307" on="1"/>
        <pt x="452" y="336" on="0"/>
        <pt x="577" y="443" on="0"/>
        <pt x="588" y="523" on="1"/>
        <pt x="600" y="615" on="0"/>
        <pt x="497" y="726" on="0"/>
        <pt x="399" y="726" on="1"/>
        <pt x="314" y="726" on="0"/>
        <pt x="135" y="678" on="0"/>
        <pt x="72" y="640" on="1"/>
        <pt x="55" y="630" on="0"/>
        <pt x="43" y="598" on="0"/>
        <pt x="55" y="569" on="0"/>
        <pt x="84" y="558" on="0"/>
        <pt x="102" y="566" on="1"/>
        <pt x="101" y="453" on="0"/>
        <pt x="90" y="98" on="0"/>
        <pt x="89" y="34" on="1"/>
        <pt x="88" y="10" on="0"/>
        <pt x="117" y="-19" on="0"/>
        <pt x="160" y="-19" on="0"/>
        <pt x="187" y="10" on="0"/>
        <pt x="188" y="36" on="1"/>
        <pt x="193" y="130" on="0"/>
        <pt x="197" y="237" on="0"/>
        <pt x="199" y="283" on="1"/>
        <pt x="236" y="288" on="1"/>
        <pt x="310" y="219" on="0"/>
        <pt x="488" y="20" on="0"/>
        <pt x="511" y="-5" on="1"/>
        <pt x="532" y="-27" on="0"/>
      </contour>
      <contour>
        <pt x="201" y="366" on="1"/>
        <pt x="204" y="499" on="0"/>
        <pt x="203" y="606" on="1"/>
        <pt x="296" y="636" on="0"/>
        <pt x="372" y="636" on="1"/>
        <pt x="433" y="636" on="0"/>
        <pt x="488" y="580" on="0"/>
        <pt x="480" y="524" on="1"/>
        <pt x="471" y="463" on="0"/>
        <pt x="329" y="382" on="0"/>
      </contour>
    </TTGlyph>
    <TTGlyph name="Racute" xMin="43" yMin="-27" xMax="603" yMax="933">
      <component glyphName="R" x="0" y="0" flags="0x0"/>
      <component glyphName="acutecomb.case" x="721" y="5" flags="0x4"/>
    </TTGlyph>
    <TTGlyph name="Rcaron" xMin="43" yMin="-27" xMax="603" yMax="977">
      <component glyphName="R" x="0" y="0" flags="0x0"/>
      <component glyphName="uni030C.case" x="713" y="97" flags="0x4"/>
    </TTGlyph>
    <TTGlyph name="Rho" xMin="46" yMin="-27" xMax="577" yMax="736">
      <component glyphName="P" x="0" y="0" flags="0x0"/>
    </TTGlyph>
    <TTGlyph name="S" xMin="29" yMin="-27" xMax="488" yMax="731">
      <contour>
        <pt x="271" y="-27" on="1"/>
        <pt x="371" y="-27" on="0"/>
        <pt x="488" y="80" on="0"/>
        <pt x="488" y="168" on="1"/>
        <pt x="488" y="243" on="0"/>
        <pt x="402" y="362" on="0"/>
        <pt x="247" y="465" on="0"/>
        <pt x="178" y="533" on="0"/>
        <pt x="178" y="571" on="1"/>
        <pt x="178" y="607" on="0"/>
        <pt x="227" y="640" on="0"/>
        <pt x="278" y="640" on="1"/>
        <pt x="339" y="640" on="0"/>
        <pt x="388" y="606" on="1"/>
        <pt x="406" y="593" on="0"/>
        <pt x="440" y="587" on="0"/>
        <pt x="464" y="603" on="0"/>
        <pt x="469" y="636" on="0"/>
        <pt x="459" y="653" on="1"/>
        <pt x="440" y="687" on="0"/>
        <pt x="339" y="731" on="0"/>
        <pt x="275" y="731" on="1"/>
        <pt x="180" y="731" on="0"/>
        <pt x="74" y="645" on="0"/>
        <pt x="74" y="568" on="1"/>
        <pt x="74" y="515" on="0"/>
        <pt x="140" y="420" on="0"/>
        <pt x="337" y="281" on="0"/>
        <pt x="384" y="207" on="0"/>
        <pt x="384" y="172" on="1"/>
        <pt x="384" y="119" on="0"/>
        <pt x="326" y="65" on="0"/>
        <pt x="270" y="65" on="1"/>
        <pt x="213" y="65" on="0"/>
        <pt x="140" y="111" on="0"/>
        <pt x="117" y="162" on="1"/>
        <pt x="108" y="182" on="0"/>
        <pt x="76" y="199" on="0"/>
        <pt x="43" y="187" on="0"/>
        <pt x="29" y="150" on="0"/>
        <pt x="35" y="125" on="1"/>
        <pt x="52" y="57" on="0"/>
        <pt x="179" y="-27" on="0"/>
      </contour>
    </TTGlyph>
    <TTGlyph name="Sacute" xMin="29" yMin="-27" xMax="504" yMax="928">
      <component glyphName="S" x="0" y="0" flags="0x0"/>
      <component glyphName="acutecomb.case" x="647" y="0" flags="0x0"/>
    </TTGlyph>
    <TTGlyph name="Scaron" xMin="48" yMin="-11" xMax="491" yMax="969">
      <contour>
        <pt x="284" y="-11" on="1"/>
        <pt x="317" y="-11" on="0"/>
        <pt x="388" y="4" on="0"/>
        <pt x="446" y="37" on="0"/>
        <pt x="484" y="89" on="0"/>
        <pt x="484" y="125" on="1"/>
        <pt x="484" y="143" on="0"/>
        <pt x="473" y="180" on="0"/>
        <pt x="456" y="215" on="0"/>
        <pt x="437" y="247" on="0"/>
        <pt x="428" y="259" on="1"/>
        <pt x="398" y="301" on="0"/>
        <pt x="319" y="377" on="0"/>
        <pt x="247" y="450" on="0"/>
        <pt x="198" y="523" on="0"/>
        <pt x="198" y="564" on="1"/>
        <pt x="198" y="574" on="0"/>
        <pt x="204" y="601" on="0"/>
        <pt x="215" y="628" on="0"/>
        <pt x="229" y="651" on="0"/>
        <pt x="238" y="658" on="1"/>
        <pt x="239" y="658" on="0"/>
        <pt x="284" y="656" on="0"/>
        <pt x="338" y="645" on="0"/>
        <pt x="387" y="622" on="0"/>
        <pt x="393" y="600" on="1"/>
        <pt x="401" y="578" on="0"/>
        <pt x="429" y="558" on="0"/>
        <pt x="444" y="558" on="1"/>
        <pt x="462" y="558" on="0"/>
        <pt x="491" y="585" on="0"/>
        <pt x="491" y="610" on="1"/>
        <pt x="491" y="663" on="0"/>
        <pt x="389" y="734" on="0"/>
        <pt x="306" y="753" on="1"/>
        <pt x="335" y="767" on="0"/>
        <pt x="403" y="787" on="0"/>
        <pt x="435" y="798" on="1"/>
        <pt x="455" y="805" on="0"/>
        <pt x="473" y="834" on="0"/>
        <pt x="473" y="848" on="1"/>
        <pt x="473" y="865" on="0"/>
        <pt x="443" y="897" on="0"/>
        <pt x="419" y="897" on="1"/>
        <pt x="408" y="897" on="0"/>
        <pt x="370" y="886" on="0"/>
        <pt x="324" y="868" on="0"/>
        <pt x="275" y="848" on="0"/>
        <pt x="253" y="839" on="1"/>
        <pt x="241" y="854" on="0"/>
        <pt x="206" y="899" on="0"/>
        <pt x="165" y="940" on="0"/>
        <pt x="122" y="969" on="0"/>
        <pt x="102" y="969" on="1"/>
        <pt x="78" y="969" on="0"/>
        <pt x="50" y="940" on="0"/>
        <pt x="50" y="921" on="1"/>
        <pt x="50" y="909" on="0"/>
        <pt x="63" y="884" on="0"/>
        <pt x="78" y="875" on="1"/>
        <pt x="95" y="869" on="0"/>
        <pt x="127" y="840" on="0"/>
        <pt x="157" y="804" on="0"/>
        <pt x="185" y="766" on="0"/>
        <pt x="197" y="751" on="1"/>
        <pt x="189" y="747" on="1"/>
        <pt x="165" y="733" on="0"/>
        <pt x="130" y="686" on="0"/>
        <pt x="107" y="632" on="0"/>
        <pt x="95" y="579" on="0"/>
        <pt x="95" y="561" on="1"/>
        <pt x="95" y="518" on="0"/>
        <pt x="125" y="445" on="0"/>
        <pt x="174" y="381" on="0"/>
        <pt x="235" y="322" on="0"/>
        <pt x="296" y="262" on="0"/>
        <pt x="351" y="199" on="0"/>
        <pt x="370" y="163" on="1"/>
        <pt x="380" y="145" on="0"/>
        <pt x="380" y="133" on="1"/>
        <pt x="380" y="119" on="0"/>
        <pt x="356" y="101" on="0"/>
        <pt x="321" y="91" on="0"/>
        <pt x="284" y="87" on="0"/>
        <pt x="272" y="87" on="1"/>
        <pt x="241" y="87" on="0"/>
        <pt x="178" y="107" on="0"/>
        <pt x="158" y="126" on="1"/>
        <pt x="150" y="133" on="0"/>
        <pt x="147" y="157" on="0"/>
        <pt x="145" y="165" on="1"/>
        <pt x="135" y="182" on="0"/>
        <pt x="109" y="199" on="0"/>
        <pt x="95" y="199" on="1"/>
        <pt x="77" y="199" on="0"/>
        <pt x="48" y="169" on="0"/>
        <pt x="48" y="141" on="1"/>
        <pt x="48" y="91" on="0"/>
        <pt x="88" y="54" on="1"/>
        <pt x="121" y="23" on="0"/>
        <pt x="227" y="-11" on="0"/>
      </contour>
    </TTGlyph>
    <TTGlyph name="Scedilla" xMin="29" yMin="-273" xMax="488" yMax="731">
      <contour>
        <pt x="242" y="-273" on="1"/>
        <pt x="267" y="-273" on="0"/>
        <pt x="319" y="-256" on="0"/>
        <pt x="361" y="-226" on="0"/>
        <pt x="388" y="-183" on="0"/>
        <pt x="388" y="-156" on="1"/>
        <pt x="388" y="-118" on="0"/>
        <pt x="338" y="-67" on="0"/>
        <pt x="303" y="-59" on="1"/>
        <pt x="311" y="-41" on="0"/>
        <pt x="311" y="-25" on="1"/>
        <pt x="311" y="1" on="0"/>
        <pt x="282" y="28" on="0"/>
        <pt x="264" y="28" on="1"/>
        <pt x="249" y="28" on="0"/>
        <pt x="231" y="16" on="0"/>
        <pt x="223" y="6" on="1"/>
        <pt x="219" y="1" on="0"/>
        <pt x="213" y="-17" on="0"/>
        <pt x="212" y="-19" on="1"/>
        <pt x="204" y="-38" on="0"/>
        <pt x="194" y="-74" on="0"/>
        <pt x="194" y="-89" on="1"/>
        <pt x="194" y="-119" on="0"/>
        <pt x="235" y="-157" on="0"/>
        <pt x="284" y="-157" on="1"/>
        <pt x="277" y="-164" on="0"/>
        <pt x="260" y="-170" on="0"/>
        <pt x="253" y="-172" on="1"/>
        <pt x="241" y="-170" on="0"/>
        <pt x="208" y="-167" on="0"/>
        <pt x="199" y="-167" on="1"/>
        <pt x="179" y="-167" on="0"/>
        <pt x="152" y="-197" on="0"/>
        <pt x="152" y="-216" on="1"/>
        <pt x="152" y="-243" on="0"/>
        <pt x="204" y="-273" on="0"/>
      </contour>
      <contour>
        <pt x="271" y="-27" on="1"/>
        <pt x="371" y="-27" on="0"/>
        <pt x="488" y="80" on="0"/>
        <pt x="488" y="168" on="1"/>
        <pt x="488" y="243" on="0"/>
        <pt x="402" y="362" on="0"/>
        <pt x="247" y="465" on="0"/>
        <pt x="178" y="533" on="0"/>
        <pt x="178" y="571" on="1"/>
        <pt x="178" y="607" on="0"/>
        <pt x="227" y="640" on="0"/>
        <pt x="278" y="640" on="1"/>
        <pt x="339" y="640" on="0"/>
        <pt x="388" y="606" on="1"/>
        <pt x="406" y="593" on="0"/>
        <pt x="440" y="587" on="0"/>
        <pt x="464" y="603" on="0"/>
        <pt x="469" y="636" on="0"/>
        <pt x="459" y="653" on="1"/>
        <pt x="440" y="687" on="0"/>
        <pt x="339" y="731" on="0"/>
        <pt x="275" y="731" on="1"/>
        <pt x="180" y="731" on="0"/>
        <pt x="74" y="645" on="0"/>
        <pt x="74" y="568" on="1"/>
        <pt x="74" y="515" on="0"/>
        <pt x="140" y="420" on="0"/>
        <pt x="337" y="281" on="0"/>
        <pt x="384" y="207" on="0"/>
        <pt x="384" y="172" on="1"/>
        <pt x="384" y="119" on="0"/>
        <pt x="326" y="65" on="0"/>
        <pt x="270" y="65" on="1"/>
        <pt x="213" y="65" on="0"/>
        <pt x="140" y="111" on="0"/>
        <pt x="117" y="162" on="1"/>
        <pt x="108" y="182" on="0"/>
        <pt x="76" y="199" on="0"/>
        <pt x="43" y="187" on="0"/>
        <pt x="29" y="150" on="0"/>
        <pt x="35" y="125" on="1"/>
        <pt x="52" y="57" on="0"/>
        <pt x="179" y="-27" on="0"/>
      </contour>
    </TTGlyph>
    <TTGlyph name="Scircumflex" xMin="29" yMin="-27" xMax="488" yMax="924">
      <component glyphName="S" x="0" y="0" flags="0x0"/>
      <component glyphName="uni0302.case" x="647" y="0" flags="0x0"/>
    </TTGlyph>
    <TTGlyph name="Sigma" xMin="35" yMin="-18" xMax="544" yMax="728">
      <contour>
        <pt x="127" y="-18" on="1"/>
        <pt x="219" y="-18" on="0"/>
        <pt x="400" y="-9" on="0"/>
        <pt x="490" y="-7" on="1"/>
        <pt x="519" y="-6" on="0"/>
        <pt x="544" y="26" on="0"/>
        <pt x="544" y="43" on="1"/>
        <pt x="544" y="60" on="0"/>
        <pt x="517" y="90" on="0"/>
        <pt x="490" y="93" on="1"/>
        <pt x="420" y="92" on="0"/>
        <pt x="280" y="88" on="0"/>
        <pt x="210" y="86" on="1"/>
        <pt x="199" y="86" on="0"/>
        <pt x="176" y="83" on="0"/>
        <pt x="164" y="82" on="1"/>
        <pt x="193" y="129" on="0"/>
        <pt x="251" y="219" on="0"/>
        <pt x="280" y="265" on="1"/>
        <pt x="290" y="282" on="0"/>
        <pt x="317" y="323" on="0"/>
        <pt x="317" y="344" on="1"/>
        <pt x="317" y="355" on="0"/>
        <pt x="306" y="379" on="0"/>
        <pt x="290" y="402" on="0"/>
        <pt x="272" y="424" on="0"/>
        <pt x="265" y="434" on="1"/>
        <pt x="253" y="451" on="0"/>
        <pt x="223" y="494" on="0"/>
        <pt x="192" y="543" on="0"/>
        <pt x="164" y="594" on="0"/>
        <pt x="156" y="618" on="1"/>
        <pt x="198" y="620" on="0"/>
        <pt x="280" y="628" on="0"/>
        <pt x="322" y="628" on="1"/>
        <pt x="347" y="628" on="0"/>
        <pt x="394" y="626" on="0"/>
        <pt x="418" y="626" on="1"/>
        <pt x="435" y="626" on="0"/>
        <pt x="468" y="628" on="0"/>
        <pt x="485" y="630" on="1"/>
        <pt x="505" y="638" on="0"/>
        <pt x="523" y="666" on="0"/>
        <pt x="523" y="680" on="1"/>
        <pt x="523" y="697" on="0"/>
        <pt x="495" y="725" on="0"/>
        <pt x="469" y="727" on="1"/>
        <pt x="427" y="727" on="0"/>
        <pt x="347" y="728" on="0"/>
        <pt x="308" y="728" on="1"/>
        <pt x="254" y="728" on="0"/>
        <pt x="141" y="725" on="0"/>
        <pt x="93" y="716" on="1"/>
        <pt x="76" y="713" on="0"/>
        <pt x="47" y="689" on="0"/>
        <pt x="47" y="668" on="1"/>
        <pt x="47" y="628" on="0"/>
        <pt x="79" y="540" on="0"/>
        <pt x="127" y="453" on="0"/>
        <pt x="184" y="372" on="0"/>
        <pt x="209" y="338" on="1"/>
        <pt x="193" y="307" on="0"/>
        <pt x="154" y="244" on="0"/>
        <pt x="112" y="182" on="0"/>
        <pt x="71" y="120" on="0"/>
        <pt x="53" y="91" on="1"/>
        <pt x="35" y="61" on="0"/>
        <pt x="35" y="37" on="1"/>
        <pt x="35" y="-18" on="0"/>
      </contour>
    </TTGlyph>
    <TTGlyph name="T" xMin="6" yMin="-9" xMax="585" yMax="704">
      <contour>
        <pt x="316" y="44" on="1"/>
        <pt x="321" y="187" on="0"/>
        <pt x="333" y="462" on="0"/>
        <pt x="337" y="605" on="1"/>
        <pt x="386" y="607" on="0"/>
        <pt x="484" y="611" on="0"/>
        <pt x="534" y="613" on="1"/>
        <pt x="560" y="614" on="0"/>
        <pt x="585" y="637" on="0"/>
        <pt x="585" y="676" on="0"/>
        <pt x="556" y="702" on="0"/>
        <pt x="525" y="703" on="1"/>
        <pt x="481" y="704" on="0"/>
        <pt x="369" y="704" on="0"/>
        <pt x="246" y="700" on="0"/>
        <pt x="120" y="694" on="0"/>
        <pt x="62" y="690" on="1"/>
        <pt x="32" y="688" on="0"/>
        <pt x="6" y="661" on="0"/>
        <pt x="6" y="619" on="0"/>
        <pt x="32" y="590" on="0"/>
        <pt x="61" y="592" on="1"/>
        <pt x="106" y="594" on="0"/>
        <pt x="193" y="598" on="0"/>
        <pt x="238" y="600" on="1"/>
        <pt x="232" y="460" on="0"/>
        <pt x="220" y="190" on="0"/>
        <pt x="216" y="49" on="1"/>
        <pt x="215" y="20" on="0"/>
        <pt x="246" y="-9" on="0"/>
        <pt x="285" y="-9" on="0"/>
        <pt x="314" y="15" on="0"/>
      </contour>
    </TTGlyph>
    <TTGlyph name="Tau" xMin="6" yMin="-9" xMax="585" yMax="704">
      <component glyphName="T" x="0" y="0" flags="0x0"/>
    </TTGlyph>
    <TTGlyph name="Tbar" xMin="6" yMin="-9" xMax="591" yMax="716">
      <contour>
        <pt x="265" y="-9" on="1"/>
        <pt x="285" y="-9" on="0"/>
        <pt x="316" y="15" on="0"/>
        <pt x="316" y="44" on="1"/>
        <pt x="316" y="120" on="0"/>
        <pt x="318" y="190" on="1"/>
        <pt x="321" y="257" on="0"/>
        <pt x="324" y="322" on="1"/>
        <pt x="346" y="322" on="0"/>
        <pt x="366" y="321" on="1"/>
        <pt x="405" y="319" on="0"/>
        <pt x="427" y="319" on="1"/>
        <pt x="454" y="321" on="0"/>
        <pt x="481" y="352" on="0"/>
        <pt x="481" y="369" on="1"/>
        <pt x="481" y="386" on="0"/>
        <pt x="454" y="416" on="0"/>
        <pt x="427" y="419" on="1"/>
        <pt x="395" y="419" on="0"/>
        <pt x="358" y="421" on="1"/>
        <pt x="344" y="422" on="0"/>
        <pt x="330" y="422" on="1"/>
        <pt x="332" y="469" on="1"/>
        <pt x="335" y="540" on="0"/>
        <pt x="337" y="617" on="1"/>
        <pt x="369" y="617" on="0"/>
        <pt x="432" y="614" on="0"/>
        <pt x="463" y="609" on="1"/>
        <pt x="482" y="606" on="0"/>
        <pt x="517" y="594" on="0"/>
        <pt x="537" y="594" on="1"/>
        <pt x="563" y="594" on="0"/>
        <pt x="591" y="626" on="0"/>
        <pt x="591" y="644" on="1"/>
        <pt x="591" y="660" on="0"/>
        <pt x="569" y="693" on="0"/>
        <pt x="542" y="693" on="1"/>
        <pt x="538" y="693" on="0"/>
        <pt x="506" y="701" on="0"/>
        <pt x="491" y="705" on="1"/>
        <pt x="460" y="713" on="0"/>
        <pt x="390" y="716" on="0"/>
        <pt x="360" y="716" on="1"/>
        <pt x="321" y="716" on="0"/>
        <pt x="241" y="708" on="0"/>
        <pt x="163" y="698" on="0"/>
        <pt x="90" y="690" on="0"/>
        <pt x="57" y="690" on="1"/>
        <pt x="43" y="690" on="0"/>
        <pt x="23" y="680" on="0"/>
        <pt x="11" y="665" on="0"/>
        <pt x="6" y="648" on="0"/>
        <pt x="6" y="640" on="1"/>
        <pt x="6" y="624" on="0"/>
        <pt x="28" y="590" on="0"/>
        <pt x="55" y="590" on="1"/>
        <pt x="99" y="590" on="0"/>
        <pt x="190" y="604" on="0"/>
        <pt x="237" y="610" on="1"/>
        <pt x="236" y="535" on="0"/>
        <pt x="233" y="466" on="1"/>
        <pt x="232" y="444" on="0"/>
        <pt x="231" y="421" on="1"/>
        <pt x="220" y="420" on="1"/>
        <pt x="186" y="418" on="0"/>
        <pt x="128" y="403" on="0"/>
        <pt x="90" y="374" on="0"/>
        <pt x="90" y="350" on="1"/>
        <pt x="90" y="331" on="0"/>
        <pt x="117" y="304" on="0"/>
        <pt x="139" y="304" on="1"/>
        <pt x="145" y="304" on="0"/>
        <pt x="159" y="306" on="0"/>
        <pt x="167" y="310" on="1"/>
        <pt x="185" y="318" on="0"/>
        <pt x="217" y="320" on="1"/>
        <pt x="221" y="321" on="0"/>
        <pt x="226" y="321" on="1"/>
        <pt x="223" y="257" on="0"/>
        <pt x="220" y="192" on="1"/>
        <pt x="217" y="124" on="0"/>
        <pt x="216" y="49" on="1"/>
        <pt x="216" y="20" on="0"/>
        <pt x="246" y="-9" on="0"/>
      </contour>
    </TTGlyph>
    <TTGlyph name="Tcaron" xMin="6" yMin="-9" xMax="585" yMax="911">
      <contour>
        <pt x="289" y="697" on="1"/>
        <pt x="311" y="697" on="0"/>
        <pt x="328" y="721" on="1"/>
        <pt x="359" y="735" on="0"/>
        <pt x="415" y="782" on="0"/>
        <pt x="444" y="796" on="1"/>
        <pt x="468" y="802" on="0"/>
        <pt x="489" y="830" on="0"/>
        <pt x="489" y="847" on="1"/>
        <pt x="489" y="873" on="0"/>
        <pt x="456" y="897" on="0"/>
        <pt x="439" y="897" on="1"/>
        <pt x="425" y="897" on="0"/>
        <pt x="415" y="891" on="1"/>
        <pt x="398" y="887" on="0"/>
        <pt x="365" y="869" on="0"/>
        <pt x="332" y="847" on="0"/>
        <pt x="301" y="823" on="0"/>
        <pt x="288" y="813" on="1"/>
        <pt x="287" y="812" on="0"/>
        <pt x="284" y="812" on="1"/>
        <pt x="269" y="825" on="1"/>
        <pt x="253" y="842" on="0"/>
        <pt x="229" y="878" on="0"/>
        <pt x="212" y="893" on="1"/>
        <pt x="201" y="900" on="1"/>
        <pt x="193" y="905" on="0"/>
        <pt x="178" y="911" on="0"/>
        <pt x="169" y="911" on="1"/>
        <pt x="151" y="911" on="0"/>
        <pt x="122" y="883" on="0"/>
        <pt x="122" y="860" on="1"/>
        <pt x="122" y="838" on="0"/>
        <pt x="148" y="815" on="0"/>
        <pt x="155" y="811" on="1"/>
        <pt x="159" y="806" on="0"/>
        <pt x="172" y="789" on="0"/>
        <pt x="185" y="772" on="0"/>
        <pt x="195" y="759" on="0"/>
        <pt x="197" y="757" on="1"/>
        <pt x="205" y="749" on="0"/>
        <pt x="226" y="728" on="0"/>
        <pt x="250" y="710" on="0"/>
        <pt x="276" y="697" on="0"/>
      </contour>
      <contour>
        <pt x="316" y="44" on="1"/>
        <pt x="321" y="187" on="0"/>
        <pt x="333" y="462" on="0"/>
        <pt x="337" y="605" on="1"/>
        <pt x="386" y="607" on="0"/>
        <pt x="484" y="611" on="0"/>
        <pt x="534" y="613" on="1"/>
        <pt x="560" y="614" on="0"/>
        <pt x="585" y="637" on="0"/>
        <pt x="585" y="676" on="0"/>
        <pt x="556" y="702" on="0"/>
        <pt x="525" y="703" on="1"/>
        <pt x="481" y="704" on="0"/>
        <pt x="369" y="704" on="0"/>
        <pt x="246" y="700" on="0"/>
        <pt x="120" y="694" on="0"/>
        <pt x="62" y="690" on="1"/>
        <pt x="32" y="688" on="0"/>
        <pt x="6" y="661" on="0"/>
        <pt x="6" y="619" on="0"/>
        <pt x="32" y="590" on="0"/>
        <pt x="61" y="592" on="1"/>
        <pt x="106" y="594" on="0"/>
        <pt x="193" y="598" on="0"/>
        <pt x="238" y="600" on="1"/>
        <pt x="232" y="460" on="0"/>
        <pt x="220" y="190" on="0"/>
        <pt x="216" y="49" on="1"/>
        <pt x="215" y="20" on="0"/>
        <pt x="246" y="-9" on="0"/>
        <pt x="285" y="-9" on="0"/>
        <pt x="314" y="15" on="0"/>
      </contour>
    </TTGlyph>
    <TTGlyph name="Theta" xMin="35" yMin="-7" xMax="697" yMax="717">
      <contour>
        <pt x="329" y="-7" on="1"/>
        <pt x="425" y="-7" on="0"/>
        <pt x="560" y="58" on="0"/>
        <pt x="605" y="118" on="1"/>
        <pt x="657" y="187" on="0"/>
        <pt x="697" y="306" on="0"/>
        <pt x="697" y="349" on="1"/>
        <pt x="697" y="403" on="0"/>
        <pt x="672" y="491" on="0"/>
        <pt x="651" y="527" on="1"/>
        <pt x="625" y="571" on="0"/>
        <pt x="571" y="619" on="0"/>
        <pt x="547" y="636" on="1"/>
        <pt x="545" y="638" on="0"/>
        <pt x="534" y="642" on="0"/>
        <pt x="529" y="644" on="1"/>
        <pt x="526" y="655" on="0"/>
        <pt x="508" y="672" on="0"/>
        <pt x="493" y="682" on="1"/>
        <pt x="473" y="695" on="0"/>
        <pt x="411" y="717" on="0"/>
        <pt x="374" y="717" on="1"/>
        <pt x="344" y="717" on="0"/>
        <pt x="285" y="703" on="0"/>
        <pt x="234" y="682" on="0"/>
        <pt x="193" y="657" on="0"/>
        <pt x="179" y="647" on="1"/>
        <pt x="140" y="618" on="0"/>
        <pt x="86" y="546" on="0"/>
        <pt x="51" y="468" on="0"/>
        <pt x="35" y="388" on="0"/>
        <pt x="35" y="352" on="1"/>
        <pt x="35" y="283" on="0"/>
        <pt x="73" y="140" on="0"/>
        <pt x="124" y="80" on="1"/>
        <pt x="148" y="52" on="0"/>
        <pt x="187" y="18" on="0"/>
        <pt x="232" y="-1" on="0"/>
        <pt x="288" y="-7" on="0"/>
      </contour>
      <contour>
        <pt x="463" y="299" on="1"/>
        <pt x="490" y="301" on="0"/>
        <pt x="517" y="332" on="0"/>
        <pt x="517" y="349" on="1"/>
        <pt x="517" y="366" on="0"/>
        <pt x="490" y="396" on="0"/>
        <pt x="463" y="399" on="1"/>
        <pt x="409" y="400" on="0"/>
        <pt x="304" y="405" on="0"/>
        <pt x="250" y="406" on="1"/>
        <pt x="227" y="400" on="0"/>
        <pt x="206" y="372" on="0"/>
        <pt x="206" y="356" on="1"/>
        <pt x="206" y="340" on="0"/>
        <pt x="227" y="311" on="0"/>
        <pt x="250" y="306" on="1"/>
        <pt x="304" y="305" on="0"/>
        <pt x="409" y="300" on="0"/>
      </contour>
      <contour>
        <pt x="333" y="92" on="1"/>
        <pt x="325" y="92" on="0"/>
        <pt x="299" y="93" on="0"/>
        <pt x="273" y="95" on="0"/>
        <pt x="251" y="99" on="0"/>
        <pt x="247" y="102" on="1"/>
        <pt x="218" y="120" on="0"/>
        <pt x="177" y="177" on="0"/>
        <pt x="150" y="243" on="0"/>
        <pt x="138" y="315" on="0"/>
        <pt x="138" y="350" on="1"/>
        <pt x="138" y="420" on="0"/>
        <pt x="191" y="528" on="0"/>
        <pt x="234" y="562" on="1"/>
        <pt x="275" y="594" on="0"/>
        <pt x="345" y="614" on="0"/>
        <pt x="361" y="614" on="1"/>
        <pt x="379" y="614" on="0"/>
        <pt x="403" y="608" on="0"/>
        <pt x="422" y="599" on="1"/>
        <pt x="432" y="594" on="0"/>
        <pt x="453" y="588" on="0"/>
        <pt x="463" y="587" on="1"/>
        <pt x="464" y="582" on="0"/>
        <pt x="472" y="564" on="0"/>
        <pt x="480" y="559" on="1"/>
        <pt x="493" y="548" on="0"/>
        <pt x="513" y="534" on="0"/>
        <pt x="529" y="522" on="0"/>
        <pt x="541" y="510" on="0"/>
        <pt x="546" y="502" on="1"/>
        <pt x="569" y="467" on="0"/>
        <pt x="594" y="391" on="0"/>
        <pt x="594" y="359" on="1"/>
        <pt x="594" y="314" on="0"/>
        <pt x="558" y="225" on="0"/>
        <pt x="533" y="190" on="1"/>
        <pt x="495" y="137" on="0"/>
        <pt x="389" y="92" on="0"/>
      </contour>
    </TTGlyph>
    <TTGlyph name="Thorn" xMin="73" yMin="-29" xMax="530" yMax="737">
      <contour>
        <pt x="130" y="-29" on="1"/>
        <pt x="177" y="-29" on="0"/>
        <pt x="177" y="30" on="1"/>
        <pt x="177" y="47" on="0"/>
        <pt x="173" y="59" on="1"/>
        <pt x="177" y="72" on="0"/>
        <pt x="177" y="104" on="1"/>
        <pt x="177" y="191" on="1"/>
        <pt x="188" y="191" on="0"/>
        <pt x="211" y="190" on="0"/>
        <pt x="222" y="190" on="1"/>
        <pt x="264" y="190" on="0"/>
        <pt x="345" y="197" on="0"/>
        <pt x="384" y="209" on="1"/>
        <pt x="410" y="217" on="0"/>
        <pt x="462" y="248" on="0"/>
        <pt x="504" y="293" on="0"/>
        <pt x="530" y="352" on="0"/>
        <pt x="530" y="388" on="1"/>
        <pt x="530" y="444" on="0"/>
        <pt x="468" y="515" on="0"/>
        <pt x="377" y="556" on="0"/>
        <pt x="275" y="571" on="0"/>
        <pt x="235" y="571" on="1"/>
        <pt x="221" y="571" on="0"/>
        <pt x="195" y="570" on="0"/>
        <pt x="181" y="570" on="1"/>
        <pt x="181" y="687" on="1"/>
        <pt x="177" y="713" on="0"/>
        <pt x="147" y="737" on="0"/>
        <pt x="130" y="737" on="1"/>
        <pt x="111" y="737" on="0"/>
        <pt x="81" y="708" on="0"/>
        <pt x="81" y="679" on="1"/>
        <pt x="81" y="573" on="0"/>
        <pt x="79" y="364" on="0"/>
        <pt x="78" y="258" on="1"/>
        <pt x="78" y="250" on="0"/>
        <pt x="76" y="215" on="0"/>
        <pt x="75" y="168" on="0"/>
        <pt x="73" y="115" on="0"/>
        <pt x="73" y="91" on="1"/>
        <pt x="73" y="54" on="0"/>
        <pt x="77" y="14" on="0"/>
        <pt x="87" y="-4" on="1"/>
        <pt x="93" y="-15" on="0"/>
        <pt x="120" y="-29" on="0"/>
      </contour>
      <contour>
        <pt x="177" y="292" on="1"/>
        <pt x="180" y="470" on="1"/>
        <pt x="194" y="471" on="0"/>
        <pt x="226" y="472" on="0"/>
        <pt x="241" y="472" on="1"/>
        <pt x="268" y="472" on="0"/>
        <pt x="332" y="461" on="0"/>
        <pt x="388" y="440" on="0"/>
        <pt x="426" y="409" on="0"/>
        <pt x="426" y="390" on="1"/>
        <pt x="426" y="363" on="0"/>
        <pt x="400" y="321" on="0"/>
        <pt x="379" y="313" on="1"/>
        <pt x="343" y="299" on="0"/>
        <pt x="265" y="292" on="0"/>
        <pt x="226" y="292" on="1"/>
      </contour>
    </TTGlyph>
    <TTGlyph name="U" xMin="39" yMin="-25" xMax="577" yMax="717">
      <contour>
        <pt x="526" y="-25" on="1"/>
        <pt x="549" y="-25" on="0"/>
        <pt x="577" y="-1" on="0"/>
        <pt x="577" y="20" on="1"/>
        <pt x="577" y="39" on="0"/>
        <pt x="561" y="53" on="1"/>
        <pt x="544" y="67" on="0"/>
        <pt x="525" y="88" on="0"/>
        <pt x="519" y="99" on="1"/>
        <pt x="510" y="115" on="0"/>
        <pt x="499" y="184" on="0"/>
        <pt x="498" y="286" on="0"/>
        <pt x="506" y="414" on="0"/>
        <pt x="514" y="486" on="1"/>
        <pt x="526" y="555" on="0"/>
        <pt x="535" y="628" on="0"/>
        <pt x="534" y="656" on="1"/>
        <pt x="533" y="680" on="0"/>
        <pt x="509" y="709" on="0"/>
        <pt x="487" y="709" on="1"/>
        <pt x="446" y="709" on="0"/>
        <pt x="434" y="661" on="1"/>
        <pt x="431" y="648" on="0"/>
        <pt x="424" y="610" on="0"/>
        <pt x="419" y="564" on="0"/>
        <pt x="415" y="514" on="0"/>
        <pt x="414" y="490" on="1"/>
        <pt x="405" y="419" on="0"/>
        <pt x="378" y="291" on="0"/>
        <pt x="360" y="229" on="1"/>
        <pt x="338" y="153" on="0"/>
        <pt x="282" y="85" on="0"/>
        <pt x="241" y="85" on="1"/>
        <pt x="218" y="85" on="0"/>
        <pt x="179" y="123" on="0"/>
        <pt x="151" y="198" on="0"/>
        <pt x="139" y="300" on="0"/>
        <pt x="142" y="359" on="1"/>
        <pt x="144" y="393" on="0"/>
        <pt x="150" y="457" on="0"/>
        <pt x="159" y="514" on="0"/>
        <pt x="167" y="561" on="0"/>
        <pt x="184" y="654" on="1"/>
        <pt x="189" y="681" on="0"/>
        <pt x="162" y="717" on="0"/>
        <pt x="138" y="717" on="1"/>
        <pt x="120" y="717" on="0"/>
        <pt x="92" y="694" on="0"/>
        <pt x="86" y="672" on="1"/>
        <pt x="76" y="630" on="0"/>
        <pt x="62" y="561" on="0"/>
        <pt x="52" y="493" on="0"/>
        <pt x="45" y="421" on="0"/>
        <pt x="43" y="380" on="1"/>
        <pt x="39" y="296" on="0"/>
        <pt x="57" y="154" on="0"/>
        <pt x="103" y="47" on="0"/>
        <pt x="179" y="-11" on="0"/>
        <pt x="232" y="-11" on="1"/>
        <pt x="263" y="-11" on="0"/>
        <pt x="313" y="6" on="0"/>
        <pt x="359" y="45" on="0"/>
        <pt x="401" y="113" on="0"/>
        <pt x="419" y="163" on="1"/>
        <pt x="426" y="75" on="0"/>
        <pt x="483" y="-25" on="0"/>
      </contour>
    </TTGlyph>
    <TTGlyph name="Uacute" xMin="39" yMin="-25" xMax="577" yMax="928">
      <component glyphName="U" x="0" y="0" flags="0x0"/>
      <component glyphName="acutecomb.case" x="655" y="0" flags="0x0"/>
    </TTGlyph>
    <TTGlyph name="Ubreve" xMin="39" yMin="-25" xMax="577" yMax="920">
      <component glyphName="U" x="0" y="0" flags="0x0"/>
      <component glyphName="uni0306.case" x="511" y="-18" flags="0x4"/>
    </TTGlyph>
    <TTGlyph name="Ucircumflex" xMin="39" yMin="-25" xMax="577" yMax="951">
      <component glyphName="U" x="0" y="0" flags="0x0"/>
      <component glyphName="uni0302.case" x="678" y="27" flags="0x4"/>
    </TTGlyph>
    <TTGlyph name="Udieresis" xMin="59" yMin="-25" xMax="597" yMax="942">
      <component glyphName="U" x="20" y="0" flags="0x0"/>
      <component glyphName="uni0308.case" x="490" y="-10" flags="0x4"/>
    </TTGlyph>
    <TTGlyph name="Ugrave" xMin="39" yMin="-25" xMax="577" yMax="918">
      <component glyphName="U" x="0" y="0" flags="0x0"/>
      <component glyphName="gravecomb.case" x="695" y="0" flags="0x0"/>
    </TTGlyph>
    <TTGlyph name="Uhungarumlaut" xMin="39" yMin="-25" xMax="577" yMax="973">
      <component glyphName="U" x="0" y="0" flags="0x0"/>
      <component glyphName="uni030B.case" x="578" y="-26" flags="0x4"/>
    </TTGlyph>
    <TTGlyph name="Umacron" xMin="39" yMin="-25" xMax="577" yMax="880">
      <component glyphName="U" x="0" y="0" flags="0x0"/>
      <component glyphName="uni0304.case" x="582" y="10" flags="0x4"/>
    </TTGlyph>
    <TTGlyph name="Uogonek" xMin="39" yMin="-294" xMax="631" yMax="717">
      <contour>
        <pt x="495" y="-294" on="1"/>
        <pt x="524" y="-294" on="0"/>
        <pt x="581" y="-278" on="0"/>
        <pt x="603" y="-262" on="1"/>
        <pt x="618" y="-251" on="0"/>
        <pt x="631" y="-219" on="0"/>
        <pt x="623" y="-190" on="0"/>
        <pt x="596" y="-178" on="0"/>
        <pt x="577" y="-184" on="1"/>
        <pt x="554" y="-191" on="0"/>
        <pt x="523" y="-198" on="0"/>
        <pt x="511" y="-198" on="1"/>
        <pt x="492" y="-198" on="0"/>
        <pt x="471" y="-178" on="0"/>
        <pt x="472" y="-156" on="1"/>
        <pt x="474" y="-129" on="0"/>
        <pt x="508" y="-65" on="0"/>
        <pt x="565" y="5" on="1"/>
        <pt x="514" y="53" on="1"/>
        <pt x="482" y="28" on="0"/>
        <pt x="430" y="-24" on="0"/>
        <pt x="391" y="-78" on="0"/>
        <pt x="367" y="-135" on="0"/>
        <pt x="365" y="-164" on="1"/>
        <pt x="363" y="-193" on="0"/>
        <pt x="378" y="-241" on="0"/>
        <pt x="412" y="-275" on="0"/>
        <pt x="464" y="-294" on="0"/>
      </contour>
      <contour>
        <pt x="526" y="-25" on="1"/>
        <pt x="549" y="-25" on="0"/>
        <pt x="577" y="-1" on="0"/>
        <pt x="577" y="20" on="1"/>
        <pt x="577" y="39" on="0"/>
        <pt x="561" y="53" on="1"/>
        <pt x="544" y="67" on="0"/>
        <pt x="525" y="88" on="0"/>
        <pt x="519" y="99" on="1"/>
        <pt x="510" y="115" on="0"/>
        <pt x="499" y="184" on="0"/>
        <pt x="498" y="286" on="0"/>
        <pt x="506" y="414" on="0"/>
        <pt x="514" y="486" on="1"/>
        <pt x="526" y="555" on="0"/>
        <pt x="535" y="628" on="0"/>
        <pt x="534" y="656" on="1"/>
        <pt x="533" y="680" on="0"/>
        <pt x="509" y="709" on="0"/>
        <pt x="487" y="709" on="1"/>
        <pt x="446" y="709" on="0"/>
        <pt x="434" y="661" on="1"/>
        <pt x="431" y="648" on="0"/>
        <pt x="424" y="610" on="0"/>
        <pt x="419" y="564" on="0"/>
        <pt x="415" y="514" on="0"/>
        <pt x="414" y="490" on="1"/>
        <pt x="405" y="419" on="0"/>
        <pt x="378" y="291" on="0"/>
        <pt x="360" y="229" on="1"/>
        <pt x="338" y="153" on="0"/>
        <pt x="282" y="85" on="0"/>
        <pt x="241" y="85" on="1"/>
        <pt x="218" y="85" on="0"/>
        <pt x="179" y="123" on="0"/>
        <pt x="151" y="198" on="0"/>
        <pt x="139" y="300" on="0"/>
        <pt x="142" y="359" on="1"/>
        <pt x="144" y="393" on="0"/>
        <pt x="150" y="457" on="0"/>
        <pt x="159" y="514" on="0"/>
        <pt x="167" y="561" on="0"/>
        <pt x="184" y="654" on="1"/>
        <pt x="189" y="681" on="0"/>
        <pt x="162" y="717" on="0"/>
        <pt x="138" y="717" on="1"/>
        <pt x="120" y="717" on="0"/>
        <pt x="92" y="694" on="0"/>
        <pt x="86" y="672" on="1"/>
        <pt x="76" y="630" on="0"/>
        <pt x="62" y="561" on="0"/>
        <pt x="52" y="493" on="0"/>
        <pt x="45" y="421" on="0"/>
        <pt x="43" y="380" on="1"/>
        <pt x="39" y="296" on="0"/>
        <pt x="57" y="154" on="0"/>
        <pt x="103" y="47" on="0"/>
        <pt x="179" y="-11" on="0"/>
        <pt x="232" y="-11" on="1"/>
        <pt x="263" y="-11" on="0"/>
        <pt x="313" y="6" on="0"/>
        <pt x="359" y="45" on="0"/>
        <pt x="401" y="113" on="0"/>
        <pt x="419" y="163" on="1"/>
        <pt x="426" y="75" on="0"/>
        <pt x="483" y="-25" on="0"/>
      </contour>
    </TTGlyph>
    <TTGlyph name="Upsilon" xMin="25" yMin="-29" xMax="646" yMax="739">
      <component glyphName="Y" x="0" y="0" flags="0x0"/>
    </TTGlyph>
    <TTGlyph name="Upsilondieresis" xMin="21" yMin="-34" xMax="656" yMax="918">
      <contour>
        <pt x="262" y="-34" on="1"/>
        <pt x="279" y="-34" on="0"/>
        <pt x="309" y="-10" on="0"/>
        <pt x="313" y="16" on="1"/>
        <pt x="316" y="101" on="0"/>
        <pt x="339" y="266" on="0"/>
        <pt x="343" y="351" on="1"/>
        <pt x="367" y="363" on="0"/>
        <pt x="415" y="400" on="0"/>
        <pt x="434" y="416" on="1"/>
        <pt x="464" y="441" on="0"/>
        <pt x="529" y="496" on="0"/>
        <pt x="588" y="556" on="0"/>
        <pt x="638" y="623" on="0"/>
        <pt x="655" y="659" on="1"/>
        <pt x="656" y="663" on="0"/>
        <pt x="656" y="671" on="1"/>
        <pt x="656" y="695" on="0"/>
        <pt x="628" y="723" on="0"/>
        <pt x="609" y="723" on="1"/>
        <pt x="597" y="723" on="0"/>
        <pt x="574" y="712" on="0"/>
        <pt x="564" y="699" on="1"/>
        <pt x="548" y="665" on="0"/>
        <pt x="484" y="590" on="0"/>
        <pt x="406" y="519" on="0"/>
        <pt x="326" y="458" on="0"/>
        <pt x="294" y="439" on="1"/>
        <pt x="284" y="447" on="0"/>
        <pt x="251" y="486" on="0"/>
        <pt x="213" y="536" on="0"/>
        <pt x="175" y="593" on="0"/>
        <pt x="143" y="646" on="0"/>
        <pt x="122" y="689" on="0"/>
        <pt x="121" y="701" on="1"/>
        <pt x="117" y="727" on="0"/>
        <pt x="87" y="751" on="0"/>
        <pt x="70" y="751" on="1"/>
        <pt x="51" y="751" on="0"/>
        <pt x="21" y="722" on="0"/>
        <pt x="21" y="693" on="1"/>
        <pt x="25" y="661" on="0"/>
        <pt x="62" y="584" on="0"/>
        <pt x="110" y="508" on="0"/>
        <pt x="163" y="437" on="0"/>
        <pt x="183" y="411" on="1"/>
        <pt x="194" y="397" on="0"/>
        <pt x="224" y="363" on="0"/>
        <pt x="242" y="352" on="1"/>
        <pt x="239" y="269" on="0"/>
        <pt x="217" y="106" on="0"/>
        <pt x="213" y="24" on="1"/>
        <pt x="213" y="-5" on="0"/>
        <pt x="243" y="-34" on="0"/>
      </contour>
      <contour>
        <pt x="224" y="714" on="1"/>
        <pt x="241" y="714" on="0"/>
        <pt x="269" y="739" on="0"/>
        <pt x="273" y="764" on="1"/>
        <pt x="271" y="790" on="0"/>
        <pt x="253" y="836" on="0"/>
        <pt x="250" y="861" on="1"/>
        <pt x="247" y="887" on="0"/>
        <pt x="216" y="911" on="0"/>
        <pt x="199" y="911" on="1"/>
        <pt x="180" y="911" on="0"/>
        <pt x="150" y="882" on="0"/>
        <pt x="150" y="853" on="1"/>
        <pt x="150" y="832" on="0"/>
        <pt x="171" y="781" on="0"/>
        <pt x="173" y="756" on="1"/>
        <pt x="181" y="734" on="0"/>
        <pt x="209" y="714" on="0"/>
      </contour>
      <contour>
        <pt x="420" y="734" on="1"/>
        <pt x="437" y="734" on="0"/>
        <pt x="465" y="759" on="0"/>
        <pt x="469" y="784" on="1"/>
        <pt x="466" y="808" on="0"/>
        <pt x="447" y="856" on="0"/>
        <pt x="437" y="877" on="1"/>
        <pt x="432" y="898" on="0"/>
        <pt x="404" y="918" on="0"/>
        <pt x="388" y="918" on="1"/>
        <pt x="370" y="918" on="0"/>
        <pt x="339" y="890" on="0"/>
        <pt x="339" y="861" on="1"/>
        <pt x="339" y="852" on="0"/>
        <pt x="356" y="813" on="0"/>
        <pt x="363" y="798" on="1"/>
        <pt x="369" y="776" on="1"/>
        <pt x="375" y="754" on="0"/>
        <pt x="406" y="734" on="0"/>
      </contour>
    </TTGlyph>
    <TTGlyph name="Upsilontonos" xMin="16" yMin="-29" xMax="832" yMax="739">
      <component glyphName="Y" x="186" y="0" flags="0x0"/>
      <component glyphName="tonos" x="-11" y="15" flags="0x4"/>
    </TTGlyph>
    <TTGlyph name="Uring" xMin="39" yMin="-25" xMax="577" yMax="1005">
      <component glyphName="U" x="0" y="0" flags="0x0"/>
      <component glyphName="uni030A.case" x="526" y="-1" flags="0x4"/>
    </TTGlyph>
    <TTGlyph name="Utilde" xMin="39" yMin="-25" xMax="577" yMax="917">
      <component glyphName="U" x="0" y="0" flags="0x0"/>
      <component glyphName="tildecomb.case" x="675" y="6" flags="0x4"/>
    </TTGlyph>
    <TTGlyph name="V" xMin="75" yMin="-24" xMax="667" yMax="702">
      <contour>
        <pt x="282" y="-24" on="1"/>
        <pt x="315" y="-24" on="0"/>
        <pt x="335" y="9" on="1"/>
        <pt x="436" y="174" on="0"/>
        <pt x="598" y="480" on="0"/>
        <pt x="661" y="624" on="1"/>
        <pt x="667" y="639" on="0"/>
        <pt x="666" y="665" on="0"/>
        <pt x="653" y="686" on="0"/>
        <pt x="629" y="697" on="0"/>
        <pt x="615" y="697" on="1"/>
        <pt x="600" y="697" on="0"/>
        <pt x="575" y="682" on="0"/>
        <pt x="569" y="667" on="1"/>
        <pt x="503" y="519" on="0"/>
        <pt x="371" y="254" on="0"/>
        <pt x="302" y="132" on="1"/>
        <pt x="277" y="236" on="0"/>
        <pt x="194" y="596" on="0"/>
        <pt x="180" y="657" on="1"/>
        <pt x="175" y="678" on="0"/>
        <pt x="148" y="702" on="0"/>
        <pt x="129" y="702" on="1"/>
        <pt x="105" y="702" on="0"/>
        <pt x="75" y="664" on="0"/>
        <pt x="81" y="633" on="1"/>
        <pt x="121" y="448" on="0"/>
        <pt x="196" y="149" on="0"/>
        <pt x="236" y="15" on="1"/>
        <pt x="242" y="-4" on="0"/>
        <pt x="265" y="-24" on="0"/>
      </contour>
    </TTGlyph>
    <TTGlyph name="W" xMin="36" yMin="-23" xMax="797" yMax="719">
      <contour>
        <pt x="607" y="-23" on="1"/>
        <pt x="650" y="-23" on="0"/>
        <pt x="665" y="29" on="1"/>
        <pt x="706" y="172" on="0"/>
        <pt x="769" y="483" on="0"/>
        <pt x="793" y="656" on="1"/>
        <pt x="797" y="684" on="0"/>
        <pt x="768" y="719" on="0"/>
        <pt x="742" y="719" on="1"/>
        <pt x="723" y="719" on="0"/>
        <pt x="696" y="697" on="0"/>
        <pt x="693" y="676" on="1"/>
        <pt x="677" y="551" on="0"/>
        <pt x="629" y="289" on="0"/>
        <pt x="597" y="155" on="1"/>
        <pt x="574" y="220" on="0"/>
        <pt x="528" y="369" on="0"/>
        <pt x="482" y="533" on="1"/>
        <pt x="470" y="576" on="0"/>
        <pt x="428" y="576" on="1"/>
        <pt x="408" y="576" on="0"/>
        <pt x="380" y="554" on="0"/>
        <pt x="373" y="532" on="1"/>
        <pt x="293" y="359" on="0"/>
        <pt x="240" y="237" on="0"/>
        <pt x="219" y="180" on="1"/>
        <pt x="182" y="375" on="0"/>
        <pt x="149" y="579" on="0"/>
        <pt x="139" y="670" on="1"/>
        <pt x="137" y="690" on="0"/>
        <pt x="113" y="714" on="0"/>
        <pt x="94" y="714" on="1"/>
        <pt x="68" y="714" on="0"/>
        <pt x="36" y="678" on="0"/>
        <pt x="40" y="649" on="1"/>
        <pt x="61" y="496" on="0"/>
        <pt x="120" y="191" on="0"/>
        <pt x="157" y="41" on="1"/>
        <pt x="162" y="21" on="0"/>
        <pt x="188" y="0" on="0"/>
        <pt x="207" y="0" on="1"/>
        <pt x="223" y="0" on="0"/>
        <pt x="251" y="19" on="0"/>
        <pt x="256" y="36" on="1"/>
        <pt x="283" y="98" on="0"/>
        <pt x="343" y="236" on="0"/>
        <pt x="416" y="401" on="1"/>
        <pt x="447" y="292" on="0"/>
        <pt x="518" y="99" on="0"/>
        <pt x="556" y="19" on="1"/>
        <pt x="571" y="-23" on="0"/>
      </contour>
    </TTGlyph>
    <TTGlyph name="W_T_F" xMin="30" yMin="-40" xMax="1670" yMax="587">
      <contour>
        <pt x="529" y="-40" on="1"/>
        <pt x="553" y="-40" on="0"/>
        <pt x="591" y="4" on="0"/>
        <pt x="619" y="66" on="0"/>
        <pt x="640" y="133" on="0"/>
        <pt x="647" y="157" on="1"/>
        <pt x="670" y="234" on="0"/>
        <pt x="709" y="387" on="0"/>
        <pt x="731" y="463" on="1"/>
        <pt x="758" y="466" on="0"/>
        <pt x="821" y="468" on="0"/>
        <pt x="857" y="468" on="1"/>
        <pt x="862" y="352" on="0"/>
        <pt x="889" y="135" on="0"/>
        <pt x="894" y="23" on="1"/>
        <pt x="895" y="0" on="0"/>
        <pt x="924" y="-33" on="0"/>
        <pt x="945" y="-33" on="1"/>
        <pt x="962" y="-33" on="0"/>
        <pt x="994" y="-8" on="0"/>
        <pt x="994" y="17" on="1"/>
        <pt x="994" y="63" on="0"/>
        <pt x="984" y="173" on="0"/>
        <pt x="972" y="290" on="0"/>
        <pt x="960" y="410" on="0"/>
        <pt x="958" y="467" on="1"/>
        <pt x="1198" y="467" on="1"/>
        <pt x="1197" y="356" on="0"/>
        <pt x="1194" y="137" on="0"/>
        <pt x="1192" y="26" on="1"/>
        <pt x="1192" y="-3" on="0"/>
        <pt x="1221" y="-32" on="0"/>
        <pt x="1241" y="-32" on="1"/>
        <pt x="1258" y="-32" on="0"/>
        <pt x="1292" y="-8" on="0"/>
        <pt x="1292" y="18" on="1"/>
        <pt x="1292" y="67" on="0"/>
        <pt x="1293" y="163" on="0"/>
        <pt x="1294" y="212" on="1"/>
        <pt x="1486" y="212" on="1"/>
        <pt x="1513" y="212" on="0"/>
        <pt x="1540" y="245" on="0"/>
        <pt x="1540" y="262" on="1"/>
        <pt x="1540" y="282" on="0"/>
        <pt x="1513" y="312" on="0"/>
        <pt x="1486" y="312" on="1"/>
        <pt x="1296" y="312" on="1"/>
        <pt x="1298" y="466" on="1"/>
        <pt x="1378" y="466" on="0"/>
        <pt x="1536" y="464" on="0"/>
        <pt x="1616" y="464" on="1"/>
        <pt x="1642" y="464" on="0"/>
        <pt x="1670" y="493" on="0"/>
        <pt x="1670" y="514" on="1"/>
        <pt x="1670" y="534" on="0"/>
        <pt x="1642" y="564" on="0"/>
        <pt x="1616" y="564" on="1"/>
        <pt x="1476" y="564" on="0"/>
        <pt x="1201" y="567" on="0"/>
        <pt x="1061" y="567" on="1"/>
        <pt x="886" y="567" on="1"/>
        <pt x="837" y="567" on="0"/>
        <pt x="742" y="566" on="0"/>
        <pt x="704" y="561" on="1"/>
        <pt x="681" y="558" on="0"/>
        <pt x="655" y="538" on="0"/>
        <pt x="646" y="518" on="1"/>
        <pt x="631" y="483" on="0"/>
        <pt x="606" y="397" on="0"/>
        <pt x="581" y="298" on="0"/>
        <pt x="552" y="185" on="0"/>
        <pt x="533" y="124" on="1"/>
        <pt x="513" y="167" on="0"/>
        <pt x="468" y="260" on="0"/>
        <pt x="442" y="305" on="1"/>
        <pt x="439" y="328" on="0"/>
        <pt x="409" y="370" on="0"/>
        <pt x="379" y="370" on="1"/>
        <pt x="370" y="370" on="0"/>
        <pt x="351" y="363" on="0"/>
        <pt x="343" y="353" on="1"/>
        <pt x="332" y="340" on="0"/>
        <pt x="330" y="304" on="0"/>
        <pt x="323" y="285" on="1"/>
        <pt x="316" y="265" on="0"/>
        <pt x="289" y="187" on="0"/>
        <pt x="272" y="149" on="1"/>
        <pt x="261" y="174" on="0"/>
        <pt x="240" y="221" on="0"/>
        <pt x="232" y="242" on="1"/>
        <pt x="218" y="278" on="0"/>
        <pt x="200" y="352" on="0"/>
        <pt x="186" y="388" on="1"/>
        <pt x="172" y="423" on="0"/>
        <pt x="139" y="500" on="0"/>
        <pt x="130" y="537" on="1"/>
        <pt x="124" y="562" on="0"/>
        <pt x="96" y="587" on="0"/>
        <pt x="79" y="587" on="1"/>
        <pt x="60" y="587" on="0"/>
        <pt x="30" y="558" on="0"/>
        <pt x="30" y="529" on="1"/>
        <pt x="30" y="512" on="0"/>
        <pt x="46" y="464" on="0"/>
        <pt x="68" y="411" on="0"/>
        <pt x="93" y="356" on="0"/>
        <pt x="101" y="332" on="1"/>
        <pt x="127" y="254" on="0"/>
        <pt x="178" y="94" on="0"/>
        <pt x="212" y="19" on="1"/>
        <pt x="220" y="0" on="0"/>
        <pt x="240" y="-20" on="0"/>
        <pt x="260" y="-20" on="1"/>
        <pt x="281" y="-20" on="0"/>
        <pt x="320" y="20" on="0"/>
        <pt x="353" y="80" on="0"/>
        <pt x="381" y="151" on="0"/>
        <pt x="392" y="182" on="1"/>
        <pt x="414" y="144" on="0"/>
        <pt x="437" y="87" on="0"/>
        <pt x="448" y="61" on="1"/>
        <pt x="455" y="44" on="0"/>
        <pt x="467" y="8" on="0"/>
        <pt x="484" y="-21" on="0"/>
        <pt x="509" y="-40" on="0"/>
      </contour>
    </TTGlyph>
    <TTGlyph name="Wacute" xMin="36" yMin="-23" xMax="797" yMax="836">
      <component glyphName="W" x="0" y="0" flags="0x0"/>
      <component glyphName="acutecomb.case" x="740" y="-92" flags="0x4"/>
    </TTGlyph>
    <TTGlyph name="Wcircumflex" xMin="36" yMin="-23" xMax="797" yMax="882">
      <component glyphName="W" x="0" y="0" flags="0x0"/>
      <component glyphName="uni0302.case" x="777" y="-42" flags="0x4"/>
    </TTGlyph>
    <TTGlyph name="Wdieresis" xMin="36" yMin="-23" xMax="797" yMax="820">
      <component glyphName="W" x="0" y="0" flags="0x0"/>
      <component glyphName="uni0308.case" x="554" y="-132" flags="0x4"/>
    </TTGlyph>
    <TTGlyph name="Wgrave" xMin="36" yMin="-23" xMax="797" yMax="886">
      <component glyphName="W" x="0" y="0" flags="0x0"/>
      <component glyphName="gravecomb.case" x="740" y="-32" flags="0x4"/>
    </TTGlyph>
    <TTGlyph name="X" xMin="21" yMin="5" xMax="721" yMax="700">
      <contour>
        <pt x="657" y="5" on="1"/>
        <pt x="678" y="5" on="0"/>
        <pt x="703" y="38" on="0"/>
        <pt x="694" y="81" on="0"/>
        <pt x="672" y="98" on="1"/>
        <pt x="559" y="186" on="0"/>
        <pt x="415" y="355" on="1"/>
        <pt x="541" y="478" on="0"/>
        <pt x="698" y="614" on="1"/>
        <pt x="718" y="631" on="0"/>
        <pt x="721" y="671" on="0"/>
        <pt x="692" y="700" on="0"/>
        <pt x="653" y="700" on="0"/>
        <pt x="636" y="686" on="1"/>
        <pt x="498" y="571" on="0"/>
        <pt x="353" y="429" on="1"/>
        <pt x="257" y="547" on="0"/>
        <pt x="180" y="651" on="1"/>
        <pt x="160" y="678" on="0"/>
        <pt x="133" y="678" on="1"/>
        <pt x="113" y="678" on="0"/>
        <pt x="86" y="650" on="0"/>
        <pt x="86" y="609" on="0"/>
        <pt x="101" y="588" on="1"/>
        <pt x="171" y="489" on="0"/>
        <pt x="277" y="362" on="1"/>
        <pt x="154" y="239" on="0"/>
        <pt x="36" y="94" on="1"/>
        <pt x="21" y="75" on="0"/>
        <pt x="22" y="34" on="0"/>
        <pt x="51" y="6" on="0"/>
        <pt x="92" y="6" on="0"/>
        <pt x="110" y="28" on="1"/>
        <pt x="212" y="156" on="0"/>
        <pt x="341" y="288" on="1"/>
        <pt x="417" y="202" on="0"/>
        <pt x="566" y="58" on="0"/>
        <pt x="625" y="16" on="1"/>
        <pt x="640" y="5" on="0"/>
      </contour>
    </TTGlyph>
    <TTGlyph name="Xi" xMin="12" yMin="3" xMax="549" yMax="714">
      <contour>
        <pt x="80" y="603" on="1"/>
        <pt x="184" y="604" on="0"/>
        <pt x="391" y="613" on="0"/>
        <pt x="495" y="614" on="1"/>
        <pt x="522" y="616" on="0"/>
        <pt x="549" y="647" on="0"/>
        <pt x="549" y="664" on="1"/>
        <pt x="549" y="681" on="0"/>
        <pt x="522" y="711" on="0"/>
        <pt x="495" y="714" on="1"/>
        <pt x="391" y="713" on="0"/>
        <pt x="184" y="704" on="0"/>
        <pt x="80" y="703" on="1"/>
        <pt x="57" y="697" on="0"/>
        <pt x="36" y="669" on="0"/>
        <pt x="36" y="653" on="1"/>
        <pt x="36" y="637" on="0"/>
        <pt x="57" y="608" on="0"/>
      </contour>
      <contour>
        <pt x="483" y="3" on="1"/>
        <pt x="510" y="5" on="0"/>
        <pt x="537" y="36" on="0"/>
        <pt x="537" y="53" on="1"/>
        <pt x="537" y="70" on="0"/>
        <pt x="510" y="100" on="0"/>
        <pt x="483" y="103" on="1"/>
        <pt x="376" y="103" on="0"/>
        <pt x="163" y="105" on="0"/>
        <pt x="56" y="105" on="1"/>
        <pt x="33" y="99" on="0"/>
        <pt x="12" y="71" on="0"/>
        <pt x="12" y="55" on="1"/>
        <pt x="12" y="39" on="0"/>
        <pt x="33" y="10" on="0"/>
        <pt x="56" y="5" on="1"/>
        <pt x="163" y="5" on="0"/>
        <pt x="376" y="3" on="0"/>
      </contour>
      <contour>
        <pt x="389" y="311" on="1"/>
        <pt x="416" y="313" on="0"/>
        <pt x="443" y="344" on="0"/>
        <pt x="443" y="361" on="1"/>
        <pt x="443" y="378" on="0"/>
        <pt x="416" y="408" on="0"/>
        <pt x="389" y="411" on="1"/>
        <pt x="332" y="411" on="0"/>
        <pt x="221" y="413" on="0"/>
        <pt x="164" y="413" on="1"/>
        <pt x="141" y="407" on="0"/>
        <pt x="120" y="379" on="0"/>
        <pt x="120" y="363" on="1"/>
        <pt x="120" y="347" on="0"/>
        <pt x="141" y="318" on="0"/>
        <pt x="164" y="313" on="1"/>
        <pt x="221" y="313" on="0"/>
        <pt x="332" y="311" on="0"/>
      </contour>
    </TTGlyph>
    <TTGlyph name="Y" xMin="25" yMin="-29" xMax="646" yMax="739">
      <contour>
        <pt x="258" y="-29" on="1"/>
        <pt x="275" y="-29" on="0"/>
        <pt x="309" y="-5" on="0"/>
        <pt x="309" y="21" on="1"/>
        <pt x="309" y="54" on="0"/>
        <pt x="317" y="130" on="0"/>
        <pt x="329" y="212" on="0"/>
        <pt x="340" y="295" on="0"/>
        <pt x="343" y="334" on="1"/>
        <pt x="364" y="347" on="0"/>
        <pt x="408" y="379" on="0"/>
        <pt x="450" y="414" on="0"/>
        <pt x="488" y="452" on="0"/>
        <pt x="503" y="471" on="1"/>
        <pt x="526" y="500" on="0"/>
        <pt x="563" y="561" on="0"/>
        <pt x="583" y="591" on="1"/>
        <pt x="591" y="603" on="0"/>
        <pt x="613" y="623" on="0"/>
        <pt x="632" y="643" on="0"/>
        <pt x="646" y="665" on="0"/>
        <pt x="646" y="678" on="1"/>
        <pt x="646" y="696" on="0"/>
        <pt x="622" y="730" on="0"/>
        <pt x="599" y="730" on="1"/>
        <pt x="585" y="730" on="0"/>
        <pt x="556" y="712" on="0"/>
        <pt x="544" y="702" on="1"/>
        <pt x="524" y="686" on="0"/>
        <pt x="494" y="644" on="0"/>
        <pt x="467" y="599" on="0"/>
        <pt x="441" y="553" on="0"/>
        <pt x="425" y="533" on="1"/>
        <pt x="399" y="501" on="0"/>
        <pt x="336" y="454" on="0"/>
        <pt x="304" y="430" on="1"/>
        <pt x="296" y="430" on="0"/>
        <pt x="286" y="429" on="0"/>
        <pt x="282" y="428" on="1"/>
        <pt x="225" y="488" on="0"/>
        <pt x="149" y="615" on="0"/>
        <pt x="124" y="698" on="1"/>
        <pt x="118" y="718" on="0"/>
        <pt x="89" y="739" on="0"/>
        <pt x="72" y="739" on="1"/>
        <pt x="52" y="739" on="0"/>
        <pt x="25" y="713" on="0"/>
        <pt x="25" y="694" on="1"/>
        <pt x="25" y="689" on="0"/>
        <pt x="25" y="679" on="0"/>
        <pt x="27" y="674" on="1"/>
        <pt x="39" y="635" on="0"/>
        <pt x="81" y="536" on="0"/>
        <pt x="137" y="439" on="0"/>
        <pt x="205" y="354" on="0"/>
        <pt x="242" y="329" on="1"/>
        <pt x="239" y="291" on="0"/>
        <pt x="227" y="212" on="0"/>
        <pt x="217" y="134" on="0"/>
        <pt x="209" y="60" on="0"/>
        <pt x="209" y="29" on="1"/>
        <pt x="209" y="0" on="0"/>
        <pt x="239" y="-29" on="0"/>
      </contour>
    </TTGlyph>
    <TTGlyph name="Yacute" xMin="25" yMin="-29" xMax="646" yMax="928">
      <component glyphName="Y" x="0" y="0" flags="0x0"/>
      <component glyphName="acutecomb.case" x="683" y="0" flags="0x0"/>
    </TTGlyph>
    <TTGlyph name="Ycircumflex" xMin="25" yMin="-29" xMax="646" yMax="924">
      <component glyphName="Y" x="0" y="0" flags="0x0"/>
      <component glyphName="uni0302.case" x="703" y="0" flags="0x0"/>
    </TTGlyph>
    <TTGlyph name="Ydieresis" xMin="25" yMin="-29" xMax="646" yMax="942">
      <component glyphName="Y" x="0" y="0" flags="0x0"/>
      <component glyphName="uni0308.case" x="481" y="-10" flags="0x4"/>
    </TTGlyph>
    <TTGlyph name="Ygrave" xMin="25" yMin="-29" xMax="646" yMax="881">
      <component glyphName="Y" x="0" y="0" flags="0x0"/>
      <component glyphName="gravecomb.case" x="703" y="-37" flags="0x4"/>
    </TTGlyph>
    <TTGlyph name="Z" xMin="37" yMin="-17" xMax="677" yMax="721">
      <contour>
        <pt x="185" y="-17" on="1"/>
        <pt x="241" y="-17" on="0"/>
        <pt x="364" y="-10" on="0"/>
        <pt x="429" y="-8" on="1"/>
        <pt x="453" y="-7" on="0"/>
        <pt x="508" y="-5" on="0"/>
        <pt x="560" y="-3" on="0"/>
        <pt x="606" y="-2" on="0"/>
        <pt x="623" y="-2" on="1"/>
        <pt x="648" y="-2" on="0"/>
        <pt x="677" y="31" on="0"/>
        <pt x="677" y="48" on="1"/>
        <pt x="677" y="65" on="0"/>
        <pt x="650" y="98" on="0"/>
        <pt x="623" y="98" on="1"/>
        <pt x="599" y="98" on="0"/>
        <pt x="512" y="95" on="0"/>
        <pt x="401" y="90" on="0"/>
        <pt x="274" y="85" on="0"/>
        <pt x="211" y="83" on="1"/>
        <pt x="220" y="96" on="1"/>
        <pt x="240" y="128" on="0"/>
        <pt x="277" y="187" on="0"/>
        <pt x="294" y="219" on="1"/>
        <pt x="308" y="245" on="0"/>
        <pt x="338" y="297" on="0"/>
        <pt x="351" y="321" on="1"/>
        <pt x="410" y="424" on="1"/>
        <pt x="511" y="596" on="1"/>
        <pt x="521" y="612" on="0"/>
        <pt x="546" y="645" on="0"/>
        <pt x="546" y="664" on="1"/>
        <pt x="546" y="692" on="0"/>
        <pt x="510" y="718" on="0"/>
        <pt x="490" y="718" on="1"/>
        <pt x="486" y="718" on="0"/>
        <pt x="478" y="717" on="0"/>
        <pt x="474" y="717" on="1"/>
        <pt x="377" y="719" on="0"/>
        <pt x="186" y="721" on="0"/>
        <pt x="87" y="721" on="1"/>
        <pt x="66" y="721" on="0"/>
        <pt x="37" y="689" on="0"/>
        <pt x="37" y="671" on="1"/>
        <pt x="37" y="653" on="0"/>
        <pt x="64" y="621" on="0"/>
        <pt x="87" y="621" on="1"/>
        <pt x="128" y="621" on="0"/>
        <pt x="201" y="621" on="0"/>
        <pt x="276" y="620" on="0"/>
        <pt x="357" y="617" on="0"/>
        <pt x="407" y="615" on="1"/>
        <pt x="291" y="418" on="1"/>
        <pt x="236" y="316" on="1"/>
        <pt x="216" y="281" on="0"/>
        <pt x="175" y="210" on="0"/>
        <pt x="153" y="176" on="1"/>
        <pt x="139" y="155" on="0"/>
        <pt x="112" y="111" on="0"/>
        <pt x="95" y="92" on="1"/>
        <pt x="84" y="80" on="0"/>
        <pt x="66" y="58" on="0"/>
        <pt x="66" y="38" on="1"/>
        <pt x="66" y="18" on="0"/>
        <pt x="87" y="-4" on="0"/>
        <pt x="121" y="-14" on="0"/>
        <pt x="164" y="-17" on="0"/>
      </contour>
    </TTGlyph>
    <TTGlyph name="Z.ss02" xMin="37" yMin="-17" xMax="677" yMax="721">
      <contour>
        <pt x="185" y="-17" on="1"/>
        <pt x="295" y="-17" on="0"/>
        <pt x="513" y="-5" on="0"/>
        <pt x="623" y="-2" on="1"/>
        <pt x="650" y="0" on="0"/>
        <pt x="677" y="31" on="0"/>
        <pt x="677" y="48" on="1"/>
        <pt x="677" y="65" on="0"/>
        <pt x="650" y="95" on="0"/>
        <pt x="623" y="98" on="1"/>
        <pt x="532" y="95" on="0"/>
        <pt x="351" y="89" on="0"/>
        <pt x="260" y="85" on="1"/>
        <pt x="211" y="83" on="1"/>
        <pt x="254" y="149" on="0"/>
        <pt x="319" y="261" on="0"/>
        <pt x="351" y="321" on="1"/>
        <pt x="383" y="323" on="0"/>
        <pt x="448" y="325" on="0"/>
        <pt x="480" y="326" on="1"/>
        <pt x="507" y="328" on="0"/>
        <pt x="534" y="359" on="0"/>
        <pt x="534" y="376" on="1"/>
        <pt x="534" y="393" on="0"/>
        <pt x="507" y="423" on="0"/>
        <pt x="480" y="426" on="1"/>
        <pt x="410" y="424" on="1"/>
        <pt x="511" y="596" on="1"/>
        <pt x="521" y="612" on="0"/>
        <pt x="546" y="645" on="0"/>
        <pt x="546" y="664" on="1"/>
        <pt x="546" y="692" on="0"/>
        <pt x="510" y="716" on="0"/>
        <pt x="490" y="718" on="1"/>
        <pt x="486" y="717" on="0"/>
        <pt x="478" y="717" on="0"/>
        <pt x="474" y="717" on="1"/>
        <pt x="375" y="717" on="0"/>
        <pt x="180" y="721" on="0"/>
        <pt x="81" y="721" on="1"/>
        <pt x="58" y="715" on="0"/>
        <pt x="37" y="687" on="0"/>
        <pt x="37" y="671" on="1"/>
        <pt x="37" y="655" on="0"/>
        <pt x="58" y="626" on="0"/>
        <pt x="81" y="621" on="1"/>
        <pt x="122" y="621" on="0"/>
        <pt x="197" y="620" on="0"/>
        <pt x="274" y="618" on="0"/>
        <pt x="357" y="616" on="0"/>
        <pt x="407" y="615" on="1"/>
        <pt x="320" y="468" on="1"/>
        <pt x="291" y="418" on="1"/>
        <pt x="268" y="417" on="0"/>
        <pt x="224" y="416" on="0"/>
        <pt x="201" y="416" on="1"/>
        <pt x="178" y="410" on="0"/>
        <pt x="157" y="382" on="0"/>
        <pt x="157" y="366" on="1"/>
        <pt x="157" y="350" on="0"/>
        <pt x="178" y="321" on="0"/>
        <pt x="201" y="316" on="1"/>
        <pt x="236" y="316" on="1"/>
        <pt x="216" y="281" on="0"/>
        <pt x="175" y="210" on="0"/>
        <pt x="153" y="176" on="1"/>
        <pt x="139" y="155" on="0"/>
        <pt x="112" y="111" on="0"/>
        <pt x="95" y="92" on="1"/>
        <pt x="84" y="80" on="0"/>
        <pt x="66" y="58" on="0"/>
        <pt x="66" y="38" on="1"/>
        <pt x="66" y="18" on="0"/>
        <pt x="87" y="-4" on="0"/>
        <pt x="121" y="-14" on="0"/>
        <pt x="164" y="-17" on="0"/>
      </contour>
    </TTGlyph>
    <TTGlyph name="Zacute" xMin="37" yMin="-17" xMax="677" yMax="927">
      <component glyphName="Z" x="0" y="0" flags="0x0"/>
      <component glyphName="acutecomb.case" x="643" y="-1" flags="0x4"/>
    </TTGlyph>
</ttFont>
